<?xml version="1.0" standalone="no"?>
<!DOCTYPE svg PUBLIC "-//W3C//DTD SVG 1.1//EN" "http://www.w3.org/Graphics/SVG/1.1/DTD/svg11.dtd" >
<svg>
<metadata>
Created by FontForge 20090622 at Sun Feb  9 13:57:49 2020
 By deploy user
Copyright &#194;&#169; 2016 by Red Hat, Inc. All rights reserved.
</metadata>
<defs>
<font id="Overpass-Regular" horiz-adv-x="563" >
  <font-face 
    font-family="Overpass"
    font-weight="400"
    font-stretch="normal"
    units-per-em="1000"
    panose-1="0 0 5 0 0 0 0 0 0 0"
    ascent="750"
    descent="-250"
    x-height="511"
    cap-height="700"
    bbox="-244 -378 1204 1062"
    underline-thickness="84"
    underline-position="-94"
    unicode-range="U+0020-U+1F427"
  />
<missing-glyph horiz-adv-x="235" 
 />
    <glyph glyph-name="fi" unicode="fi" horiz-adv-x="587" 
d="M460 604q-22 0 -38 16t-16 38q0 23 16 39.5t38 16.5q23 0 39 -16.5t16 -39.5t-16 -38.5t-39 -15.5zM199 435v-435h-87v435h-79v76h79v85q0 62 32 89t79 27q50 0 95 -24v-73q-41 19 -73 19q-28 0 -37 -14t-9 -39v-70h119v-76h-119zM417 0v511h87v-511h-87z" />
    <glyph glyph-name="fl" unicode="fl" horiz-adv-x="595" 
d="M421 0v681l87 41v-722h-87zM199 435v-435h-87v435h-79v76h79v85q0 62 32 89t79 27q50 0 95 -24v-73q-41 19 -73 19q-28 0 -37 -14t-9 -39v-70h119v-76h-119z" />
    <glyph glyph-name=".notdef" horiz-adv-x="235" 
 />
    <glyph glyph-name=".null" horiz-adv-x="0" 
 />
    <glyph glyph-name="nonmarkingreturn" horiz-adv-x="333" 
 />
    <glyph glyph-name="space" unicode=" " horiz-adv-x="235" 
 />
    <glyph glyph-name="exclam" unicode="!" horiz-adv-x="273" 
d="M123 193l-29 300v219h88v-219l-30 -300h-29zM137 -13q-29 0 -49 20t-20 48t20 48.5t49 20.5t49 -20.5t20 -48.5q0 -27 -20 -47.5t-49 -20.5z" />
    <glyph glyph-name="quotedbl" unicode="&#x22;" horiz-adv-x="403" 
d="M53 700h108l-19 -273h-71zM241 700h109l-19 -273h-71z" />
    <glyph glyph-name="numbersign" unicode="#" horiz-adv-x="683" 
d="M138 0l30 197h-118l12 74h117l26 172h-114l11 73h114l29 184h78l-28 -184h141l28 184h79l-29 -184h119l-11 -73h-119l-26 -172h115l-11 -74h-115l-30 -197h-79l30 197h-140l-30 -197h-79zM258 271h140l27 172h-141z" />
    <glyph glyph-name="dollar" unicode="$" horiz-adv-x="588" 
d="M249 -98v90q-70 11 -120.5 52t-70.5 100l82 30q21 -48 62.5 -75.5t96.5 -27.5q62 0 97 30t35 87q0 54 -40.5 87.5t-112.5 60.5q-45 17 -72.5 30.5t-61 37.5t-49.5 57.5t-16 77.5q0 65 45.5 112.5t124.5 57.5v80h88v-81q59 -10 98.5 -42t53.5 -79l-80 -27q-31 70 -125 70
q-54 0 -84 -24t-30 -67q0 -23 11 -41.5t34.5 -33.5t44 -24.5t56.5 -23.5q44 -17 73.5 -32t63.5 -41.5t51.5 -65t17.5 -87.5q0 -84 -51 -136t-134 -63v-89h-88z" />
    <glyph glyph-name="percent" unicode="%" horiz-adv-x="870" 
d="M213 356q-82 0 -121.5 53t-39.5 125q0 69 40 123.5t121 54.5t120.5 -52.5t39.5 -125.5q0 -43 -14 -81t-52 -67.5t-94 -29.5zM238 -12h-84l478 724h84zM213 425q41 0 63.5 31.5t22.5 77.5q0 50 -22 79.5t-64 29.5q-43 0 -64.5 -30.5t-21.5 -78.5q0 -49 21.5 -79t64.5 -30z
M657 -12q-81 0 -120.5 53t-39.5 125q0 68 39.5 123t120.5 55q82 0 121.5 -52.5t39.5 -125.5q0 -43 -14 -81t-52 -67.5t-95 -29.5zM657 57q42 0 64 31t22 78q0 50 -22 79.5t-64 29.5t-64 -30.5t-22 -78.5q0 -49 22 -79t64 -30z" />
    <glyph glyph-name="ampersand" unicode="&#x26;" horiz-adv-x="677" 
d="M255 -12q-90 0 -145.5 53t-55.5 140q0 73 42 122t120 93q-44 55 -62 89.5t-18 74.5q0 70 48 111t120 41q71 0 117.5 -43.5t46.5 -110.5q0 -56 -33.5 -97t-96.5 -81l131 -157q24 52 28 106h83q-4 -91 -53 -175l129 -154h-113l-69 83q-90 -95 -219 -95zM301 635
q-37 0 -59.5 -20.5t-22.5 -54.5q0 -17 10.5 -38t23 -37.5t37.5 -46.5q95 55 95 114q0 38 -24 60.5t-60 22.5zM269 69q84 0 152 78l-157 190q-61 -38 -91 -72.5t-30 -78.5q0 -52 35 -84.5t91 -32.5z" />
    <glyph glyph-name="quotesingle" unicode="'" horiz-adv-x="214" 
d="M53 700h108l-19 -273h-71z" />
    <glyph glyph-name="parenleft" unicode="(" horiz-adv-x="343" 
d="M200 -130q-122 160 -122 414q0 269 133 428h84q-43 -52 -87 -167.5t-44 -260.5q0 -101 25.5 -196.5t48 -139t46.5 -78.5h-84z" />
    <glyph glyph-name="parenright" unicode=")" horiz-adv-x="343" 
d="M59 -130q24 35 46.5 78.5t48 139t25.5 196.5q0 145 -44 260.5t-87 167.5h84q133 -159 133 -428q0 -254 -122 -414h-84z" />
    <glyph glyph-name="asterisk" unicode="*" horiz-adv-x="533" 
d="M293 390l-27 74l-27 -74l-68 -93l-65 49l66 91l57 49l-72 2l-103 34l26 78l100 -33l63 -44l-17 74v113h81v-113l-19 -74l64 44l101 33l26 -78l-104 -34l-73 -2l59 -49l66 -91l-65 -49z" />
    <glyph glyph-name="plus" unicode="+" horiz-adv-x="645" 
d="M366 301v-193h-88v193h-190v84h190v193h88v-193h192v-84h-192z" />
    <glyph glyph-name="comma" unicode="," horiz-adv-x="225" 
d="M57 -126q18 16 36 46t20 64q-30 2 -50 20.5t-20 46.5q0 31 19.5 51t47.5 20q32 0 54 -22.5t22 -65.5q0 -55 -28 -101.5t-72 -73.5z" />
    <glyph glyph-name="hyphen" unicode="-" horiz-adv-x="399" 
d="M83 256v84h234v-84h-234z" />
    <glyph glyph-name="period" unicode="." horiz-adv-x="225" 
d="M112 -13q-29 0 -49 20.5t-20 47.5q0 28 20 48.5t49 20.5t49.5 -21t20.5 -48t-20.5 -47.5t-49.5 -20.5z" />
    <glyph glyph-name="slash" unicode="/" horiz-adv-x="490" 
d="M-8 -130l394 842h86l-393 -842h-87z" />
    <glyph glyph-name="zero" unicode="0" horiz-adv-x="639" 
d="M320 -12q-67 0 -117 31.5t-76.5 85t-39 114.5t-12.5 131q0 64 11 122.5t37 115t76.5 90.5t120.5 34q67 0 117 -31.5t76.5 -85.5t39 -115t12.5 -130q0 -64 -11.5 -122.5t-37.5 -115t-76.5 -90.5t-119.5 -34zM320 70q45 0 77 25t47.5 69t22 88.5t6.5 97.5q0 56 -7 103
t-23.5 88.5t-47.5 65.5t-75 24q-46 0 -78 -25.5t-48 -69t-22.5 -89t-6.5 -97.5q0 -56 7 -102.5t24 -88.5t48.5 -65.5t75.5 -23.5z" />
    <glyph glyph-name="one" unicode="1" horiz-adv-x="373" 
d="M157 0v558h-117v59q113 0 141 83h63v-700h-87z" />
    <glyph glyph-name="two" unicode="2" horiz-adv-x="612" 
d="M70 0q0 66 19 120.5t55 95.5t72 69t86 57q46 28 72 47.5t48.5 52.5t22.5 70q0 51 -37.5 85t-99.5 34q-116 0 -149 -103l-78 35q21 66 83 107.5t147 41.5q104 0 164 -55.5t60 -146.5q0 -36 -11 -67t-26.5 -53t-44.5 -46t-51.5 -38.5l-60.5 -37.5q-74 -43 -116.5 -85
t-53.5 -98h370v-85h-471z" />
    <glyph glyph-name="three" unicode="3" horiz-adv-x="602" 
d="M291 -12q-177 0 -239 163l81 33q47 -113 158 -113q66 0 108 32t42 93q0 58 -37 92.5t-108 34.5h-50v82h45q55 0 89 30.5t34 80.5q0 52 -33.5 83t-86.5 31q-95 0 -139 -94l-81 31q25 64 81.5 104.5t138.5 40.5q91 0 151 -53t60 -133q0 -48 -23.5 -89t-66.5 -63
q55 -22 86 -67t31 -108q0 -95 -69 -153t-172 -58z" />
    <glyph glyph-name="four" unicode="4" horiz-adv-x="621" 
d="M383 0v174h-358v52l363 474h82v-448h99v-78h-99v-174h-87zM383 252v325l-244 -325h244z" />
    <glyph glyph-name="five" unicode="5" horiz-adv-x="621" 
d="M291 -12q-78 0 -136 23t-88 54l52 67q73 -64 171 -64q74 0 122.5 45t48.5 112q0 66 -39.5 107t-103.5 41q-90 0 -141 -57l-86 30l41 354h374v-81h-298l-27 -211q60 48 147 48q100 0 162 -65t62 -160q0 -102 -72.5 -172.5t-188.5 -70.5z" />
    <glyph glyph-name="six" unicode="6" horiz-adv-x="597" 
d="M302 -12q-114 0 -175.5 75.5t-61.5 195.5q0 166 99.5 292t270.5 161v-77q-95 -22 -169.5 -91.5t-95.5 -163.5q50 57 153 57q90 0 151 -64t61 -156q0 -99 -66.5 -164t-166.5 -65zM301 70q65 0 106 39t41 103q0 65 -40.5 104.5t-106.5 39.5q-65 0 -106.5 -39.5
t-41.5 -104.5q0 -63 42 -102.5t106 -39.5z" />
    <glyph glyph-name="seven" unicode="7" horiz-adv-x="522" 
d="M175 0q2 177 50 324.5t158 294.5h-348v81h445v-79q-63 -72 -107.5 -157.5t-66.5 -169.5t-32 -154.5t-10 -139.5h-89z" />
    <glyph glyph-name="eight" unicode="8" horiz-adv-x="611" 
d="M305 -12q-103 0 -169 60.5t-66 152.5q0 64 33 112.5t87 71.5q-43 22 -66 60t-23 85q0 77 57.5 129.5t146.5 52.5t147 -52.5t58 -129.5q0 -101 -90 -145q55 -24 88 -72t33 -112q0 -92 -66 -152.5t-170 -60.5zM305 420q52 0 84.5 29.5t32.5 73.5q0 49 -32.5 78.5
t-84.5 29.5q-51 0 -83.5 -29.5t-32.5 -78.5q0 -44 32 -73.5t84 -29.5zM305 70q64 0 105 37.5t41 100.5q0 57 -41.5 98t-104.5 41t-104 -40.5t-41 -98.5q0 -63 40.5 -100.5t104.5 -37.5z" />
    <glyph glyph-name="nine" unicode="9" horiz-adv-x="597" 
d="M174 -12v81q95 17 164.5 84t86.5 171q-49 -60 -153 -60q-92 0 -153.5 63t-61.5 157q0 99 67.5 163.5t170.5 64.5q115 0 174 -75t59 -196q0 -177 -94.5 -303.5t-259.5 -149.5zM292 345q65 0 105.5 39.5t40.5 103.5q0 61 -41.5 100.5t-104.5 39.5q-65 0 -105.5 -39.5
t-40.5 -100.5q0 -65 39.5 -104t106.5 -39z" />
    <glyph glyph-name="colon" unicode=":" horiz-adv-x="225" 
d="M112 347q-29 0 -49 20.5t-20 47.5q0 28 20 48.5t49 20.5t49.5 -21t20.5 -48t-20.5 -47.5t-49.5 -20.5zM112 -13q-29 0 -49 20.5t-20 47.5q0 28 20 48.5t49 20.5t49.5 -21t20.5 -48t-20.5 -47.5t-49.5 -20.5z" />
    <glyph glyph-name="semicolon" unicode=";" horiz-adv-x="225" 
d="M112 347q-29 0 -49 20t-20 48t20 48.5t49 20.5t49 -20.5t20 -48.5q0 -27 -20 -47.5t-49 -20.5zM57 -126q18 16 34.5 46t18.5 65q-28 1 -47.5 19.5t-19.5 46.5q0 31 19.5 51t47.5 20q32 0 54 -22.5t22 -65.5q0 -55 -28 -101.5t-72 -73.5z" />
    <glyph glyph-name="less" unicode="&#x3c;" horiz-adv-x="645" 
d="M558 114l-470 190v77l470 191v-86l-361 -143l361 -142v-87z" />
    <glyph glyph-name="equal" unicode="=" horiz-adv-x="645" 
d="M88 389v84h470v-84h-470zM88 213v83h470v-83h-470z" />
    <glyph glyph-name="greater" unicode="&#x3e;" horiz-adv-x="645" 
d="M558 304l-470 -190v86l360 143l-360 143v86l470 -191v-77z" />
    <glyph glyph-name="question" unicode="?" horiz-adv-x="514" 
d="M203 180v22q0 53 18.5 93t45 64.5t53 46.5t45 51t18.5 65q0 47 -33 78t-91 31q-67 0 -104.5 -37t-37.5 -99h-85q0 97 62.5 157t164.5 60q100 0 156 -54t56 -137q0 -47 -18.5 -83t-45 -59.5l-53 -46t-45 -55.5t-18.5 -76v-21h-88zM245 -13q-29 0 -49 20.5t-20 47.5
q0 28 20 48.5t49 20.5t49.5 -21t20.5 -48t-20.5 -47.5t-49.5 -20.5z" />
    <glyph glyph-name="at" unicode="@" horiz-adv-x="809" 
d="M408 -12q-155 0 -254 93t-99 255q0 163 107.5 269.5t259.5 106.5q148 0 240 -85t92 -215q0 -108 -51.5 -179.5t-124.5 -71.5q-34 0 -56.5 18t-28.5 50q-42 -74 -122 -74q-63 0 -104 48t-41 123q0 79 52 143t132 64q81 0 105 -77l11 64h76l-36 -201q-7 -42 -7 -55
q0 -38 31 -38q37 0 64.5 55t27.5 133q0 103 -71 164.5t-185 61.5q-131 0 -211.5 -86.5t-80.5 -218.5q0 -123 74.5 -199t203.5 -76q76 0 133 17l-18 -78q-47 -11 -119 -11zM388 228q48 0 78 40.5t30 94.5q0 43 -22 69.5t-57 26.5q-49 0 -79.5 -39t-30.5 -95q0 -44 22 -70.5
t59 -26.5z" />
    <glyph glyph-name="A" unicode="A" horiz-adv-x="679" 
d="M539 0l-60 171h-278l-59 -171h-91l248 700h81l248 -700h-89zM452 248l-90 259q-17 49 -22 71q-11 -39 -22 -71l-91 -259h225z" />
    <glyph glyph-name="B" unicode="B" horiz-adv-x="656" 
d="M98 700h248q115 0 166.5 -53t51.5 -132q0 -48 -27 -86.5t-76 -59.5q61 -19 94.5 -63.5t33.5 -104.5q0 -38 -12 -72t-37 -64t-71 -47.5t-107 -17.5h-264v700zM329 403q73 0 111 29.5t38 81.5q0 107 -127 107h-166v-218h144zM372 80q71 0 101 33t30 82q0 129 -163 129h-155
v-244h187z" />
    <glyph glyph-name="C" unicode="C" horiz-adv-x="647" 
d="M358 -12q-76 0 -134 31t-91 84t-49 115t-16 132q0 69 16.5 131.5t50 115t91 84t132.5 31.5q164 0 226 -126l-78 -40q-28 42 -61.5 63.5t-86.5 21.5q-71 0 -118 -45t-64.5 -105.5t-17.5 -130.5q0 -115 51 -197.5t149 -82.5t152 89l80 -30q-29 -64 -87 -102.5t-145 -38.5z
" />
    <glyph glyph-name="D" unicode="D" horiz-adv-x="682" 
d="M98 700h191q86 0 151 -30t102 -81t54.5 -111t17.5 -128q0 -65 -16.5 -123.5t-52 -111t-102.5 -84t-158 -31.5h-187v700zM296 81q62 0 108.5 23.5t71.5 64t36.5 85.5t11.5 96q0 72 -21 131t-72 99t-124 40h-122v-539h111z" />
    <glyph glyph-name="E" unicode="E" horiz-adv-x="599" 
d="M98 0v700h416v-82h-329v-215h217v-82h-217v-238h351v-83h-438z" />
    <glyph glyph-name="F" unicode="F" horiz-adv-x="562" 
d="M98 0v700h421v-82h-334v-215h221v-82h-221v-321h-87z" />
    <glyph glyph-name="G" unicode="G" horiz-adv-x="688" 
d="M365 -12q-77 0 -135.5 30.5t-93 82.5t-51.5 115t-17 134q0 70 18 133.5t53 115t93.5 82.5t132.5 31q89 0 140.5 -33t86.5 -90l-78 -45q-28 41 -62 63.5t-87 22.5q-45 0 -81 -17t-59 -44.5t-38.5 -64.5t-22 -75.5t-6.5 -78.5q0 -118 52 -198.5t155 -80.5q71 0 114 44.5
t43 116.5v28h-127v80h218v-84q0 -127 -69.5 -197.5t-178.5 -70.5z" />
    <glyph glyph-name="H" unicode="H" horiz-adv-x="700" 
d="M515 0v322h-330v-322h-87v700h87v-296h330v296h87v-700h-87z" />
    <glyph glyph-name="I" unicode="I" horiz-adv-x="287" 
d="M100 0v700h87v-700h-87z" />
    <glyph glyph-name="J" unicode="J" horiz-adv-x="546" 
d="M230 -12q-148 0 -202 126l72 37q21 -43 50 -62t81 -19q133 0 133 157v473h87v-470q0 -69 -20 -118.5t-54 -75t-70.5 -37t-76.5 -11.5z" />
    <glyph glyph-name="K" unicode="K" horiz-adv-x="660" 
d="M512 0l-208 385l-119 -146v-239h-87v700h87v-343l273 343h98l-193 -242l250 -458h-101z" />
    <glyph glyph-name="L" unicode="L" horiz-adv-x="559" 
d="M98 0v700h87v-616h344v-84h-431z" />
    <glyph glyph-name="M" unicode="M" horiz-adv-x="803" 
d="M706 0h-87v430q0 41 2 77q-10 -28 -31 -79l-192 -440l-186 442q-24 58 -30 76q3 -27 3 -76v-430h-87v700h82l203 -471l18 -47q4 12 18 47l204 471h83v-700z" />
    <glyph glyph-name="N" unicode="N" horiz-adv-x="708" 
d="M610 0h-84l-315 500q-18 29 -28 49q2 -30 2 -49v-500h-87v700h88l310 -498q16 -26 29 -52q-2 36 -2 51v499h87v-700z" />
    <glyph glyph-name="O" unicode="O" horiz-adv-x="730" 
d="M365 -12q-79 0 -138.5 31.5t-93 85t-49.5 115t-16 130.5t16 130.5t49.5 115t93 85t138.5 31.5q64 0 115.5 -21t85 -56t56 -83t32 -98t9.5 -104t-9.5 -104t-32 -98t-56 -83t-85 -56t-115.5 -21zM365 70q55 0 97 25.5t65 67.5t34 89.5t11 97.5q0 74 -18.5 134.5t-67 103.5
t-121.5 43q-55 0 -96.5 -25.5t-64.5 -68t-34.5 -89.5t-11.5 -98q0 -54 11 -102t34.5 -89t65 -65t96.5 -24z" />
    <glyph glyph-name="P" unicode="P" horiz-adv-x="630" 
d="M98 0v700h268q61 0 106.5 -18t70.5 -48.5t37 -66.5t12 -77q0 -83 -56.5 -146t-169.5 -63h-181v-281h-87zM372 362q68 0 100.5 38t32.5 90q0 51 -31 90t-102 39h-187v-257h187z" />
    <glyph glyph-name="Q" unicode="Q" horiz-adv-x="730" 
d="M365 -12q-79 0 -138.5 31.5t-93 85t-49.5 115t-16 130.5t16 130.5t49.5 115t93 85t138.5 31.5q64 0 115.5 -21t85 -56t56 -83t32 -98t9.5 -104q0 -194 -107 -293l53 -78l-64 -45l-54 80q-55 -26 -126 -26zM365 70q45 0 77 16l-50 75l66 45l48 -72q66 79 66 216
q0 74 -18.5 134.5t-67 103.5t-121.5 43q-55 0 -96.5 -25.5t-64.5 -68t-34.5 -89.5t-11.5 -98q0 -54 11 -102t34.5 -89t65 -65t96.5 -24z" />
    <glyph glyph-name="R" unicode="R" horiz-adv-x="665" 
d="M98 0v700h276q116 0 168.5 -57t52.5 -142q0 -69 -40.5 -123.5t-122.5 -71.5l150 -306h-98l-144 300h-155v-300h-87zM185 381h191q68 0 99.5 34t31.5 84q0 48 -30.5 84t-100.5 36h-191v-238z" />
    <glyph glyph-name="S" unicode="S" horiz-adv-x="599" 
d="M302 -12q-89 0 -154.5 43.5t-89.5 112.5l82 30q22 -48 65 -76t99 -28q64 0 101 30.5t37 87.5q0 55 -41.5 88t-116.5 60q-36 13 -59.5 23t-54 28.5t-48.5 38t-30.5 49t-12.5 64.5q0 73 58 123t157 50q81 0 135 -34.5t70 -90.5l-80 -27q-14 31 -48 51t-83 20
q-55 0 -87 -24.5t-32 -67.5q0 -23 11.5 -42t36 -34t45.5 -24t58 -23q46 -17 76 -32.5t65 -41.5t53 -64.5t18 -87.5q0 -94 -64 -148t-166 -54z" />
    <glyph glyph-name="T" unicode="T" horiz-adv-x="583" 
d="M335 617v-617h-87v617h-195v83h477v-83h-195z" />
    <glyph glyph-name="U" unicode="U" horiz-adv-x="689" 
d="M344 -12q-251 0 -251 275v437h87v-437q0 -107 44 -150t120 -43t120.5 43t44.5 150v437h87v-437q0 -275 -252 -275z" />
    <glyph glyph-name="V" unicode="V" horiz-adv-x="652" 
d="M288 0l-240 700h93l167 -506l21 -71q4 19 20 71l162 506h93l-239 -700h-77z" />
    <glyph glyph-name="W" unicode="W" horiz-adv-x="840" 
d="M193 0l-143 700h91l86 -456q9 -45 13 -75q0 1 19 74l124 457h69l125 -456q12 -45 16 -68q4 26 13 69l95 455h89l-152 -700h-69l-135 478q-15 55 -18 69q-5 -27 -17 -69l-135 -478h-71z" />
    <glyph glyph-name="X" unicode="X" horiz-adv-x="606" 
d="M462 0l-161 283l-157 -283h-97l208 362l-193 338h98l144 -253l142 253h96l-192 -333l210 -367h-98z" />
    <glyph glyph-name="Y" unicode="Y" horiz-adv-x="641" 
d="M278 0v275l-238 425h98l183 -340l185 340h95l-236 -423v-277h-87z" />
    <glyph glyph-name="Z" unicode="Z" horiz-adv-x="650" 
d="M63 0v67l406 550h-383v83h496v-67l-404 -550h404v-83h-519z" />
    <glyph glyph-name="bracketleft" unicode="[" horiz-adv-x="376" 
d="M108 -130v842h220v-80h-133v-682h133v-80h-220z" />
    <glyph glyph-name="backslash" unicode="\" horiz-adv-x="490" 
d="M386 -130l-394 842h87l393 -842h-86z" />
    <glyph glyph-name="bracketright" unicode="]" horiz-adv-x="376" 
d="M268 -130h-220v80h133v682h-133v80h220v-842z" />
    <glyph glyph-name="asciicircum" unicode="^" horiz-adv-x="645" 
d="M471 356l-148 247l-148 -247h-90l196 356h82l197 -356h-89z" />
    <glyph glyph-name="underscore" unicode="_" horiz-adv-x="515" 
d="M3 -177v83h510v-83h-510z" />
    <glyph glyph-name="grave" unicode="`" horiz-adv-x="368" 
d="M210 576l-178 156h124l142 -156h-88z" />
    <glyph glyph-name="a" unicode="a" horiz-adv-x="526" 
d="M376 0v47q-63 -59 -145 -59q-81 0 -129.5 44.5t-48.5 127.5t55 126t136 43q74 0 132 -33v36q0 64 -28.5 89.5t-82.5 25.5q-77 0 -149 -51l-25 73q82 54 185 54q182 0 182 -184v-339h-82zM244 65q75 0 132 67v88q-55 34 -120 34q-53 0 -87 -24t-34 -70q0 -43 28.5 -69
t80.5 -26z" />
    <glyph glyph-name="b" unicode="b" horiz-adv-x="562" 
d="M301 -12q-73 0 -131 56v-44h-87v681l87 41v-255q51 56 128 56q96 0 154 -71t58 -196q0 -129 -55.5 -198.5t-153.5 -69.5zM289 69q65 0 98.5 49.5t33.5 137.5q0 91 -33.5 139t-98.5 48q-40 0 -72 -21t-47 -47v-237q19 -32 51 -50.5t68 -18.5z" />
    <glyph glyph-name="c" unicode="c" horiz-adv-x="500" 
d="M265 -12q-98 0 -155 70.5t-57 196.5t57.5 197t158.5 71q136 0 179 -119l-82 -30q-26 68 -96 68q-64 0 -96 -49t-32 -138q0 -88 32 -136.5t93 -48.5q80 0 104 76l81 -27q-19 -63 -67.5 -97t-119.5 -34z" />
    <glyph glyph-name="d" unicode="d" horiz-adv-x="562" 
d="M264 -12q-97 0 -154 72t-57 196q0 125 57.5 196t153.5 71q75 0 129 -48v206l87 41v-722h-87v40q-50 -52 -129 -52zM276 69q76 0 117 69v240q-41 65 -117 65q-65 0 -100 -48.5t-35 -138.5q0 -81 36.5 -134t98.5 -53z" />
    <glyph glyph-name="e" unicode="e" horiz-adv-x="538" 
d="M280 -12q-104 0 -165.5 74.5t-61.5 193.5q0 125 62 196t165 71q92 0 151.5 -61.5t59.5 -181.5q0 -28 -3 -58h-346q5 -70 43.5 -112.5t96.5 -42.5q64 0 110 46l53 -59q-66 -66 -165 -66zM141 296h262q-1 79 -37.5 114.5t-85.5 35.5q-59 0 -97 -37.5t-42 -112.5z" />
    <glyph glyph-name="f" unicode="f" horiz-adv-x="333" 
d="M199 435v-435h-87v435h-79v76h79v85q0 62 32 89t79 27q50 0 95 -24v-73q-41 19 -73 19q-28 0 -37 -14t-9 -39v-70h119v-76h-119z" />
    <glyph glyph-name="g" unicode="g" 
d="M240 -207l-42 68q111 6 153.5 38.5t42.5 88.5v62q-45 -62 -132 -62q-90 0 -149.5 70t-59.5 198q0 124 58.5 195.5t153.5 71.5q80 0 129 -54v42h87v-490q0 -117 -62.5 -169t-178.5 -59zM280 69q32 0 63.5 19.5t50.5 52.5v234q-18 30 -51 49t-63 19q-68 0 -103.5 -48.5
t-35.5 -138.5q0 -87 38.5 -137t100.5 -50z" />
    <glyph glyph-name="h" unicode="h" 
d="M83 0v682l87 40v-264q47 65 132 65q90 0 136.5 -54.5t46.5 -174.5v-294h-87v309q0 69 -29.5 101.5t-80.5 32.5q-118 0 -118 -132v-311h-87z" />
    <glyph glyph-name="i" unicode="i" horiz-adv-x="254" 
d="M127 604q-23 0 -38.5 16t-15.5 38q0 23 16 39.5t38 16.5q23 0 39 -16.5t16 -39.5t-16 -38.5t-39 -15.5zM84 0v511h87v-511h-87z" />
    <glyph glyph-name="j" unicode="j" horiz-adv-x="254" 
d="M128 604q-23 0 -39 15.5t-16 38.5t16 39.5t39 16.5t38.5 -16.5t15.5 -39.5t-15.5 -38.5t-38.5 -15.5zM-6 -214l-41 66q74 12 102.5 38t28.5 74v547h87v-515q0 -93 -38 -138q-48 -59 -139 -72z" />
    <glyph glyph-name="k" unicode="k" horiz-adv-x="531" 
d="M498 0h-95l-158 309l-75 -78v-231h-87v681l87 41v-387l166 176h104l-134 -139z" />
    <glyph glyph-name="l" unicode="l" horiz-adv-x="262" 
d="M88 0v681l87 41v-722h-87z" />
    <glyph glyph-name="m" unicode="m" horiz-adv-x="846" 
d="M682 0v310q0 133 -103 133q-49 0 -79.5 -37.5t-30.5 -98.5v-307h-87v310q0 133 -102 133q-51 0 -80.5 -35.5t-29.5 -96.5v-311h-87v511h87v-48q45 60 134 60q43 0 79.5 -19.5t57.5 -55.5q49 75 148 75q80 0 130 -49t50 -139v-335h-87z" />
    <glyph glyph-name="n" unicode="n" 
d="M398 0v309q0 69 -29.5 101.5t-80.5 32.5q-118 0 -118 -132v-311h-87v511h87v-52q47 64 132 64q90 0 136.5 -54.5t46.5 -174.5v-294h-87z" />
    <glyph glyph-name="o" unicode="o" horiz-adv-x="558" 
d="M279 -12q-104 0 -165 71t-61 196t61 196.5t165 71.5t165 -71t61 -196t-61 -196.5t-165 -71.5zM279 69q65 0 101.5 49.5t36.5 137.5q0 87 -36.5 137t-101.5 50t-101.5 -49.5t-36.5 -138.5q0 -87 36.5 -136.5t101.5 -49.5z" />
    <glyph glyph-name="p" unicode="p" horiz-adv-x="564" 
d="M301 -12q-80 0 -131 60v-209l-87 -41v713h87v-43q55 55 131 55q97 0 154 -72t57 -195q0 -125 -58 -196.5t-153 -71.5zM290 69q64 0 98.5 48.5t34.5 138.5q0 85 -35.5 136t-97.5 51q-81 0 -120 -69v-236q53 -69 120 -69z" />
    <glyph glyph-name="q" unicode="q" 
d="M265 -12q-97 0 -154.5 71t-57.5 196q0 124 56 196t153 72q71 0 132 -55v43h87v-672l-87 -39v248q-53 -60 -129 -60zM273 69q67 0 121 70v235q-41 69 -121 69q-61 0 -96.5 -53t-35.5 -135q0 -90 34 -138t98 -48z" />
    <glyph glyph-name="r" unicode="r" horiz-adv-x="389" 
d="M83 0v511h87v-67q36 79 121 79q48 0 79 -26l-13 -82q-32 22 -73 22q-45 0 -79.5 -35t-34.5 -114v-288h-87z" />
    <glyph glyph-name="s" unicode="s" horiz-adv-x="469" 
d="M234 -12q-55 0 -104.5 23.5t-80.5 62.5l62 53q57 -61 125 -61q43 0 69 16.5t26 48.5q0 24 -19 43.5t-39 29t-59 24.5q-78 29 -118 65t-40 95q0 62 48.5 98.5t123.5 36.5q107 0 172 -77l-60 -50q-47 49 -113 49q-39 0 -62 -15t-23 -42q0 -15 7.5 -27.5t27 -23.5t31 -16.5
t42.5 -17.5q81 -29 123.5 -66t42.5 -104q0 -68 -49 -106.5t-133 -38.5z" />
    <glyph glyph-name="t" unicode="t" horiz-adv-x="374" 
d="M221 -12q-108 0 -108 122v325h-83v76h83v169l87 42v-211h126v-76h-126v-296q0 -34 11 -52t42 -18q34 0 76 27l-10 -85q-44 -23 -98 -23z" />
    <glyph glyph-name="u" unicode="u" 
d="M393 0v49q-47 -61 -129 -61q-93 0 -139.5 54t-46.5 174v295h87v-308q0 -69 29.5 -101.5t80.5 -32.5q118 0 118 132v310h87v-511h-87z" />
    <glyph glyph-name="v" unicode="v" horiz-adv-x="512" 
d="M220 0l-187 511h88l121 -341q13 -38 16 -50q3 12 16 50l119 341h87l-187 -511h-73z" />
    <glyph glyph-name="w" unicode="w" horiz-adv-x="715" 
d="M169 0l-131 511h86l78 -343q1 -6 5 -25l6 -29q2 14 13 54l96 343h72l96 -343l14 -56q2 9 5.5 28t5.5 28l77 343h86l-131 -511h-78l-93 303q-14 45 -19 67q-10 -42 -18 -67l-92 -303h-78z" />
    <glyph glyph-name="x" unicode="x" horiz-adv-x="516" 
d="M38 0l171 266l-158 245h97l81 -124q23 -37 29 -49q24 40 30 49l80 124h98l-159 -245l172 -266h-98l-94 145q-11 17 -29 49q-9 -18 -29 -49l-94 -145h-97z" />
    <glyph glyph-name="y" unicode="y" horiz-adv-x="530" 
d="M144 -194l78 207l-189 498h87l127 -348q7 -17 16 -49q9 32 16 49l129 348h89l-265 -705h-88z" />
    <glyph glyph-name="z" unicode="z" horiz-adv-x="505" 
d="M63 0v64l266 370h-246v77h355v-62l-267 -371h266v-78h-374z" />
    <glyph glyph-name="braceleft" unicode="{" horiz-adv-x="372" 
d="M330 -130q-93 2 -146.5 61t-53.5 171v55q0 44 -18 71t-50 27h-9v74h9q32 0 50 26.5t18 70.5v54q0 112 53.5 171t146.5 61v-75q-56 -2 -84 -37.5t-28 -100.5v-61q0 -77 -24.5 -108.5t-77.5 -38.5q53 -6 77.5 -37t24.5 -110v-60q0 -135 112 -139v-75z" />
    <glyph glyph-name="bar" unicode="|" horiz-adv-x="272" 
d="M93 -378v1440h87v-1440h-87z" />
    <glyph glyph-name="braceright" unicode="}" horiz-adv-x="372" 
d="M43 -130v75q111 5 111 139v60q0 79 24.5 110t77.5 37q-53 7 -77.5 38.5t-24.5 108.5v61q0 133 -111 138v75q92 -2 145.5 -61t53.5 -171v-54q0 -44 18.5 -70.5t49.5 -26.5h10v-74h-10q-31 0 -49.5 -27t-18.5 -71v-55q0 -112 -53.5 -171t-145.5 -61z" />
    <glyph glyph-name="asciitilde" unicode="~" horiz-adv-x="645" 
d="M428 271q-45 0 -114.5 30t-98.5 30q-30 0 -48.5 -16.5t-20.5 -43.5h-57q0 62 31.5 103t97.5 41q46 0 115.5 -30.5t96.5 -30.5q30 0 48.5 17t20.5 44h58q0 -62 -31.5 -103t-97.5 -41z" />
    <glyph glyph-name="uni00A0" unicode="&#xa0;" horiz-adv-x="235" 
 />
    <glyph glyph-name="exclamdown" unicode="&#xa1;" horiz-adv-x="271" 
d="M137 387q-29 0 -49 20t-20 48t20 48t49 20t49 -20.5t20 -47.5t-20 -47.5t-49 -20.5zM180 -200h-88v218l30 299h28l30 -299v-218z" />
    <glyph glyph-name="cent" unicode="&#xa2;" horiz-adv-x="515" 
d="M221 -12v100q-77 17 -120 85.5t-43 176.5t43 175.5t120 85.5v101h85v-97q112 -13 149 -118l-84 -30q-25 66 -92 66q-64 0 -98 -48t-34 -135t33 -135t94 -48q37 0 63.5 20t36.5 56l83 -27q-35 -119 -151 -131v-97h-85z" />
    <glyph glyph-name="sterling" unicode="&#xa3;" horiz-adv-x="597" 
d="M88 0v92q44 20 64.5 72t23.5 108v20h-93v74h73l-8 16.5l-8.5 17.5t-7.5 17t-7.5 21t-5.5 21.5t-4 26.5t-1 29q0 82 59 139.5t169 57.5q117 0 206 -67l-34 -82q-23 19 -38.5 30t-52.5 23.5t-81 12.5q-67 0 -101.5 -34t-34.5 -80q0 -37 23.5 -90.5t24.5 -58.5h165v-74h-151
v-18q-5 -111 -90 -191h381v-83h-471z" />
    <glyph glyph-name="currency" unicode="&#xa4;" horiz-adv-x="633" 
d="M316 86q-83 0 -141 41l-66 -67l-65 66l69 70q-33 56 -33 137q0 79 33 139l-69 69l62 64l67 -67q61 43 143 43q83 0 142 -42l66 66l65 -67l-67 -67q32 -61 32 -138q0 -82 -35 -140l70 -70l-62 -63l-68 68q-59 -42 -143 -42zM316 170q67 0 108.5 45.5t41.5 117.5
q0 71 -41.5 118t-108.5 47q-65 0 -106.5 -47t-41.5 -118q0 -72 41 -117.5t107 -45.5z" />
    <glyph glyph-name="yen" unicode="&#xa5;" horiz-adv-x="566" 
d="M327 319h147v-75h-148v-66h148v-75h-148v-103h-87v103h-155v75h155v66h-155v75h153l-214 381h98l161 -299l166 299h95z" />
    <glyph glyph-name="brokenbar" unicode="&#xa6;" horiz-adv-x="272" 
d="M93 366v459h87v-459h-87zM93 -225v459h87v-459h-87z" />
    <glyph glyph-name="section" unicode="&#xa7;" horiz-adv-x="533" 
d="M270 -120q-71 0 -127 25.5t-85 63.5l64 57q57 -62 146 -62q117 0 117 79q0 19 -9.5 35t-31.5 30t-37.5 22t-49 21t-44.5 18q-37 16 -55 25.5t-42.5 27.5t-35 41.5t-10.5 55.5q0 37 19.5 65.5t51.5 42.5q-71 43 -71 134q0 70 55 110.5t138 40.5q127 0 193 -81l-67 -53
q-47 49 -126 49q-102 0 -102 -69q0 -12 5 -23t17.5 -21t23 -17t33.5 -17t35.5 -15l41.5 -16q31 -12 48.5 -19.5t41.5 -22.5t37 -30.5t22.5 -39.5t9.5 -54q0 -77 -61 -107q61 -47 61 -130q0 -79 -54.5 -122.5t-151.5 -43.5zM340 215q45 19 45 62q0 16 -9 30t-20 23t-36 20.5
t-40 17l-49 17.5q-33 -5 -51.5 -21.5t-18.5 -41.5q0 -11 5 -21t15.5 -18.5t21.5 -15t29.5 -14t32.5 -12.5l37.5 -13z" />
    <glyph glyph-name="dieresis" unicode="&#xa8;" horiz-adv-x="368" 
d="M98 599q-23 0 -39 16t-16 39t16 39t39 16t39 -16t16 -39t-16 -39t-39 -16zM271 599q-23 0 -39 16t-16 39t16 39t39 16t39 -16t16 -39t-16 -39t-39 -16z" />
    <glyph glyph-name="copyright" unicode="&#xa9;" horiz-adv-x="859" 
d="M430 -12q-154 0 -258 104t-104 258t104 258t258 104t258 -104t104 -258t-104 -258t-258 -104zM430 51q127 0 210.5 85.5t83.5 213.5t-83.5 213.5t-210.5 85.5t-211 -85.5t-84 -213.5t84 -213.5t211 -85.5zM435 135q-88 0 -133.5 60.5t-45.5 157.5q0 93 47 155.5t136 62.5
q54 0 92 -27.5t55 -72.5l-64 -29q-28 60 -88 60q-106 0 -106 -149q0 -150 108 -150q67 0 90 66l62 -23q-17 -52 -57 -81.5t-96 -29.5z" />
    <glyph glyph-name="ordfeminine" unicode="&#xaa;" horiz-adv-x="450" 
d="M309 283v30q-48 -40 -115 -40q-68 0 -109.5 37t-41.5 105q0 67 49 103.5t114 36.5q56 0 103 -22v16q0 51 -21.5 72t-70.5 21q-69 0 -117 -38l-22 67q55 41 149 41q32 0 56 -5t50 -20t40 -48t14 -83v-273h-78zM206 342q27 0 56 13t47 30v79q-42 22 -92 22q-39 0 -66 -17.5
t-27 -53.5q0 -34 22 -53.5t60 -19.5z" />
    <glyph glyph-name="guillemotleft" unicode="&#xab;" horiz-adv-x="515" 
d="M190 0l-152 256l152 255h95l-152 -255l152 -256h-95zM396 0l-152 256l152 255h97l-152 -255l152 -256h-97z" />
    <glyph glyph-name="logicalnot" unicode="&#xac;" horiz-adv-x="645" 
d="M470 172v213h-382v83h470v-296h-88z" />
    <glyph glyph-name="uni00AD" unicode="&#xad;" horiz-adv-x="399" 
d="M83 256v84h234v-84h-234z" />
    <glyph glyph-name="registered" unicode="&#xae;" horiz-adv-x="859" 
d="M430 -12q-154 0 -258 104t-104 258t104 258t258 104t258 -104t104 -258t-104 -258t-258 -104zM430 51q127 0 210.5 85.5t83.5 213.5t-83.5 213.5t-210.5 85.5t-211 -85.5t-84 -213.5t84 -213.5t211 -85.5zM282 138v423h187q65 0 96 -37t31 -87q0 -43 -25.5 -78.5
t-70.5 -45.5l99 -175h-80l-90 171h-77v-171h-70zM352 372h118q28 0 42 18t14 46q0 24 -13.5 41.5t-42.5 17.5h-118v-123z" />
    <glyph glyph-name="macron" unicode="&#xaf;" horiz-adv-x="368" 
d="M19 603v74h330v-74h-330z" />
    <glyph glyph-name="degree" unicode="&#xb0;" horiz-adv-x="409" 
d="M205 452q-72 0 -122.5 49t-50.5 121q0 73 50 121.5t123 48.5t122.5 -48.5t49.5 -121.5q0 -72 -50 -121t-122 -49zM205 534q36 0 59.5 25t23.5 63q0 39 -23.5 63.5t-59.5 24.5t-60.5 -25t-24.5 -63q0 -37 25 -62.5t60 -25.5z" />
    <glyph glyph-name="plusminus" unicode="&#xb1;" horiz-adv-x="645" 
d="M366 363v-161h-88v161h-190v84h190v161h88v-161h192v-84h-192zM88 0v84h470v-84h-470z" />
    <glyph glyph-name="uni00B2" unicode="&#xb2;" horiz-adv-x="364" 
d="M33 444q0 79 37.5 128.5t109.5 92.5q32 19 48 37.5t16 47.5q0 23 -17.5 41t-50.5 18q-63 0 -77 -68l-66 20q11 50 50 81t97 31q62 0 100 -34.5t38 -91.5q0 -51 -27.5 -82t-87.5 -65q-68 -39 -89 -90h203v-66h-284z" />
    <glyph glyph-name="uni00B3" unicode="&#xb3;" horiz-adv-x="357" 
d="M176 435q-56 0 -95.5 30t-57.5 83l69 23q23 -72 85 -72q32 0 51 17.5t19 46.5q0 27 -18 46t-49 19h-33v64h26q29 0 43.5 17t14.5 42t-15.5 41.5t-42.5 16.5q-49 0 -72 -56l-66 23q18 44 55 70.5t86 26.5q58 0 94 -33t36 -84q0 -26 -14.5 -51.5t-38.5 -38.5
q31 -12 50 -38.5t19 -61.5q0 -60 -40.5 -95.5t-105.5 -35.5z" />
    <glyph glyph-name="acute" unicode="&#xb4;" horiz-adv-x="368" 
d="M72 576l142 156h124l-178 -156h-88z" />
    <glyph glyph-name="uni00B5" unicode="&#xb5;" horiz-adv-x="565" 
d="M396 0v50q-55 -62 -131 -62q-64 0 -98 51v-198l-87 -41v711h87v-308q0 -77 27.5 -105.5t83.5 -28.5q118 0 118 132v310h87v-511h-87z" />
    <glyph glyph-name="paragraph" unicode="&#xb6;" horiz-adv-x="631" 
d="M274 -200v477q-125 0 -185.5 64t-60.5 149q0 41 12 77t38 66.5t71.5 48.5t107.5 18h286v-787l-87 -40v742h-94v-776z" />
    <glyph glyph-name="periodcentered" unicode="&#xb7;" horiz-adv-x="225" 
d="M112 281q-29 0 -49 20.5t-20 47.5q0 28 20 48.5t49 20.5t49.5 -21t20.5 -48t-20.5 -47.5t-49.5 -20.5z" />
    <glyph glyph-name="cedilla" unicode="&#xb8;" horiz-adv-x="368" 
d="M184 -237q-59 0 -94 33l49 34q10 -13 37 -13q22 0 37 13.5t15 34.5q0 19 -17.5 32t-40.5 13q-24 0 -38 -7l-16 20l69 87h49l-38 -63q55 0 81.5 -24t26.5 -59q0 -44 -33.5 -72.5t-86.5 -28.5z" />
    <glyph glyph-name="uni00B9" unicode="&#xb9;" horiz-adv-x="200" 
d="M69 444v329h-51v52q51 0 68 41h54v-422h-71z" />
    <glyph glyph-name="ordmasculine" unicode="&#xba;" horiz-adv-x="467" 
d="M233 273q-88 0 -139 58t-51 161t51 161.5t139 58.5t139.5 -58.5t51.5 -161.5t-51 -161t-140 -58zM233 348q54 0 82.5 37.5t28.5 106.5q0 70 -28.5 107.5t-82.5 37.5q-51 0 -80.5 -38t-29.5 -107q0 -68 29.5 -106t80.5 -38z" />
    <glyph glyph-name="guillemotright" unicode="&#xbb;" horiz-adv-x="515" 
d="M23 0l152 256l-152 255h95l152 -255l-152 -256h-95zM229 0l152 256l-152 255h97l152 -255l-152 -256h-97z" />
    <glyph glyph-name="onequarter" unicode="&#xbc;" horiz-adv-x="680" 
d="M12 -12l478 724h82l-478 -724h-82zM76 283v329h-51v52q52 0 69 41h54v-422h-72zM526 0v97h-211v42l219 284h62v-260h53v-66h-53v-97h-70zM526 163v157l-119 -157h119z" />
    <glyph glyph-name="onehalf" unicode="&#xbd;" horiz-adv-x="727" 
d="M12 -12l478 724h82l-478 -724h-82zM76 283v329h-51v52q52 0 69 41h54v-422h-72zM396 0q0 79 37.5 128.5t109.5 92.5q32 19 48 37.5t16 47.5q0 23 -17.5 41t-50.5 18q-63 0 -77 -68l-66 20q11 50 50 81t97 31q62 0 100 -34.5t38 -91.5q0 -51 -27.5 -82t-87.5 -65
q-68 -39 -89 -89h203v-67h-284z" />
    <glyph glyph-name="threequarters" unicode="&#xbe;" horiz-adv-x="812" 
d="M176 273q-56 0 -95.5 30t-57.5 83l69 23q23 -72 85 -72q32 0 51 17.5t19 46.5q0 27 -18 46.5t-49 19.5h-33v64h26q29 0 43.5 17t14.5 42t-15.5 41.5t-42.5 16.5q-49 0 -72 -56l-66 23q18 44 55 70.5t86 26.5q58 0 94 -33t36 -84q0 -26 -14.5 -51.5t-38.5 -38.5
q31 -12 50 -38.5t19 -61.5q0 -61 -40.5 -96.5t-105.5 -35.5zM144 -12l478 724h82l-478 -724h-82zM657 0v97h-211v42l220 284h62v-260h53v-66h-53v-97h-71zM657 163v157l-119 -157h119z" />
    <glyph glyph-name="questiondown" unicode="&#xbf;" horiz-adv-x="514" 
d="M269 387q-29 0 -49 19.5t-20 47.5t20 48.5t49 20.5q28 0 49.5 -21t21.5 -48t-21 -47t-50 -20zM254 -200q-100 0 -155.5 54t-55.5 140q0 45 18.5 80t45 58.5l53 46.5t45 56.5t18.5 76.5v20h88v-21q0 -45 -13.5 -81t-33.5 -56.5t-43.5 -41.5l-43.5 -37.5t-33.5 -42.5
t-13.5 -58q0 -51 32.5 -82.5t91.5 -31.5q68 0 106 39t38 109h88q0 -104 -64.5 -166t-167.5 -62z" />
    <glyph glyph-name="Agrave" unicode="&#xc0;" horiz-adv-x="679" 
d="M365 765l-178 156h124l142 -156h-88zM539 0l-60 171h-278l-59 -171h-91l248 700h81l248 -700h-89zM452 248l-90 259q-17 49 -22 71q-11 -39 -22 -71l-91 -259h225z" />
    <glyph glyph-name="Aacute" unicode="&#xc1;" horiz-adv-x="679" 
d="M237 765l142 156h124l-178 -156h-88zM539 0l-60 171h-278l-59 -171h-91l248 700h81l248 -700h-89zM452 248l-90 259q-17 49 -22 71q-11 -39 -22 -71l-91 -259h225z" />
    <glyph glyph-name="Acircumflex" unicode="&#xc2;" horiz-adv-x="679" 
d="M445 765l-105 90l-105 -90h-83l147 156h82l146 -156h-82zM539 0l-60 171h-278l-59 -171h-91l248 700h81l248 -700h-89zM452 248l-90 259q-17 49 -22 71q-11 -39 -22 -71l-91 -259h225z" />
    <glyph glyph-name="Atilde" unicode="&#xc3;" horiz-adv-x="679" 
d="M418 784q-38 0 -90.5 24.5t-74.5 24.5q-20 0 -33 -11.5t-14 -33.5h-45q0 120 99 120q38 0 90.5 -25t74.5 -25q19 0 32.5 12t14.5 34h45q0 -120 -99 -120zM539 0l-60 171h-278l-59 -171h-91l248 700h81l248 -700h-89zM452 248l-90 259q-17 49 -22 71q-11 -39 -22 -71
l-91 -259h225z" />
    <glyph glyph-name="Adieresis" unicode="&#xc4;" horiz-adv-x="679" 
d="M253 788q-23 0 -39 16t-16 39t16 39t39 16t39 -16t16 -39t-16 -39t-39 -16zM426 788q-23 0 -39 16t-16 39t16 39t39 16t39 -16t16 -39t-16 -39t-39 -16zM539 0l-60 171h-278l-59 -171h-91l248 700h81l248 -700h-89zM452 248l-90 259q-17 49 -22 71q-11 -39 -22 -71
l-91 -259h225z" />
    <glyph glyph-name="Aring" unicode="&#xc5;" horiz-adv-x="679" 
d="M51 0l228 644q-57 36 -57 101q0 48 35 82t84 34q48 0 83.5 -34t35.5 -82q0 -32 -16.5 -59t-43.5 -42l228 -644h-89l-60 171h-278l-59 -171h-91zM341 691q21 0 35.5 15.5t14.5 38.5q0 22 -14.5 37.5t-35.5 15.5t-35.5 -15.5t-14.5 -37.5q0 -23 14.5 -38.5t35.5 -15.5z
M227 248h225l-90 259q-17 49 -22 71q-11 -39 -22 -71z" />
    <glyph glyph-name="AE" unicode="&#xc6;" horiz-adv-x="854" 
d="M-14 0l407 700h383v-82h-273v-215h171v-82h-171v-238h295v-83h-382v171h-237l-97 -171h-96zM223 249h193v345q-11 -24 -36 -68z" />
    <glyph glyph-name="Ccedilla" unicode="&#xc7;" horiz-adv-x="647" 
d="M345 -237q-59 0 -94 33l49 34q10 -13 37 -13q22 0 37 13.5t15 34.5q0 19 -17.5 32t-40.5 13q-24 0 -38 -7l-16 20l53 66q-91 8 -152 63.5t-85.5 131t-24.5 166.5q0 69 16.5 131.5t50 115t91 84t132.5 31.5q164 0 226 -126l-78 -40q-28 42 -61.5 63.5t-86.5 21.5
q-71 0 -118 -45t-64.5 -105.5t-17.5 -130.5q0 -115 51 -197.5t149 -82.5t152 89l80 -30q-60 -129 -208 -140l-25 -42q55 0 81.5 -24t26.5 -59q0 -44 -33.5 -72.5t-86.5 -28.5z" />
    <glyph glyph-name="Egrave" unicode="&#xc8;" horiz-adv-x="599" 
d="M302 765l-178 156h124l142 -156h-88zM98 0v700h416v-82h-329v-215h217v-82h-217v-238h351v-83h-438z" />
    <glyph glyph-name="Eacute" unicode="&#xc9;" horiz-adv-x="599" 
d="M197 765l142 156h124l-178 -156h-88zM98 0v700h416v-82h-329v-215h217v-82h-217v-238h351v-83h-438z" />
    <glyph glyph-name="Ecircumflex" unicode="&#xca;" horiz-adv-x="599" 
d="M413 765l-105 90l-105 -90h-83l147 156h82l146 -156h-82zM98 0v700h416v-82h-329v-215h217v-82h-217v-238h351v-83h-438z" />
    <glyph glyph-name="Edieresis" unicode="&#xcb;" horiz-adv-x="599" 
d="M223 788q-23 0 -39 16t-16 39t16 39t39 16t39 -16t16 -39t-16 -39t-39 -16zM396 788q-23 0 -39 16t-16 39t16 39t39 16t39 -16t16 -39t-16 -39t-39 -16zM98 0v700h416v-82h-329v-215h217v-82h-217v-238h351v-83h-438z" />
    <glyph glyph-name="Igrave" unicode="&#xcc;" horiz-adv-x="287" 
d="M161 765l-178 156h124l142 -156h-88zM100 0v700h87v-700h-87z" />
    <glyph glyph-name="Iacute" unicode="&#xcd;" horiz-adv-x="287" 
d="M31 765l142 156h124l-178 -156h-88zM100 0v700h87v-700h-87z" />
    <glyph glyph-name="Icircumflex" unicode="&#xce;" horiz-adv-x="287" 
d="M249 765l-105 90l-105 -90h-83l147 156h82l146 -156h-82zM100 0v700h87v-700h-87z" />
    <glyph glyph-name="Idieresis" unicode="&#xcf;" horiz-adv-x="287" 
d="M57 788q-23 0 -39 16t-16 39t16 39t39 16t39 -16t16 -39t-16 -39t-39 -16zM230 788q-23 0 -39 16t-16 39t16 39t39 16t39 -16t16 -39t-16 -39t-39 -16zM100 0v700h87v-700h-87z" />
    <glyph glyph-name="Eth" unicode="&#xd0;" horiz-adv-x="682" 
d="M98 310h-68v79h68v311h191q86 0 151 -30t102 -81t54.5 -111t17.5 -128q0 -65 -16.5 -123.5t-52 -111t-102.5 -84t-158 -31.5h-187v310zM296 81q62 0 108.5 23.5t71.5 64t36.5 85.5t11.5 96q0 72 -21 131t-72 99t-124 40h-122v-231h153v-79h-153v-229h111z" />
    <glyph glyph-name="Ntilde" unicode="&#xd1;" horiz-adv-x="708" 
d="M437 784q-38 0 -90.5 24.5t-74.5 24.5q-20 0 -33 -11.5t-14 -33.5h-45q0 120 99 120q38 0 90.5 -25t74.5 -25q19 0 32.5 12t14.5 34h45q0 -120 -99 -120zM610 0h-84l-315 500q-18 29 -28 49q2 -30 2 -49v-500h-87v700h88l310 -498q16 -26 29 -52q-2 36 -2 51v499h87v-700
z" />
    <glyph glyph-name="Ograve" unicode="&#xd2;" horiz-adv-x="730" 
d="M380 766l-178 156h124l142 -156h-88zM365 -12q-79 0 -138.5 31.5t-93 85t-49.5 115t-16 130.5t16 130.5t49.5 115t93 85t138.5 31.5q64 0 115.5 -21t85 -56t56 -83t32 -98t9.5 -104t-9.5 -104t-32 -98t-56 -83t-85 -56t-115.5 -21zM365 70q55 0 97 25.5t65 67.5t34 89.5
t11 97.5q0 74 -18.5 134.5t-67 103.5t-121.5 43q-55 0 -96.5 -25.5t-64.5 -68t-34.5 -89.5t-11.5 -98q0 -54 11 -102t34.5 -89t65 -65t96.5 -24z" />
    <glyph glyph-name="Oacute" unicode="&#xd3;" horiz-adv-x="730" 
d="M252 765l142 156h124l-178 -156h-88zM365 -12q-79 0 -138.5 31.5t-93 85t-49.5 115t-16 130.5t16 130.5t49.5 115t93 85t138.5 31.5q64 0 115.5 -21t85 -56t56 -83t32 -98t9.5 -104t-9.5 -104t-32 -98t-56 -83t-85 -56t-115.5 -21zM365 70q55 0 97 25.5t65 67.5t34 89.5
t11 97.5q0 74 -18.5 134.5t-67 103.5t-121.5 43q-55 0 -96.5 -25.5t-64.5 -68t-34.5 -89.5t-11.5 -98q0 -54 11 -102t34.5 -89t65 -65t96.5 -24z" />
    <glyph glyph-name="Ocircumflex" unicode="&#xd4;" horiz-adv-x="730" 
d="M470 765l-105 90l-105 -90h-83l147 156h82l146 -156h-82zM365 -12q-79 0 -138.5 31.5t-93 85t-49.5 115t-16 130.5t16 130.5t49.5 115t93 85t138.5 31.5q64 0 115.5 -21t85 -56t56 -83t32 -98t9.5 -104t-9.5 -104t-32 -98t-56 -83t-85 -56t-115.5 -21zM365 70
q55 0 97 25.5t65 67.5t34 89.5t11 97.5q0 74 -18.5 134.5t-67 103.5t-121.5 43q-55 0 -96.5 -25.5t-64.5 -68t-34.5 -89.5t-11.5 -98q0 -54 11 -102t34.5 -89t65 -65t96.5 -24z" />
    <glyph glyph-name="Otilde" unicode="&#xd5;" horiz-adv-x="730" 
d="M443 784q-38 0 -90.5 24.5t-74.5 24.5q-20 0 -33 -11.5t-14 -33.5h-45q0 120 99 120q38 0 90.5 -25t74.5 -25q19 0 32.5 12t14.5 34h45q0 -120 -99 -120zM365 -12q-79 0 -138.5 31.5t-93 85t-49.5 115t-16 130.5t16 130.5t49.5 115t93 85t138.5 31.5q64 0 115.5 -21
t85 -56t56 -83t32 -98t9.5 -104t-9.5 -104t-32 -98t-56 -83t-85 -56t-115.5 -21zM365 70q55 0 97 25.5t65 67.5t34 89.5t11 97.5q0 74 -18.5 134.5t-67 103.5t-121.5 43q-55 0 -96.5 -25.5t-64.5 -68t-34.5 -89.5t-11.5 -98q0 -54 11 -102t34.5 -89t65 -65t96.5 -24z" />
    <glyph glyph-name="Odieresis" unicode="&#xd6;" horiz-adv-x="730" 
d="M278 788q-23 0 -39 16t-16 39t16 39t39 16t39 -16t16 -39t-16 -39t-39 -16zM451 788q-23 0 -39 16t-16 39t16 39t39 16t39 -16t16 -39t-16 -39t-39 -16zM365 -12q-79 0 -138.5 31.5t-93 85t-49.5 115t-16 130.5t16 130.5t49.5 115t93 85t138.5 31.5q64 0 115.5 -21
t85 -56t56 -83t32 -98t9.5 -104t-9.5 -104t-32 -98t-56 -83t-85 -56t-115.5 -21zM365 70q55 0 97 25.5t65 67.5t34 89.5t11 97.5q0 74 -18.5 134.5t-67 103.5t-121.5 43q-55 0 -96.5 -25.5t-64.5 -68t-34.5 -89.5t-11.5 -98q0 -54 11 -102t34.5 -89t65 -65t96.5 -24z" />
    <glyph glyph-name="multiply" unicode="&#xd7;" horiz-adv-x="645" 
d="M324 282l-165 -166l-63 63l166 165l-165 164l60 60l165 -164l164 165l63 -63l-166 -164l165 -165l-60 -60z" />
    <glyph glyph-name="Oslash" unicode="&#xd8;" horiz-adv-x="725" 
d="M74 -12l68 101q-77 98 -77 261q0 54 9.5 104t32 98t56 83t85 56t115.5 21q96 0 166 -49l33 49h90l-69 -101q77 -98 77 -261q0 -69 -16 -130.5t-49.5 -115t-93 -85t-138.5 -31.5q-98 0 -167 50l-34 -50h-88zM196 169l285 422q-50 40 -118 40q-55 0 -97 -25.5t-65 -68
t-34 -89.5t-11 -98q0 -111 40 -181zM363 70q55 0 96.5 25.5t64.5 67.5t34.5 89.5t11.5 97.5q0 109 -41 181l-285 -422q49 -39 119 -39z" />
    <glyph glyph-name="Ugrave" unicode="&#xd9;" horiz-adv-x="689" 
d="M363 765l-178 156h124l142 -156h-88zM344 -12q-251 0 -251 275v437h87v-437q0 -107 44 -150t120 -43t120.5 43t44.5 150v437h87v-437q0 -275 -252 -275z" />
    <glyph glyph-name="Uacute" unicode="&#xda;" horiz-adv-x="689" 
d="M246 765l142 156h124l-178 -156h-88zM344 -12q-251 0 -251 275v437h87v-437q0 -107 44 -150t120 -43t120.5 43t44.5 150v437h87v-437q0 -275 -252 -275z" />
    <glyph glyph-name="Ucircumflex" unicode="&#xdb;" horiz-adv-x="689" 
d="M450 765l-105 90l-105 -90h-83l147 156h82l146 -156h-82zM344 -12q-251 0 -251 275v437h87v-437q0 -107 44 -150t120 -43t120.5 43t44.5 150v437h87v-437q0 -275 -252 -275z" />
    <glyph glyph-name="Udieresis" unicode="&#xdc;" horiz-adv-x="689" 
d="M258 788q-23 0 -39 16t-16 39t16 39t39 16t39 -16t16 -39t-16 -39t-39 -16zM431 788q-23 0 -39 16t-16 39t16 39t39 16t39 -16t16 -39t-16 -39t-39 -16zM344 -12q-251 0 -251 275v437h87v-437q0 -107 44 -150t120 -43t120.5 43t44.5 150v437h87v-437q0 -275 -252 -275z
" />
    <glyph glyph-name="Yacute" unicode="&#xdd;" horiz-adv-x="641" 
d="M222 765l142 156h124l-178 -156h-88zM278 0v275l-238 425h98l183 -340l185 340h95l-236 -423v-277h-87z" />
    <glyph glyph-name="Thorn" unicode="&#xde;" horiz-adv-x="632" 
d="M98 0v700h87v-134h181q61 0 106.5 -18t70.5 -48.5t37 -66.5t12 -77q0 -83 -56.5 -146.5t-169.5 -63.5h-181v-146h-87zM372 228q68 0 100.5 37.5t32.5 90.5q0 50 -31 89t-102 39h-187v-256h187z" />
    <glyph glyph-name="germandbls" unicode="&#xdf;" horiz-adv-x="562" 
d="M73 -202v678q0 82 31 137t75 77t98 22q90 0 146 -50.5t56 -132.5q0 -50 -24 -88.5t-71 -55.5q63 -20 97 -66.5t34 -108.5q0 -101 -59.5 -161.5t-151.5 -60.5q-52 0 -87 16l43 70q18 -6 45 -6q47 0 84 36t37 103q0 56 -36.5 94.5t-113.5 38.5h-13v80h13q53 0 83.5 26
t30.5 79q0 50 -29 79t-83 29q-53 0 -85.5 -38t-32.5 -116v-639z" />
    <glyph glyph-name="agrave" unicode="&#xe0;" horiz-adv-x="526" 
d="M276 576l-178 156h124l142 -156h-88zM376 0v47q-63 -59 -145 -59q-81 0 -129.5 44.5t-48.5 127.5t55 126t136 43q74 0 132 -33v36q0 64 -28.5 89.5t-82.5 25.5q-77 0 -149 -51l-25 73q82 54 185 54q182 0 182 -184v-339h-82zM244 65q75 0 132 67v88q-55 34 -120 34
q-53 0 -87 -24t-34 -70q0 -43 28.5 -69t80.5 -26z" />
    <glyph glyph-name="aacute" unicode="&#xe1;" horiz-adv-x="526" 
d="M163 576l142 156h124l-178 -156h-88zM376 0v47q-63 -59 -145 -59q-81 0 -129.5 44.5t-48.5 127.5t55 126t136 43q74 0 132 -33v36q0 64 -28.5 89.5t-82.5 25.5q-77 0 -149 -51l-25 73q82 54 185 54q182 0 182 -184v-339h-82zM244 65q75 0 132 67v88q-55 34 -120 34
q-53 0 -87 -24t-34 -70q0 -43 28.5 -69t80.5 -26z" />
    <glyph glyph-name="acircumflex" unicode="&#xe2;" horiz-adv-x="526" 
d="M381 576l-105 90l-105 -90h-83l147 156h82l146 -156h-82zM376 0v47q-63 -59 -145 -59q-81 0 -129.5 44.5t-48.5 127.5t55 126t136 43q74 0 132 -33v36q0 64 -28.5 89.5t-82.5 25.5q-77 0 -149 -51l-25 73q82 54 185 54q182 0 182 -184v-339h-82zM244 65q75 0 132 67v88
q-55 34 -120 34q-53 0 -87 -24t-34 -70q0 -43 28.5 -69t80.5 -26z" />
    <glyph glyph-name="atilde" unicode="&#xe3;" horiz-adv-x="526" 
d="M354 595q-38 0 -90.5 24.5t-74.5 24.5q-20 0 -33 -11.5t-14 -33.5h-45q0 120 99 120q38 0 90.5 -25t74.5 -25q19 0 32.5 12t14.5 34h45q0 -120 -99 -120zM376 0v47q-63 -59 -145 -59q-81 0 -129.5 44.5t-48.5 127.5t55 126t136 43q74 0 132 -33v36q0 64 -28.5 89.5
t-82.5 25.5q-77 0 -149 -51l-25 73q82 54 185 54q182 0 182 -184v-339h-82zM244 65q75 0 132 67v88q-55 34 -120 34q-53 0 -87 -24t-34 -70q0 -43 28.5 -69t80.5 -26z" />
    <glyph glyph-name="adieresis" unicode="&#xe4;" horiz-adv-x="526" 
d="M189 599q-23 0 -39 16t-16 39t16 39t39 16t39 -16t16 -39t-16 -39t-39 -16zM362 599q-23 0 -39 16t-16 39t16 39t39 16t39 -16t16 -39t-16 -39t-39 -16zM376 0v47q-63 -59 -145 -59q-81 0 -129.5 44.5t-48.5 127.5t55 126t136 43q74 0 132 -33v36q0 64 -28.5 89.5
t-82.5 25.5q-77 0 -149 -51l-25 73q82 54 185 54q182 0 182 -184v-339h-82zM244 65q75 0 132 67v88q-55 34 -120 34q-53 0 -87 -24t-34 -70q0 -43 28.5 -69t80.5 -26z" />
    <glyph glyph-name="aring" unicode="&#xe5;" horiz-adv-x="526" 
d="M277 571q-49 0 -84 35t-35 83t35 82t84 34q48 0 83.5 -34t35.5 -82t-35.5 -83t-83.5 -35zM277 635q21 0 35.5 15.5t14.5 38.5q0 24 -14.5 38.5t-35.5 14.5t-36 -15t-15 -38t15 -38.5t36 -15.5zM376 0v47q-63 -59 -145 -59q-81 0 -129.5 44.5t-48.5 127.5t55 126t136 43
q74 0 132 -33v36q0 64 -28.5 89.5t-82.5 25.5q-77 0 -149 -51l-25 73q82 54 185 54q182 0 182 -184v-339h-82zM244 65q75 0 132 67v88q-55 34 -120 34q-53 0 -87 -24t-34 -70q0 -43 28.5 -69t80.5 -26z" />
    <glyph glyph-name="ae" unicode="&#xe6;" horiz-adv-x="857" 
d="M231 -12q-81 0 -129.5 44.5t-48.5 127.5t55 126t136 43q74 0 132 -33v36q0 61 -27.5 88t-83.5 27q-77 0 -149 -51l-25 73q82 54 185 54q112 0 154 -76q61 76 168 76q95 0 153.5 -63t58.5 -180q0 -28 -3 -58h-346q6 -72 44.5 -113.5t94.5 -41.5q65 0 111 46l53 -59
q-66 -66 -166 -66q-116 0 -180 95q-38 -49 -89 -72t-98 -23zM460 298h262q-1 78 -38 113t-85 35q-59 0 -97 -37t-42 -111zM244 65q42 0 78.5 22.5t60.5 55.5q-5 34 -7 77q-58 34 -120 34q-53 0 -87 -24t-34 -70q0 -43 28.5 -69t80.5 -26z" />
    <glyph glyph-name="ccedilla" unicode="&#xe7;" horiz-adv-x="500" 
d="M256 -237q-59 0 -94 33l49 34q10 -13 37 -13q22 0 37 13.5t15 34.5q0 19 -17.5 32t-40.5 13q-24 0 -38 -7l-16 20l53 67q-88 8 -138 77.5t-50 187.5q0 126 57.5 197t158.5 71q136 0 179 -119l-82 -30q-26 68 -96 68q-64 0 -96 -49t-32 -138q0 -88 32 -136.5t93 -48.5
q80 0 104 76l81 -27q-36 -116 -158 -130l-26 -42q55 0 81 -24t26 -59q0 -44 -33 -72.5t-86 -28.5z" />
    <glyph glyph-name="egrave" unicode="&#xe8;" horiz-adv-x="538" 
d="M305 576l-178 156h124l142 -156h-88zM280 -12q-104 0 -165.5 74.5t-61.5 193.5q0 125 62 196t165 71q92 0 151.5 -61.5t59.5 -181.5q0 -28 -3 -58h-346q5 -70 43.5 -112.5t96.5 -42.5q64 0 110 46l53 -59q-66 -66 -165 -66zM141 296h262q-1 79 -37.5 114.5t-85.5 35.5
q-59 0 -97 -37.5t-42 -112.5z" />
    <glyph glyph-name="eacute" unicode="&#xe9;" horiz-adv-x="538" 
d="M167 576l142 156h124l-178 -156h-88zM280 -12q-104 0 -165.5 74.5t-61.5 193.5q0 125 62 196t165 71q92 0 151.5 -61.5t59.5 -181.5q0 -28 -3 -58h-346q5 -70 43.5 -112.5t96.5 -42.5q64 0 110 46l53 -59q-66 -66 -165 -66zM141 296h262q-1 79 -37.5 114.5t-85.5 35.5
q-59 0 -97 -37.5t-42 -112.5z" />
    <glyph glyph-name="ecircumflex" unicode="&#xea;" horiz-adv-x="538" 
d="M385 576l-105 90l-105 -90h-83l147 156h82l146 -156h-82zM280 -12q-104 0 -165.5 74.5t-61.5 193.5q0 125 62 196t165 71q92 0 151.5 -61.5t59.5 -181.5q0 -28 -3 -58h-346q5 -70 43.5 -112.5t96.5 -42.5q64 0 110 46l53 -59q-66 -66 -165 -66zM141 296h262
q-1 79 -37.5 114.5t-85.5 35.5q-59 0 -97 -37.5t-42 -112.5z" />
    <glyph glyph-name="edieresis" unicode="&#xeb;" horiz-adv-x="538" 
d="M193 599q-23 0 -39 16t-16 39t16 39t39 16t39 -16t16 -39t-16 -39t-39 -16zM366 599q-23 0 -39 16t-16 39t16 39t39 16t39 -16t16 -39t-16 -39t-39 -16zM280 -12q-104 0 -165.5 74.5t-61.5 193.5q0 125 62 196t165 71q92 0 151.5 -61.5t59.5 -181.5q0 -28 -3 -58h-346
q5 -70 43.5 -112.5t96.5 -42.5q64 0 110 46l53 -59q-66 -66 -165 -66zM141 296h262q-1 79 -37.5 114.5t-85.5 35.5q-59 0 -97 -37.5t-42 -112.5z" />
    <glyph glyph-name="igrave" unicode="&#xec;" horiz-adv-x="254" 
d="M138 576l-178 156h124l142 -156h-88zM84 0v511h87v-511h-87z" />
    <glyph glyph-name="iacute" unicode="&#xed;" horiz-adv-x="254" 
d="M28 576l142 156h124l-178 -156h-88zM84 0v511h87v-511h-87z" />
    <glyph glyph-name="icircumflex" unicode="&#xee;" horiz-adv-x="254" 
d="M232 576l-105 90l-105 -90h-83l147 156h82l146 -156h-82zM84 0v511h87v-511h-87z" />
    <glyph glyph-name="idieresis" unicode="&#xef;" horiz-adv-x="254" 
d="M40 599q-23 0 -39 16t-16 39t16 39t39 16t39 -16t16 -39t-16 -39t-39 -16zM213 599q-23 0 -39 16t-16 39t16 39t39 16t39 -16t16 -39t-16 -39t-39 -16zM84 0v511h87v-511h-87z" />
    <glyph glyph-name="eth" unicode="&#xf0;" horiz-adv-x="558" 
d="M279 -12q-100 0 -163 66t-63 167q0 103 63.5 169t157.5 66q51 0 87.5 -22t54.5 -56q-21 131 -111 202l-64 -68l-44 43l54 58q-52 25 -117 29v70q95 -5 169 -43l58 61l45 -44l-49 -52q148 -118 148 -365q0 -128 -58 -204.5t-168 -76.5zM279 69q58 0 98 43.5t40 107.5
q0 67 -39.5 111.5t-99.5 44.5q-58 0 -97.5 -43.5t-39.5 -111.5q0 -65 40 -108.5t98 -43.5z" />
    <glyph glyph-name="ntilde" unicode="&#xf1;" 
d="M366 595q-38 0 -90.5 24.5t-74.5 24.5q-20 0 -33 -11.5t-14 -33.5h-45q0 120 99 120q38 0 90.5 -25t74.5 -25q19 0 32.5 12t14.5 34h45q0 -120 -99 -120zM398 0v309q0 69 -29.5 101.5t-80.5 32.5q-118 0 -118 -132v-311h-87v511h87v-52q47 64 132 64q90 0 136.5 -54.5
t46.5 -174.5v-294h-87z" />
    <glyph glyph-name="ograve" unicode="&#xf2;" horiz-adv-x="558" 
d="M304 576l-178 156h124l142 -156h-88zM279 -12q-104 0 -165 71t-61 196t61 196.5t165 71.5t165 -71t61 -196t-61 -196.5t-165 -71.5zM279 69q65 0 101.5 49.5t36.5 137.5q0 87 -36.5 137t-101.5 50t-101.5 -49.5t-36.5 -138.5q0 -87 36.5 -136.5t101.5 -49.5z" />
    <glyph glyph-name="oacute" unicode="&#xf3;" horiz-adv-x="558" 
d="M166 576l142 156h124l-178 -156h-88zM279 -12q-104 0 -165 71t-61 196t61 196.5t165 71.5t165 -71t61 -196t-61 -196.5t-165 -71.5zM279 69q65 0 101.5 49.5t36.5 137.5q0 87 -36.5 137t-101.5 50t-101.5 -49.5t-36.5 -138.5q0 -87 36.5 -136.5t101.5 -49.5z" />
    <glyph glyph-name="ocircumflex" unicode="&#xf4;" horiz-adv-x="558" 
d="M384 576l-105 90l-105 -90h-83l147 156h82l146 -156h-82zM279 -12q-104 0 -165 71t-61 196t61 196.5t165 71.5t165 -71t61 -196t-61 -196.5t-165 -71.5zM279 69q65 0 101.5 49.5t36.5 137.5q0 87 -36.5 137t-101.5 50t-101.5 -49.5t-36.5 -138.5q0 -87 36.5 -136.5
t101.5 -49.5z" />
    <glyph glyph-name="otilde" unicode="&#xf5;" horiz-adv-x="558" 
d="M357 595q-38 0 -90.5 24.5t-74.5 24.5q-20 0 -33 -11.5t-14 -33.5h-45q0 120 99 120q38 0 90.5 -25t74.5 -25q19 0 32.5 12t14.5 34h45q0 -120 -99 -120zM279 -12q-104 0 -165 71t-61 196t61 196.5t165 71.5t165 -71t61 -196t-61 -196.5t-165 -71.5zM279 69
q65 0 101.5 49.5t36.5 137.5q0 87 -36.5 137t-101.5 50t-101.5 -49.5t-36.5 -138.5q0 -87 36.5 -136.5t101.5 -49.5z" />
    <glyph glyph-name="odieresis" unicode="&#xf6;" horiz-adv-x="558" 
d="M192 599q-23 0 -39 16t-16 39t16 39t39 16t39 -16t16 -39t-16 -39t-39 -16zM365 599q-23 0 -39 16t-16 39t16 39t39 16t39 -16t16 -39t-16 -39t-39 -16zM279 -12q-104 0 -165 71t-61 196t61 196.5t165 71.5t165 -71t61 -196t-61 -196.5t-165 -71.5zM279 69
q65 0 101.5 49.5t36.5 137.5q0 87 -36.5 137t-101.5 50t-101.5 -49.5t-36.5 -138.5q0 -87 36.5 -136.5t101.5 -49.5z" />
    <glyph glyph-name="divide" unicode="&#xf7;" horiz-adv-x="645" 
d="M321 486q-25 0 -41 16t-16 40q0 23 16.5 39.5t40.5 16.5t41 -16.5t17 -39.5t-16.5 -39.5t-41.5 -16.5zM88 301v84h470v-84h-470zM321 88q-25 0 -41 16t-16 39t16 39.5t41 16.5t41.5 -16.5t16.5 -39.5t-16.5 -39t-41.5 -16z" />
    <glyph glyph-name="oslash" unicode="&#xf8;" horiz-adv-x="558" 
d="M505 523l-55 -79q55 -71 55 -188q0 -125 -61 -196.5t-165 -71.5q-70 0 -123 34l-24 -34h-79l55 79q-55 71 -55 188q0 125 61 196.5t165 71.5q71 0 122 -33l23 33h81zM141 255q0 -67 21 -110l191 276q-31 22 -74 22q-65 0 -101.5 -49.5t-36.5 -138.5zM417 256
q0 66 -21 111l-192 -275q32 -23 75 -23q65 0 101.5 49.5t36.5 137.5z" />
    <glyph glyph-name="ugrave" unicode="&#xf9;" 
d="M301 576l-178 156h124l142 -156h-88zM393 0v49q-47 -61 -129 -61q-93 0 -139.5 54t-46.5 174v295h87v-308q0 -69 29.5 -101.5t80.5 -32.5q118 0 118 132v310h87v-511h-87z" />
    <glyph glyph-name="uacute" unicode="&#xfa;" 
d="M163 576l142 156h124l-178 -156h-88zM393 0v49q-47 -61 -129 -61q-93 0 -139.5 54t-46.5 174v295h87v-308q0 -69 29.5 -101.5t80.5 -32.5q118 0 118 132v310h87v-511h-87z" />
    <glyph glyph-name="ucircumflex" unicode="&#xfb;" 
d="M381 576l-105 90l-105 -90h-83l147 156h82l146 -156h-82zM393 0v49q-47 -61 -129 -61q-93 0 -139.5 54t-46.5 174v295h87v-308q0 -69 29.5 -101.5t80.5 -32.5q118 0 118 132v310h87v-511h-87z" />
    <glyph glyph-name="udieresis" unicode="&#xfc;" 
d="M189 599q-23 0 -39 16t-16 39t16 39t39 16t39 -16t16 -39t-16 -39t-39 -16zM362 599q-23 0 -39 16t-16 39t16 39t39 16t39 -16t16 -39t-16 -39t-39 -16zM393 0v49q-47 -61 -129 -61q-93 0 -139.5 54t-46.5 174v295h87v-308q0 -69 29.5 -101.5t80.5 -32.5q118 0 118 132
v310h87v-511h-87z" />
    <glyph glyph-name="yacute" unicode="&#xfd;" horiz-adv-x="530" 
d="M150 576l142 156h124l-178 -156h-88zM144 -194l78 207l-189 498h87l127 -348q7 -17 16 -49q9 32 16 49l129 348h89l-265 -705h-88z" />
    <glyph glyph-name="thorn" unicode="&#xfe;" horiz-adv-x="564" 
d="M301 -12q-80 0 -131 60v-209l-87 -41v873l87 41v-244q55 55 131 55q97 0 154 -72t57 -195q0 -125 -58 -196.5t-153 -71.5zM290 69q64 0 98.5 48.5t34.5 138.5q0 84 -35.5 135.5t-97.5 51.5q-81 0 -120 -69v-236q53 -69 120 -69z" />
    <glyph glyph-name="ydieresis" unicode="&#xff;" horiz-adv-x="530" 
d="M176 599q-23 0 -39 16t-16 39t16 39t39 16t39 -16t16 -39t-16 -39t-39 -16zM349 599q-23 0 -39 16t-16 39t16 39t39 16t39 -16t16 -39t-16 -39t-39 -16zM144 -194l78 207l-189 498h87l127 -348q7 -17 16 -49q9 32 16 49l129 348h89l-265 -705h-88z" />
    <glyph glyph-name="Amacron" unicode="&#x100;" horiz-adv-x="679" 
d="M174 792v74h330v-74h-330zM539 0l-60 171h-278l-59 -171h-91l248 700h81l248 -700h-89zM452 248l-90 259q-17 49 -22 71q-11 -39 -22 -71l-91 -259h225z" />
    <glyph glyph-name="amacron" unicode="&#x101;" horiz-adv-x="526" 
d="M110 603v74h330v-74h-330zM376 0v47q-63 -59 -145 -59q-81 0 -129.5 44.5t-48.5 127.5t55 126t136 43q74 0 132 -33v36q0 64 -28.5 89.5t-82.5 25.5q-77 0 -149 -51l-25 73q82 54 185 54q182 0 182 -184v-339h-82zM244 65q75 0 132 67v88q-55 34 -120 34q-53 0 -87 -24
t-34 -70q0 -43 28.5 -69t80.5 -26z" />
    <glyph glyph-name="Abreve" unicode="&#x102;" horiz-adv-x="679" 
d="M339 768q-90 0 -136 46t-46 117h78q0 -41 29 -65.5t75 -24.5q47 0 76 24.5t29 65.5h78q0 -71 -46 -117t-137 -46zM539 0l-60 171h-278l-59 -171h-91l248 700h81l248 -700h-89zM452 248l-90 259q-17 49 -22 71q-11 -39 -22 -71l-91 -259h225z" />
    <glyph glyph-name="abreve" unicode="&#x103;" horiz-adv-x="526" 
d="M275 579q-90 0 -136 46t-46 117h78q0 -41 29 -65.5t75 -24.5q47 0 76 24.5t29 65.5h78q0 -71 -46 -117t-137 -46zM376 0v47q-63 -59 -145 -59q-81 0 -129.5 44.5t-48.5 127.5t55 126t136 43q74 0 132 -33v36q0 64 -28.5 89.5t-82.5 25.5q-77 0 -149 -51l-25 73
q82 54 185 54q182 0 182 -184v-339h-82zM244 65q75 0 132 67v88q-55 34 -120 34q-53 0 -87 -24t-34 -70q0 -43 28.5 -69t80.5 -26z" />
    <glyph glyph-name="Aogonek" unicode="&#x104;" horiz-adv-x="679" 
d="M534 -237q-50 0 -82.5 27t-32.5 74q0 92 120 136l-60 171h-278l-59 -171h-91l248 700h81l248 -700q-61 -12 -98.5 -48.5t-37.5 -78.5q0 -27 15 -41t37 -14q29 0 48 21l45 -33q-39 -43 -103 -43zM227 248h225l-90 259q-17 49 -22 71q-11 -39 -22 -71z" />
    <glyph glyph-name="aogonek" unicode="&#x105;" horiz-adv-x="526" 
d="M379 -237q-50 0 -82.5 27t-32.5 74q0 88 112 136v47q-63 -59 -145 -59q-81 0 -129.5 44.5t-48.5 127.5t55 126t136 43q74 0 132 -33v36q0 64 -28.5 89.5t-82.5 25.5q-77 0 -149 -51l-25 73q82 54 185 54q182 0 182 -184v-339q-60 -19 -90.5 -55t-30.5 -72q0 -27 15 -41
t37 -14q29 0 48 21l45 -33q-39 -43 -103 -43zM244 65q75 0 132 67v88q-55 34 -120 34q-53 0 -87 -24t-34 -70q0 -43 28.5 -69t80.5 -26z" />
    <glyph glyph-name="Cacute" unicode="&#x106;" horiz-adv-x="647" 
d="M262 765l142 156h124l-178 -156h-88zM358 -12q-76 0 -134 31t-91 84t-49 115t-16 132q0 69 16.5 131.5t50 115t91 84t132.5 31.5q164 0 226 -126l-78 -40q-28 42 -61.5 63.5t-86.5 21.5q-71 0 -118 -45t-64.5 -105.5t-17.5 -130.5q0 -115 51 -197.5t149 -82.5t152 89
l80 -30q-29 -64 -87 -102.5t-145 -38.5z" />
    <glyph glyph-name="cacute" unicode="&#x107;" horiz-adv-x="500" 
d="M155 576l142 156h124l-178 -156h-88zM265 -12q-98 0 -155 70.5t-57 196.5t57.5 197t158.5 71q136 0 179 -119l-82 -30q-26 68 -96 68q-64 0 -96 -49t-32 -138q0 -88 32 -136.5t93 -48.5q80 0 104 76l81 -27q-19 -63 -67.5 -97t-119.5 -34z" />
    <glyph glyph-name="Ccircumflex" unicode="&#x108;" horiz-adv-x="647" 
d="M462 765l-105 90l-105 -90h-83l147 156h82l146 -156h-82zM358 -12q-76 0 -134 31t-91 84t-49 115t-16 132q0 69 16.5 131.5t50 115t91 84t132.5 31.5q164 0 226 -126l-78 -40q-28 42 -61.5 63.5t-86.5 21.5q-71 0 -118 -45t-64.5 -105.5t-17.5 -130.5q0 -115 51 -197.5
t149 -82.5t152 89l80 -30q-29 -64 -87 -102.5t-145 -38.5z" />
    <glyph glyph-name="ccircumflex" unicode="&#x109;" horiz-adv-x="500" 
d="M373 576l-105 90l-105 -90h-83l147 156h82l146 -156h-82zM265 -12q-98 0 -155 70.5t-57 196.5t57.5 197t158.5 71q136 0 179 -119l-82 -30q-26 68 -96 68q-64 0 -96 -49t-32 -138q0 -88 32 -136.5t93 -48.5q80 0 104 76l81 -27q-19 -63 -67.5 -97t-119.5 -34z" />
    <glyph glyph-name="Cdotaccent" unicode="&#x10a;" horiz-adv-x="647" 
d="M357 788q-23 0 -39 16t-16 39t16 39t39 16t39 -16t16 -39t-16 -39t-39 -16zM358 -12q-76 0 -134 31t-91 84t-49 115t-16 132q0 69 16.5 131.5t50 115t91 84t132.5 31.5q164 0 226 -126l-78 -40q-28 42 -61.5 63.5t-86.5 21.5q-71 0 -118 -45t-64.5 -105.5t-17.5 -130.5
q0 -115 51 -197.5t149 -82.5t152 89l80 -30q-29 -64 -87 -102.5t-145 -38.5z" />
    <glyph glyph-name="cdotaccent" unicode="&#x10b;" horiz-adv-x="500" 
d="M268 599q-23 0 -39 16t-16 39t16 39t39 16t39 -16t16 -39t-16 -39t-39 -16zM265 -12q-98 0 -155 70.5t-57 196.5t57.5 197t158.5 71q136 0 179 -119l-82 -30q-26 68 -96 68q-64 0 -96 -49t-32 -138q0 -88 32 -136.5t93 -48.5q80 0 104 76l81 -27q-19 -63 -67.5 -97
t-119.5 -34z" />
    <glyph glyph-name="Ccaron" unicode="&#x10c;" horiz-adv-x="647" 
d="M398 765h-83l-146 156h83l105 -90l105 90h82zM358 -12q-76 0 -134 31t-91 84t-49 115t-16 132q0 69 16.5 131.5t50 115t91 84t132.5 31.5q164 0 226 -126l-78 -40q-28 42 -61.5 63.5t-86.5 21.5q-71 0 -118 -45t-64.5 -105.5t-17.5 -130.5q0 -115 51 -197.5t149 -82.5
t152 89l80 -30q-29 -64 -87 -102.5t-145 -38.5z" />
    <glyph glyph-name="ccaron" unicode="&#x10d;" horiz-adv-x="500" 
d="M309 576h-83l-146 156h83l105 -90l105 90h82zM265 -12q-98 0 -155 70.5t-57 196.5t57.5 197t158.5 71q136 0 179 -119l-82 -30q-26 68 -96 68q-64 0 -96 -49t-32 -138q0 -88 32 -136.5t93 -48.5q80 0 104 76l81 -27q-19 -63 -67.5 -97t-119.5 -34z" />
    <glyph glyph-name="Dcaron" unicode="&#x10e;" horiz-adv-x="682" 
d="M345 765h-83l-146 156h83l105 -90l105 90h82zM98 700h191q86 0 151 -30t102 -81t54.5 -111t17.5 -128q0 -65 -16.5 -123.5t-52 -111t-102.5 -84t-158 -31.5h-187v700zM296 81q62 0 108.5 23.5t71.5 64t36.5 85.5t11.5 96q0 72 -21 131t-72 99t-124 40h-122v-539h111z" />
    <glyph glyph-name="dcaron" unicode="&#x10f;" horiz-adv-x="714" 
d="M264 -12q-97 0 -154 72t-57 196q0 125 57.5 196t153.5 71q75 0 129 -48v206l87 41v-722h-87v40q-50 -52 -129 -52zM678 712v-8q0 -140 -89 -228l-26 19q13 28 21.5 91.5t8.5 125.5h85zM276 69q76 0 117 69v240q-41 65 -117 65q-65 0 -100 -48.5t-35 -138.5
q0 -81 36.5 -134t98.5 -53z" />
    <glyph glyph-name="Dcroat" unicode="&#x110;" horiz-adv-x="682" 
d="M98 310h-68v79h68v311h191q86 0 151 -30t102 -81t54.5 -111t17.5 -128q0 -65 -16.5 -123.5t-52 -111t-102.5 -84t-158 -31.5h-187v310zM296 81q62 0 108.5 23.5t71.5 64t36.5 85.5t11.5 96q0 72 -21 131t-72 99t-124 40h-122v-231h153v-79h-153v-229h111z" />
    <glyph glyph-name="dcroat" unicode="&#x111;" horiz-adv-x="562" 
d="M480 548v-548h-87v40q-52 -52 -129 -52q-97 0 -154 69.5t-57 183.5q0 115 57.5 182t153.5 67q75 0 129 -48v106h-135v75h135v58l87 41v-99h62v-75h-62zM276 69q76 0 117 69v207q-41 65 -117 65q-64 0 -99.5 -44.5t-35.5 -124.5q0 -72 37 -122t98 -50z" />
    <glyph glyph-name="Emacron" unicode="&#x112;" horiz-adv-x="599" 
d="M141 792v74h330v-74h-330zM98 0v700h416v-82h-329v-215h217v-82h-217v-238h351v-83h-438z" />
    <glyph glyph-name="emacron" unicode="&#x113;" horiz-adv-x="538" 
d="M114 603v74h330v-74h-330zM280 -12q-104 0 -165.5 74.5t-61.5 193.5q0 125 62 196t165 71q92 0 151.5 -61.5t59.5 -181.5q0 -28 -3 -58h-346q5 -70 43.5 -112.5t96.5 -42.5q64 0 110 46l53 -59q-66 -66 -165 -66zM141 296h262q-1 79 -37.5 114.5t-85.5 35.5
q-59 0 -97 -37.5t-42 -112.5z" />
    <glyph glyph-name="Ebreve" unicode="&#x114;" horiz-adv-x="599" 
d="M307 768q-90 0 -136 46t-46 117h78q0 -41 29 -65.5t75 -24.5q47 0 76 24.5t29 65.5h78q0 -71 -46 -117t-137 -46zM98 0v700h416v-82h-329v-215h217v-82h-217v-238h351v-83h-438z" />
    <glyph glyph-name="ebreve" unicode="&#x115;" horiz-adv-x="538" 
d="M279 579q-90 0 -136 46t-46 117h78q0 -41 29 -65.5t75 -24.5q47 0 76 24.5t29 65.5h78q0 -71 -46 -117t-137 -46zM280 -12q-104 0 -165.5 74.5t-61.5 193.5q0 125 62 196t165 71q92 0 151.5 -61.5t59.5 -181.5q0 -28 -3 -58h-346q5 -70 43.5 -112.5t96.5 -42.5
q64 0 110 46l53 -59q-66 -66 -165 -66zM141 296h262q-1 79 -37.5 114.5t-85.5 35.5q-59 0 -97 -37.5t-42 -112.5z" />
    <glyph glyph-name="Edotaccent" unicode="&#x116;" horiz-adv-x="599" 
d="M310 788q-23 0 -39 16t-16 39t16 39t39 16t39 -16t16 -39t-16 -39t-39 -16zM98 0v700h416v-82h-329v-215h217v-82h-217v-238h351v-83h-438z" />
    <glyph glyph-name="edotaccent" unicode="&#x117;" horiz-adv-x="538" 
d="M280 599q-23 0 -39 16t-16 39t16 39t39 16t39 -16t16 -39t-16 -39t-39 -16zM280 -12q-104 0 -165.5 74.5t-61.5 193.5q0 125 62 196t165 71q92 0 151.5 -61.5t59.5 -181.5q0 -28 -3 -58h-346q5 -70 43.5 -112.5t96.5 -42.5q64 0 110 46l53 -59q-66 -66 -165 -66zM141 296
h262q-1 79 -37.5 114.5t-85.5 35.5q-59 0 -97 -37.5t-42 -112.5z" />
    <glyph glyph-name="Eogonek" unicode="&#x118;" horiz-adv-x="599" 
d="M400 -237q-50 0 -82.5 27t-32.5 74q0 44 29 79.5t81 56.5h-297v700h416v-82h-329v-215h217v-82h-217v-238h351v-83h-31q-60 0 -103.5 -41.5t-43.5 -85.5q0 -27 15 -41t37 -14q29 0 48 21l45 -33q-39 -43 -103 -43z" />
    <glyph glyph-name="eogonek" unicode="&#x119;" horiz-adv-x="538" 
d="M295 -237q-50 0 -82.5 27t-32.5 74q0 78 86 124q-98 5 -155.5 79t-57.5 189q0 125 62 196t165 71q92 0 151.5 -61.5t59.5 -181.5q0 -28 -3 -58h-346q5 -70 43.5 -112.5t96.5 -42.5q64 0 110 46l53 -59q-17 -18 -79 -55l-42 -25t-33.5 -24.5t-29 -35t-8.5 -41.5
q0 -27 15 -41t37 -14q29 0 48 21l45 -33q-39 -43 -103 -43zM280 446q-59 0 -97 -37.5t-42 -112.5h262q-1 79 -37.5 114.5t-85.5 35.5z" />
    <glyph glyph-name="Ecaron" unicode="&#x11a;" horiz-adv-x="599" 
d="M352 765h-83l-146 156h83l105 -90l105 90h82zM98 0v700h416v-82h-329v-215h217v-82h-217v-238h351v-83h-438z" />
    <glyph glyph-name="ecaron" unicode="&#x11b;" horiz-adv-x="538" 
d="M321 576h-83l-146 156h83l105 -90l105 90h82zM280 -12q-104 0 -165.5 74.5t-61.5 193.5q0 125 62 196t165 71q92 0 151.5 -61.5t59.5 -181.5q0 -28 -3 -58h-346q5 -70 43.5 -112.5t96.5 -42.5q64 0 110 46l53 -59q-66 -66 -165 -66zM141 296h262q-1 79 -37.5 114.5
t-85.5 35.5q-59 0 -97 -37.5t-42 -112.5z" />
    <glyph glyph-name="Gcircumflex" unicode="&#x11c;" horiz-adv-x="688" 
d="M470 765l-105 90l-105 -90h-83l147 156h82l146 -156h-82zM365 -12q-77 0 -135.5 30.5t-93 82.5t-51.5 115t-17 134q0 70 18 133.5t53 115t93.5 82.5t132.5 31q89 0 140.5 -33t86.5 -90l-78 -45q-28 41 -62 63.5t-87 22.5q-45 0 -81 -17t-59 -44.5t-38.5 -64.5t-22 -75.5
t-6.5 -78.5q0 -118 52 -198.5t155 -80.5q71 0 114 44.5t43 116.5v28h-127v80h218v-84q0 -127 -69.5 -197.5t-178.5 -70.5z" />
    <glyph glyph-name="gcircumflex" unicode="&#x11d;" 
d="M394 576l-105 90l-105 -90h-83l147 156h82l146 -156h-82zM240 -207l-42 68q111 6 153.5 38.5t42.5 88.5v62q-45 -62 -132 -62q-90 0 -149.5 70t-59.5 198q0 124 58.5 195.5t153.5 71.5q80 0 129 -54v42h87v-490q0 -117 -62.5 -169t-178.5 -59zM280 69q32 0 63.5 19.5
t50.5 52.5v234q-18 30 -51 49t-63 19q-68 0 -103.5 -48.5t-35.5 -138.5q0 -87 38.5 -137t100.5 -50z" />
    <glyph glyph-name="Gbreve" unicode="&#x11e;" horiz-adv-x="688" 
d="M364 768q-90 0 -136 46t-46 117h78q0 -41 29 -65.5t75 -24.5q47 0 76 24.5t29 65.5h78q0 -71 -46 -117t-137 -46zM365 -12q-77 0 -135.5 30.5t-93 82.5t-51.5 115t-17 134q0 70 18 133.5t53 115t93.5 82.5t132.5 31q89 0 140.5 -33t86.5 -90l-78 -45q-28 41 -62 63.5
t-87 22.5q-45 0 -81 -17t-59 -44.5t-38.5 -64.5t-22 -75.5t-6.5 -78.5q0 -118 52 -198.5t155 -80.5q71 0 114 44.5t43 116.5v28h-127v80h218v-84q0 -127 -69.5 -197.5t-178.5 -70.5z" />
    <glyph glyph-name="gbreve" unicode="&#x11f;" 
d="M289 579q-90 0 -136 46t-46 117h78q0 -41 29 -65.5t75 -24.5q47 0 76 24.5t29 65.5h78q0 -71 -46 -117t-137 -46zM240 -207l-42 68q111 6 153.5 38.5t42.5 88.5v62q-45 -62 -132 -62q-90 0 -149.5 70t-59.5 198q0 124 58.5 195.5t153.5 71.5q80 0 129 -54v42h87v-490
q0 -117 -62.5 -169t-178.5 -59zM280 69q32 0 63.5 19.5t50.5 52.5v234q-18 30 -51 49t-63 19q-68 0 -103.5 -48.5t-35.5 -138.5q0 -87 38.5 -137t100.5 -50z" />
    <glyph glyph-name="Gdotaccent" unicode="&#x120;" horiz-adv-x="688" 
d="M359 788q-23 0 -39 16t-16 39t16 39t39 16t39 -16t16 -39t-16 -39t-39 -16zM365 -12q-77 0 -135.5 30.5t-93 82.5t-51.5 115t-17 134q0 70 18 133.5t53 115t93.5 82.5t132.5 31q89 0 140.5 -33t86.5 -90l-78 -45q-28 41 -62 63.5t-87 22.5q-45 0 -81 -17t-59 -44.5
t-38.5 -64.5t-22 -75.5t-6.5 -78.5q0 -118 52 -198.5t155 -80.5q71 0 114 44.5t43 116.5v28h-127v80h218v-84q0 -127 -69.5 -197.5t-178.5 -70.5z" />
    <glyph glyph-name="gdotaccent" unicode="&#x121;" 
d="M289 599q-23 0 -39 16t-16 39t16 39t39 16t39 -16t16 -39t-16 -39t-39 -16zM240 -207l-42 68q111 6 153.5 38.5t42.5 88.5v62q-45 -62 -132 -62q-90 0 -149.5 70t-59.5 198q0 124 58.5 195.5t153.5 71.5q80 0 129 -54v42h87v-490q0 -117 -62.5 -169t-178.5 -59zM280 69
q32 0 63.5 19.5t50.5 52.5v234q-18 30 -51 49t-63 19q-68 0 -103.5 -48.5t-35.5 -138.5q0 -87 38.5 -137t100.5 -50z" />
    <glyph glyph-name="Gcommaaccent" unicode="&#x122;" horiz-adv-x="688" 
d="M365 -12q-77 0 -135.5 30.5t-93 82.5t-51.5 115t-17 134q0 70 18 133.5t53 115t93.5 82.5t132.5 31q89 0 140.5 -33t86.5 -90l-78 -45q-28 41 -62 63.5t-87 22.5q-45 0 -81 -17t-59 -44.5t-38.5 -64.5t-22 -75.5t-6.5 -78.5q0 -118 52 -198.5t155 -80.5q71 0 114 44.5
t43 116.5v28h-127v80h218v-84q0 -127 -69.5 -197.5t-178.5 -70.5zM319 -241q35 30 45 72q-27 0 -43.5 16.5t-16.5 41.5q0 26 17.5 42.5t40.5 16.5q25 0 43 -17.5t18 -47.5q0 -83 -78 -137z" />
    <glyph glyph-name="gcommaaccent" unicode="&#x123;" 
d="M289 597q-25 0 -43 18t-18 48q0 83 78 137l26 -14q-35 -27 -45 -72q27 0 43.5 -16.5t16.5 -40.5q0 -26 -17.5 -43t-40.5 -17zM240 -207l-42 68q111 6 153.5 38.5t42.5 88.5v62q-45 -62 -132 -62q-90 0 -149.5 70t-59.5 198q0 124 58.5 195.5t153.5 71.5q80 0 129 -54v42
h87v-490q0 -117 -62.5 -169t-178.5 -59zM280 69q32 0 63.5 19.5t50.5 52.5v234q-18 30 -51 49t-63 19q-68 0 -103.5 -48.5t-35.5 -138.5q0 -87 38.5 -137t100.5 -50z" />
    <glyph glyph-name="Hcircumflex" unicode="&#x124;" horiz-adv-x="700" 
d="M455 765l-105 90l-105 -90h-83l147 156h82l146 -156h-82zM515 0v322h-330v-322h-87v700h87v-296h330v296h87v-700h-87z" />
    <glyph glyph-name="hcircumflex" unicode="&#x125;" 
d="M393 765l-105 90l-105 -90h-83l147 156h82l146 -156h-82zM83 0v682l87 40v-264q47 65 132 65q90 0 136.5 -54.5t46.5 -174.5v-294h-87v309q0 69 -29.5 101.5t-80.5 32.5q-118 0 -118 -132v-311h-87z" />
    <glyph glyph-name="Hbar" unicode="&#x126;" horiz-adv-x="700" 
d="M515 0v322h-330v-322h-87v523h-90v82h90v95h87v-95h330v95h87v-95h90v-82h-90v-523h-87zM515 404v119h-330v-119h330z" />
    <glyph glyph-name="hbar" unicode="&#x127;" 
d="M83 0v548h-63v75h63v59l87 40v-99h149v-75h-149v-122q47 65 132 65q90 0 136.5 -54.5t46.5 -174.5v-262h-87v277q0 69 -29.5 101.5t-80.5 32.5q-118 0 -118 -132v-279h-87z" />
    <glyph glyph-name="Itilde" unicode="&#x128;" horiz-adv-x="287" 
d="M222 784q-38 0 -90.5 24.5t-74.5 24.5q-20 0 -33 -11.5t-14 -33.5h-45q0 120 99 120q38 0 90.5 -25t74.5 -25q19 0 32.5 12t14.5 34h45q0 -120 -99 -120zM100 0v700h87v-700h-87z" />
    <glyph glyph-name="itilde" unicode="&#x129;" horiz-adv-x="254" 
d="M205 595q-38 0 -90.5 24.5t-74.5 24.5q-20 0 -33 -11.5t-14 -33.5h-45q0 120 99 120q38 0 90.5 -25t74.5 -25q19 0 32.5 12t14.5 34h45q0 -120 -99 -120zM84 0v511h87v-511h-87z" />
    <glyph glyph-name="Imacron" unicode="&#x12a;" horiz-adv-x="287" 
d="M-22 792v74h330v-74h-330zM100 0v700h87v-700h-87z" />
    <glyph glyph-name="imacron" unicode="&#x12b;" horiz-adv-x="254" 
d="M-39 603v74h330v-74h-330zM84 0v511h87v-511h-87z" />
    <glyph glyph-name="Ibreve" unicode="&#x12c;" horiz-adv-x="287" 
d="M143 768q-90 0 -136 46t-46 117h78q0 -41 29 -65.5t75 -24.5q47 0 76 24.5t29 65.5h78q0 -71 -46 -117t-137 -46zM100 0v700h87v-700h-87z" />
    <glyph glyph-name="ibreve" unicode="&#x12d;" horiz-adv-x="254" 
d="M126 579q-90 0 -136 46t-46 117h78q0 -41 29 -65.5t75 -24.5q47 0 76 24.5t29 65.5h78q0 -71 -46 -117t-137 -46zM84 0v511h87v-511h-87z" />
    <glyph glyph-name="Iogonek" unicode="&#x12e;" horiz-adv-x="287" 
d="M102 -237q-50 0 -82.5 27t-32.5 74q0 90 113 136v700h87v-700q-62 -19 -94 -54t-32 -73q0 -27 15 -41t37 -14q27 0 48 21l45 -33q-39 -43 -104 -43z" />
    <glyph glyph-name="iogonek" unicode="&#x12f;" horiz-adv-x="254" 
d="M127 604q-23 0 -38.5 16t-15.5 38q0 23 16 39.5t38 16.5q23 0 39 -16.5t16 -39.5t-16 -38.5t-39 -15.5zM87 -237q-50 0 -82.5 27t-32.5 74q0 45 30 80t82 56v511h87v-511q-61 -19 -93 -54t-32 -73q0 -27 15 -41t37 -14q27 0 48 21l45 -33q-39 -43 -104 -43z" />
    <glyph glyph-name="Idotaccent" unicode="&#x130;" horiz-adv-x="287" 
d="M144 788q-23 0 -39 16t-16 39t16 39t39 16t39 -16t16 -39t-16 -39t-39 -16zM100 0v700h87v-700h-87z" />
    <glyph glyph-name="dotlessi" unicode="&#x131;" horiz-adv-x="254" 
d="M84 0v511h87v-511h-87z" />
    <glyph glyph-name="IJ" unicode="&#x132;" horiz-adv-x="833" 
d="M100 0v700h87v-700h-87zM517 -12q-148 0 -202 126l72 37q21 -43 50 -62t81 -19q133 0 133 157v473h87v-470q0 -69 -20 -118.5t-54 -75t-70.5 -37t-76.5 -11.5z" />
    <glyph glyph-name="ij" unicode="&#x133;" horiz-adv-x="523" 
d="M127 604q-23 0 -38.5 16t-15.5 38q0 23 16 39.5t38 16.5q23 0 39 -16.5t16 -39.5t-16 -38.5t-39 -15.5zM397 604q-23 0 -39 15.5t-16 38.5t16 39.5t39 16.5t38.5 -16.5t15.5 -39.5t-15.5 -38.5t-38.5 -15.5zM84 0v511h87v-511h-87zM263 -214l-41 66q74 12 102.5 38
t28.5 74v547h87v-515q0 -93 -38 -138q-48 -59 -139 -72z" />
    <glyph glyph-name="Jcircumflex" unicode="&#x134;" horiz-adv-x="546" 
d="M513 765l-105 90l-105 -90h-83l147 156h82l146 -156h-82zM230 -12q-148 0 -202 126l72 37q21 -43 50 -62t81 -19q133 0 133 157v473h87v-470q0 -69 -20 -118.5t-54 -75t-70.5 -37t-76.5 -11.5z" />
    <glyph glyph-name="jcircumflex" unicode="&#x135;" horiz-adv-x="254" 
d="M234 576l-105 90l-105 -90h-83l147 156h82l146 -156h-82zM-6 -214l-41 66q74 12 102.5 38t28.5 74v547h87v-515q0 -93 -38 -138q-48 -59 -139 -72z" />
    <glyph glyph-name="Kcommaaccent" unicode="&#x136;" horiz-adv-x="660" 
d="M512 0l-208 385l-119 -146v-239h-87v700h87v-343l273 343h98l-193 -242l250 -458h-101zM288 -241q35 30 45 72q-27 0 -43.5 16.5t-16.5 41.5q0 26 17.5 42.5t40.5 16.5q25 0 43 -17.5t18 -47.5q0 -83 -78 -137z" />
    <glyph glyph-name="kcommaaccent" unicode="&#x137;" horiz-adv-x="531" 
d="M498 0h-95l-158 309l-75 -78v-231h-87v681l87 41v-387l166 176h104l-134 -139zM223 -241q35 30 45 72q-27 0 -43.5 16.5t-16.5 41.5q0 26 17.5 42.5t40.5 16.5q25 0 43 -17.5t18 -47.5q0 -83 -78 -137z" />
    <glyph glyph-name="kgreenlandic" unicode="&#x138;" horiz-adv-x="534" 
d="M406 0l-135 251l-101 -126v-125h-87v511h87v-270l213 270h98l-152 -189l175 -322h-98z" />
    <glyph glyph-name="Lacute" unicode="&#x139;" horiz-adv-x="559" 
d="M49 765l142 156h124l-178 -156h-88zM98 0v700h87v-616h344v-84h-431z" />
    <glyph glyph-name="lacute" unicode="&#x13a;" horiz-adv-x="262" 
d="M18 756l142 156h124l-178 -156h-88zM88 0v681l87 41v-722h-87z" />
    <glyph glyph-name="Lcommaaccent" unicode="&#x13b;" horiz-adv-x="559" 
d="M98 0v700h87v-616h344v-84h-431zM272 -241q35 30 45 72q-27 0 -43.5 16.5t-16.5 41.5q0 26 17.5 42.5t40.5 16.5q25 0 43 -17.5t18 -47.5q0 -83 -78 -137z" />
    <glyph glyph-name="lcommaaccent" unicode="&#x13c;" horiz-adv-x="262" 
d="M88 0v681l87 41v-722h-87zM88 -241q35 30 45 72q-27 0 -43.5 16.5t-16.5 41.5q0 26 17.5 42.5t40.5 16.5q25 0 43 -17.5t18 -47.5q0 -83 -78 -137z" />
    <glyph glyph-name="Lcaron" unicode="&#x13d;" horiz-adv-x="559" 
d="M183 765h-83l-146 156h83l105 -90l105 90h82zM98 0v700h87v-616h344v-84h-431z" />
    <glyph glyph-name="lcaron" unicode="&#x13e;" horiz-adv-x="409" 
d="M88 0v681l87 41v-722h-87zM383 712v-8q0 -140 -89 -228l-26 19q13 28 21.5 91.5t8.5 125.5h85z" />
    <glyph glyph-name="Ldot" unicode="&#x13f;" horiz-adv-x="559" 
d="M98 0v700h87v-616h344v-84h-431zM421 281q-29 0 -49 20.5t-20 47.5q0 28 20 48.5t49 20.5t49.5 -21t20.5 -48t-20.5 -47.5t-49.5 -20.5z" />
    <glyph glyph-name="ldot" unicode="&#x140;" horiz-adv-x="370" 
d="M88 0v681l87 41v-722h-87zM302 247q-29 0 -49 20.5t-20 47.5q0 28 20 48.5t49 20.5t49.5 -21t20.5 -48t-20.5 -47.5t-49.5 -20.5z" />
    <glyph glyph-name="Lslash" unicode="&#x141;" horiz-adv-x="559" 
d="M98 0v255l-73 -54v96l73 54v349h87v-279l119 91v-96l-119 -92v-240h344v-84h-431z" />
    <glyph glyph-name="lslash" unicode="&#x142;" horiz-adv-x="263" 
d="M88 0v258l-63 -49v78l63 49v345l87 41v-321l63 48v-78l-63 -48v-323h-87z" />
    <glyph glyph-name="Nacute" unicode="&#x143;" horiz-adv-x="708" 
d="M261 766l142 156h124l-178 -156h-88zM610 0h-84l-315 500q-18 29 -28 49q2 -30 2 -49v-500h-87v700h88l310 -498q16 -26 29 -52q-2 36 -2 51v499h87v-700z" />
    <glyph glyph-name="nacute" unicode="&#x144;" 
d="M175 576l142 156h124l-178 -156h-88zM398 0v309q0 69 -29.5 101.5t-80.5 32.5q-118 0 -118 -132v-311h-87v511h87v-52q47 64 132 64q90 0 136.5 -54.5t46.5 -174.5v-294h-87z" />
    <glyph glyph-name="Ncommaaccent" unicode="&#x145;" horiz-adv-x="708" 
d="M610 0h-84l-315 500q-18 29 -28 49q2 -30 2 -49v-500h-87v700h88l310 -498q16 -26 29 -52q-2 36 -2 51v499h87v-700zM311 -241q35 30 45 72q-27 0 -43.5 16.5t-16.5 41.5q0 26 17.5 42.5t40.5 16.5q25 0 43 -17.5t18 -47.5q0 -83 -78 -137z" />
    <glyph glyph-name="ncommaaccent" unicode="&#x146;" 
d="M398 0v309q0 69 -29.5 101.5t-80.5 32.5q-118 0 -118 -132v-311h-87v511h87v-52q47 64 132 64q90 0 136.5 -54.5t46.5 -174.5v-294h-87zM239 -241q35 30 45 72q-27 0 -43.5 16.5t-16.5 41.5q0 26 17.5 42.5t40.5 16.5q25 0 43 -17.5t18 -47.5q0 -83 -78 -137z" />
    <glyph glyph-name="Ncaron" unicode="&#x147;" horiz-adv-x="708" 
d="M400 765h-83l-146 156h83l105 -90l105 90h82zM610 0h-84l-315 500q-18 29 -28 49q2 -30 2 -49v-500h-87v700h88l310 -498q16 -26 29 -52q-2 36 -2 51v499h87v-700z" />
    <glyph glyph-name="ncaron" unicode="&#x148;" 
d="M329 576h-83l-146 156h83l105 -90l105 90h82zM398 0v309q0 69 -29.5 101.5t-80.5 32.5q-118 0 -118 -132v-311h-87v511h87v-52q47 64 132 64q90 0 136.5 -54.5t46.5 -174.5v-294h-87z" />
    <glyph glyph-name="napostrophe" unicode="&#x149;" horiz-adv-x="755" 
d="M57 465q18 16 36 46t20 64q-30 2 -50 20t-20 46q0 32 19.5 51.5t47.5 19.5q32 0 54 -22.5t22 -64.5q0 -55 -28 -101.5t-72 -73.5zM590 0v309q0 69 -29.5 101.5t-80.5 32.5q-118 0 -118 -132v-311h-87v511h87v-52q47 64 132 64q90 0 136.5 -54.5t46.5 -174.5v-294h-87z
" />
    <glyph glyph-name="Eng" unicode="&#x14a;" horiz-adv-x="708" 
d="M430 -244l-41 66q72 11 101.5 43t29.5 84v60l-309 492q-13 19 -28 48q2 -30 2 -49v-500h-87v700h88l310 -498q16 -26 29 -52q-2 36 -2 51v499h87v-726q0 -106 -54 -159q-46 -45 -126 -59z" />
    <glyph glyph-name="eng" unicode="&#x14b;" 
d="M309 -229l-41 66q73 12 101.5 38t28.5 74v360q0 69 -29.5 101.5t-80.5 32.5q-118 0 -118 -132v-311h-87v511h87v-52q47 64 132 64q90 0 136.5 -54.5t46.5 -174.5v-313q0 -95 -39 -140q-48 -57 -137 -70z" />
    <glyph glyph-name="Omacron" unicode="&#x14c;" horiz-adv-x="730" 
d="M199 792v74h330v-74h-330zM365 -12q-79 0 -138.5 31.5t-93 85t-49.5 115t-16 130.5t16 130.5t49.5 115t93 85t138.5 31.5q64 0 115.5 -21t85 -56t56 -83t32 -98t9.5 -104t-9.5 -104t-32 -98t-56 -83t-85 -56t-115.5 -21zM365 70q55 0 97 25.5t65 67.5t34 89.5t11 97.5
q0 74 -18.5 134.5t-67 103.5t-121.5 43q-55 0 -96.5 -25.5t-64.5 -68t-34.5 -89.5t-11.5 -98q0 -54 11 -102t34.5 -89t65 -65t96.5 -24z" />
    <glyph glyph-name="omacron" unicode="&#x14d;" horiz-adv-x="558" 
d="M113 603v74h330v-74h-330zM279 -12q-104 0 -165 71t-61 196t61 196.5t165 71.5t165 -71t61 -196t-61 -196.5t-165 -71.5zM279 69q65 0 101.5 49.5t36.5 137.5q0 87 -36.5 137t-101.5 50t-101.5 -49.5t-36.5 -138.5q0 -87 36.5 -136.5t101.5 -49.5z" />
    <glyph glyph-name="Obreve" unicode="&#x14e;" horiz-adv-x="730" 
d="M364 768q-90 0 -136 46t-46 117h78q0 -41 29 -65.5t75 -24.5q47 0 76 24.5t29 65.5h78q0 -71 -46 -117t-137 -46zM365 -12q-79 0 -138.5 31.5t-93 85t-49.5 115t-16 130.5t16 130.5t49.5 115t93 85t138.5 31.5q64 0 115.5 -21t85 -56t56 -83t32 -98t9.5 -104t-9.5 -104
t-32 -98t-56 -83t-85 -56t-115.5 -21zM365 70q55 0 97 25.5t65 67.5t34 89.5t11 97.5q0 74 -18.5 134.5t-67 103.5t-121.5 43q-55 0 -96.5 -25.5t-64.5 -68t-34.5 -89.5t-11.5 -98q0 -54 11 -102t34.5 -89t65 -65t96.5 -24z" />
    <glyph glyph-name="obreve" unicode="&#x14f;" horiz-adv-x="558" 
d="M278 579q-90 0 -136 46t-46 117h78q0 -41 29 -65.5t75 -24.5q47 0 76 24.5t29 65.5h78q0 -71 -46 -117t-137 -46zM279 -12q-104 0 -165 71t-61 196t61 196.5t165 71.5t165 -71t61 -196t-61 -196.5t-165 -71.5zM279 69q65 0 101.5 49.5t36.5 137.5q0 87 -36.5 137
t-101.5 50t-101.5 -49.5t-36.5 -138.5q0 -87 36.5 -136.5t101.5 -49.5z" />
    <glyph glyph-name="Ohungarumlaut" unicode="&#x150;" horiz-adv-x="730" 
d="M273 765h-88l142 156h124zM477 765h-88l142 156h124zM365 -12q-79 0 -138.5 31.5t-93 85t-49.5 115t-16 130.5t16 130.5t49.5 115t93 85t138.5 31.5q64 0 115.5 -21t85 -56t56 -83t32 -98t9.5 -104t-9.5 -104t-32 -98t-56 -83t-85 -56t-115.5 -21zM365 70q55 0 97 25.5
t65 67.5t34 89.5t11 97.5q0 74 -18.5 134.5t-67 103.5t-121.5 43q-55 0 -96.5 -25.5t-64.5 -68t-34.5 -89.5t-11.5 -98q0 -54 11 -102t34.5 -89t65 -65t96.5 -24z" />
    <glyph glyph-name="ohungarumlaut" unicode="&#x151;" horiz-adv-x="558" 
d="M186 576h-88l142 156h124zM390 576h-88l142 156h124zM279 -12q-104 0 -165 71t-61 196t61 196.5t165 71.5t165 -71t61 -196t-61 -196.5t-165 -71.5zM279 69q65 0 101.5 49.5t36.5 137.5q0 87 -36.5 137t-101.5 50t-101.5 -49.5t-36.5 -138.5q0 -87 36.5 -136.5
t101.5 -49.5z" />
    <glyph glyph-name="OE" unicode="&#x152;" horiz-adv-x="902" 
d="M475 0v8q-48 -20 -110 -20q-79 0 -138.5 31.5t-93 85t-49.5 115t-16 130.5q0 53 9 102.5t31.5 97.5t55.5 83.5t85 57t116 21.5q62 0 110 -20v8h363v-82h-276v-215h164v-82h-164v-238h298v-83h-385zM365 70q61 0 110 33v495q-46 33 -110 33q-44 0 -80 -17.5t-59.5 -45
t-39 -65t-22 -75.5t-6.5 -78q0 -55 11 -103t34.5 -88.5t65 -64.5t96.5 -24z" />
    <glyph glyph-name="oe" unicode="&#x153;" horiz-adv-x="901" 
d="M279 -12q-104 0 -165 70.5t-61 196.5q0 125 61 196.5t165 71.5q119 0 182 -95q60 95 181 95q93 0 152.5 -61.5t59.5 -181.5q0 -28 -3 -58h-346q5 -70 43.5 -112.5t95.5 -42.5q65 0 111 46l53 -59q-66 -66 -166 -66q-116 0 -180 98q-61 -98 -183 -98zM504 296h262
q-1 79 -38 114.5t-86 35.5q-58 0 -96 -37.5t-42 -112.5zM279 69q65 0 101.5 49.5t36.5 137.5q0 87 -36.5 137t-101.5 50t-101.5 -49.5t-36.5 -138.5q0 -87 36.5 -136.5t101.5 -49.5z" />
    <glyph glyph-name="Racute" unicode="&#x154;" horiz-adv-x="665" 
d="M211 765l142 156h124l-178 -156h-88zM98 0v700h276q116 0 168.5 -57t52.5 -142q0 -69 -40.5 -123.5t-122.5 -71.5l150 -306h-98l-144 300h-155v-300h-87zM185 381h191q68 0 99.5 34t31.5 84q0 48 -30.5 84t-100.5 36h-191v-238z" />
    <glyph glyph-name="racute" unicode="&#x155;" horiz-adv-x="389" 
d="M122 576l142 156h124l-178 -156h-88zM83 0v511h87v-67q36 79 121 79q48 0 79 -26l-13 -82q-32 22 -73 22q-45 0 -79.5 -35t-34.5 -114v-288h-87z" />
    <glyph glyph-name="Rcommaaccent" unicode="&#x156;" horiz-adv-x="665" 
d="M98 0v700h276q116 0 168.5 -57t52.5 -142q0 -69 -40.5 -123.5t-122.5 -71.5l150 -306h-98l-144 300h-155v-300h-87zM185 381h191q68 0 99.5 34t31.5 84q0 48 -30.5 84t-100.5 36h-191v-238zM291 -241q35 30 45 72q-27 0 -43.5 16.5t-16.5 41.5q0 26 17.5 42.5t40.5 16.5
q25 0 43 -17.5t18 -47.5q0 -83 -78 -137z" />
    <glyph glyph-name="rcommaaccent" unicode="&#x157;" horiz-adv-x="389" 
d="M83 0v511h87v-67q36 79 121 79q48 0 79 -26l-13 -82q-32 22 -73 22q-45 0 -79.5 -35t-34.5 -114v-288h-87zM84 -261q35 30 45 72q-27 0 -43.5 16.5t-16.5 41.5q0 26 17.5 42.5t40.5 16.5q25 0 43 -17.5t18 -47.5q0 -83 -78 -137z" />
    <glyph glyph-name="Rcaron" unicode="&#x158;" horiz-adv-x="665" 
d="M365 765h-83l-146 156h83l105 -90l105 90h82zM98 0v700h276q116 0 168.5 -57t52.5 -142q0 -69 -40.5 -123.5t-122.5 -71.5l150 -306h-98l-144 300h-155v-300h-87zM185 381h191q68 0 99.5 34t31.5 84q0 48 -30.5 84t-100.5 36h-191v-238z" />
    <glyph glyph-name="rcaron" unicode="&#x159;" horiz-adv-x="389" 
d="M276 576h-83l-146 156h83l105 -90l105 90h82zM83 0v511h87v-67q36 79 121 79q48 0 79 -26l-13 -82q-32 22 -73 22q-45 0 -79.5 -35t-34.5 -114v-288h-87z" />
    <glyph glyph-name="Sacute" unicode="&#x15a;" horiz-adv-x="599" 
d="M201 765l142 156h124l-178 -156h-88zM302 -12q-89 0 -154.5 43.5t-89.5 112.5l82 30q22 -48 65 -76t99 -28q64 0 101 30.5t37 87.5q0 55 -41.5 88t-116.5 60q-36 13 -59.5 23t-54 28.5t-48.5 38t-30.5 49t-12.5 64.5q0 73 58 123t157 50q81 0 135 -34.5t70 -90.5l-80 -27
q-14 31 -48 51t-83 20q-55 0 -87 -24.5t-32 -67.5q0 -23 11.5 -42t36 -34t45.5 -24t58 -23q46 -17 76 -32.5t65 -41.5t53 -64.5t18 -87.5q0 -94 -64 -148t-166 -54z" />
    <glyph glyph-name="sacute" unicode="&#x15b;" horiz-adv-x="469" 
d="M132 576l142 156h124l-178 -156h-88zM234 -12q-55 0 -104.5 23.5t-80.5 62.5l62 53q57 -61 125 -61q43 0 69 16.5t26 48.5q0 24 -19 43.5t-39 29t-59 24.5q-78 29 -118 65t-40 95q0 62 48.5 98.5t123.5 36.5q107 0 172 -77l-60 -50q-47 49 -113 49q-39 0 -62 -15t-23 -42
q0 -15 7.5 -27.5t27 -23.5t31 -16.5t42.5 -17.5q81 -29 123.5 -66t42.5 -104q0 -68 -49 -106.5t-133 -38.5z" />
    <glyph glyph-name="Scircumflex" unicode="&#x15c;" horiz-adv-x="599" 
d="M400 765l-105 90l-105 -90h-83l147 156h82l146 -156h-82zM302 -12q-89 0 -154.5 43.5t-89.5 112.5l82 30q22 -48 65 -76t99 -28q64 0 101 30.5t37 87.5q0 55 -41.5 88t-116.5 60q-36 13 -59.5 23t-54 28.5t-48.5 38t-30.5 49t-12.5 64.5q0 73 58 123t157 50
q81 0 135 -34.5t70 -90.5l-80 -27q-14 31 -48 51t-83 20q-55 0 -87 -24.5t-32 -67.5q0 -23 11.5 -42t36 -34t45.5 -24t58 -23q46 -17 76 -32.5t65 -41.5t53 -64.5t18 -87.5q0 -94 -64 -148t-166 -54z" />
    <glyph glyph-name="scircumflex" unicode="&#x15d;" horiz-adv-x="469" 
d="M333 576l-105 90l-105 -90h-83l147 156h82l146 -156h-82zM234 -12q-55 0 -104.5 23.5t-80.5 62.5l62 53q57 -61 125 -61q43 0 69 16.5t26 48.5q0 24 -19 43.5t-39 29t-59 24.5q-78 29 -118 65t-40 95q0 62 48.5 98.5t123.5 36.5q107 0 172 -77l-60 -50q-47 49 -113 49
q-39 0 -62 -15t-23 -42q0 -15 7.5 -27.5t27 -23.5t31 -16.5t42.5 -17.5q81 -29 123.5 -66t42.5 -104q0 -68 -49 -106.5t-133 -38.5z" />
    <glyph glyph-name="Scedilla" unicode="&#x15e;" horiz-adv-x="599" 
d="M297 -237q-59 0 -94 33l48 34q10 -13 38 -13q22 0 36.5 13.5t14.5 34.5q0 19 -17 32t-40 13q-24 0 -38 -7l-16 20l52 66q-82 5 -141.5 47.5t-81.5 107.5l82 30q21 -48 64 -75.5t100 -27.5q64 0 100.5 30t36.5 87q0 54 -41.5 87.5t-115.5 60.5q-47 17 -75 30.5t-62.5 37.5
t-51 57.5t-16.5 77.5q0 73 58 123t157 50q81 0 135 -34.5t70 -90.5l-80 -27q-14 31 -48 50.5t-83 19.5q-55 0 -86.5 -24t-31.5 -67t38 -69.5t112 -53.5q46 -17 76 -32t65 -41.5t53 -65t18 -87.5q0 -87 -54.5 -140t-143.5 -61l-25 -42q55 0 81 -24t26 -59q0 -44 -33.5 -72.5
t-85.5 -28.5z" />
    <glyph glyph-name="scedilla" unicode="&#x15f;" horiz-adv-x="469" 
d="M217 -237q-59 0 -94 33l48 34q10 -13 38 -13q22 0 36.5 13.5t14.5 34.5q0 19 -17 32t-40 13q-24 0 -38 -7l-16 20l53 67q-99 14 -153 84l62 53q57 -61 125 -61q43 0 69 16.5t26 48.5q0 9 -2 17t-7.5 15.5t-10.5 13t-15 12t-16 10t-20 10t-20 9l-22 9t-22 8.5
q-33 14 -53 25t-43 29.5t-33.5 42.5t-10.5 56q0 62 48.5 98.5t123.5 36.5q107 0 172 -77l-60 -50q-47 49 -113 49q-39 0 -62 -15t-23 -42q0 -20 18 -37t34.5 -24.5t57.5 -23.5q8 -3 12 -5q27 -11 44.5 -19t40 -22.5t35.5 -30t22.5 -40t9.5 -53.5q0 -64 -43.5 -102
t-118.5 -42l-25 -42q55 0 81 -24t26 -59q0 -44 -33.5 -72.5t-85.5 -28.5z" />
    <glyph glyph-name="Scaron" unicode="&#x160;" horiz-adv-x="599" 
d="M336 765h-83l-146 156h83l105 -90l105 90h82zM302 -12q-89 0 -154.5 43.5t-89.5 112.5l82 30q22 -48 65 -76t99 -28q64 0 101 30.5t37 87.5q0 55 -41.5 88t-116.5 60q-36 13 -59.5 23t-54 28.5t-48.5 38t-30.5 49t-12.5 64.5q0 73 58 123t157 50q81 0 135 -34.5t70 -90.5
l-80 -27q-14 31 -48 51t-83 20q-55 0 -87 -24.5t-32 -67.5q0 -23 11.5 -42t36 -34t45.5 -24t58 -23q46 -17 76 -32.5t65 -41.5t53 -64.5t18 -87.5q0 -94 -64 -148t-166 -54z" />
    <glyph glyph-name="scaron" unicode="&#x161;" horiz-adv-x="469" 
d="M269 576h-83l-146 156h83l105 -90l105 90h82zM234 -12q-55 0 -104.5 23.5t-80.5 62.5l62 53q57 -61 125 -61q43 0 69 16.5t26 48.5q0 24 -19 43.5t-39 29t-59 24.5q-78 29 -118 65t-40 95q0 62 48.5 98.5t123.5 36.5q107 0 172 -77l-60 -50q-47 49 -113 49q-39 0 -62 -15
t-23 -42q0 -15 7.5 -27.5t27 -23.5t31 -16.5t42.5 -17.5q81 -29 123.5 -66t42.5 -104q0 -68 -49 -106.5t-133 -38.5z" />
    <glyph glyph-name="uni0162" unicode="&#x162;" horiz-adv-x="583" 
d="M272 -237q-59 0 -94 33l49 34q10 -13 37 -13q22 0 37 13.5t15 34.5q0 19 -17.5 32t-40.5 13q-24 0 -38 -7l-16 20l62 77h-18v618h-195v82h477v-82h-195v-618h-18l-33 -53q55 0 81.5 -24t26.5 -59q0 -44 -33.5 -72.5t-86.5 -28.5z" />
    <glyph glyph-name="uni0163" unicode="&#x163;" horiz-adv-x="374" 
d="M184 -237q-59 0 -94 33l49 34q10 -13 37 -13q22 0 37 13.5t15 34.5q0 19 -17.5 32t-40.5 13q-24 0 -38 -7l-16 20l58 73q-61 24 -61 114v325h-83v76h83v169l87 42v-211h126v-76h-126v-296q0 -34 11 -52t42 -18q34 0 76 27l-10 -85q-39 -20 -86 -23h-12l-25 -41
q55 0 81.5 -24t26.5 -59q0 -44 -33.5 -72.5t-86.5 -28.5z" />
    <glyph glyph-name="Tcaron" unicode="&#x164;" horiz-adv-x="583" 
d="M333 765h-83l-146 156h83l105 -90l105 90h82zM335 617v-617h-87v617h-195v83h477v-83h-195z" />
    <glyph glyph-name="tcaron" unicode="&#x165;" horiz-adv-x="417" 
d="M398 840v-8q0 -140 -89 -228l-26 19q13 28 21.5 91.5t8.5 125.5h85zM221 -12q-108 0 -108 122v325h-83v76h83v169l87 42v-211h126v-76h-126v-296q0 -34 11 -52t42 -18q34 0 76 27l-10 -85q-44 -23 -98 -23z" />
    <glyph glyph-name="Tbar" unicode="&#x166;" horiz-adv-x="578" 
d="M525 617h-193v-258h124v-83h-124v-276h-87v276h-125v83h125v258h-192v83h472v-83z" />
    <glyph glyph-name="tbar" unicode="&#x167;" horiz-adv-x="394" 
d="M233 -12q-107 0 -107 122v117h-83v76h83v132h-83v76h83v169l87 42v-211h125v-76h-125v-132h125v-76h-125v-88q0 -34 11 -52t41 -18q33 0 77 27l-11 -85q-44 -23 -98 -23z" />
    <glyph glyph-name="Utilde" unicode="&#x168;" horiz-adv-x="689" 
d="M423 784q-38 0 -90.5 24.5t-74.5 24.5q-20 0 -33 -11.5t-14 -33.5h-45q0 120 99 120q38 0 90.5 -25t74.5 -25q19 0 32.5 12t14.5 34h45q0 -120 -99 -120zM344 -12q-251 0 -251 275v437h87v-437q0 -107 44 -150t120 -43t120.5 43t44.5 150v437h87v-437q0 -275 -252 -275z
" />
    <glyph glyph-name="utilde" unicode="&#x169;" 
d="M357 595q-38 0 -90.5 24.5t-74.5 24.5q-20 0 -33 -11.5t-14 -33.5h-45q0 120 99 120q38 0 90.5 -25t74.5 -25q19 0 32.5 12t14.5 34h45q0 -120 -99 -120zM393 0v49q-47 -61 -129 -61q-93 0 -139.5 54t-46.5 174v295h87v-308q0 -69 29.5 -101.5t80.5 -32.5q118 0 118 132
v310h87v-511h-87z" />
    <glyph glyph-name="Umacron" unicode="&#x16a;" horiz-adv-x="689" 
d="M179 792v74h330v-74h-330zM344 -12q-251 0 -251 275v437h87v-437q0 -107 44 -150t120 -43t120.5 43t44.5 150v437h87v-437q0 -275 -252 -275z" />
    <glyph glyph-name="umacron" unicode="&#x16b;" 
d="M113 603v74h330v-74h-330zM393 0v49q-47 -61 -129 -61q-93 0 -139.5 54t-46.5 174v295h87v-308q0 -69 29.5 -101.5t80.5 -32.5q118 0 118 132v310h87v-511h-87z" />
    <glyph glyph-name="Ubreve" unicode="&#x16c;" horiz-adv-x="689" 
d="M344 768q-90 0 -136 46t-46 117h78q0 -41 29 -65.5t75 -24.5q47 0 76 24.5t29 65.5h78q0 -71 -46 -117t-137 -46zM344 -12q-251 0 -251 275v437h87v-437q0 -107 44 -150t120 -43t120.5 43t44.5 150v437h87v-437q0 -275 -252 -275z" />
    <glyph glyph-name="ubreve" unicode="&#x16d;" 
d="M278 579q-90 0 -136 46t-46 117h78q0 -41 29 -65.5t75 -24.5q47 0 76 24.5t29 65.5h78q0 -71 -46 -117t-137 -46zM393 0v49q-47 -61 -129 -61q-93 0 -139.5 54t-46.5 174v295h87v-308q0 -69 29.5 -101.5t80.5 -32.5q118 0 118 132v310h87v-511h-87z" />
    <glyph glyph-name="Uring" unicode="&#x16e;" horiz-adv-x="689" 
d="M345 725q-49 0 -84 35t-35 83t35 82t84 34q48 0 83.5 -34t35.5 -82t-35.5 -83t-83.5 -35zM345 789q21 0 35.5 15.5t14.5 38.5q0 24 -14.5 38.5t-35.5 14.5t-36 -15t-15 -38t15 -38.5t36 -15.5zM344 -12q-251 0 -251 275v437h87v-437q0 -107 44 -150t120 -43t120.5 43
t44.5 150v437h87v-437q0 -275 -252 -275z" />
    <glyph glyph-name="uring" unicode="&#x16f;" 
d="M278 536q-49 0 -84 35t-35 83t35 82t84 34q48 0 83.5 -34t35.5 -82t-35.5 -83t-83.5 -35zM278 600q21 0 35.5 15.5t14.5 38.5q0 24 -14.5 38.5t-35.5 14.5q-22 0 -36.5 -14.5t-14.5 -38.5q0 -23 15 -38.5t36 -15.5zM393 0v49q-47 -61 -129 -61q-93 0 -139.5 54t-46.5 174
v295h87v-308q0 -69 29.5 -101.5t80.5 -32.5q118 0 118 132v310h87v-511h-87z" />
    <glyph glyph-name="Uhungarumlaut" unicode="&#x170;" horiz-adv-x="689" 
d="M257 765h-88l142 156h124zM461 765h-88l142 156h124zM344 -12q-251 0 -251 275v437h87v-437q0 -107 44 -150t120 -43t120.5 43t44.5 150v437h87v-437q0 -275 -252 -275z" />
    <glyph glyph-name="uhungarumlaut" unicode="&#x171;" 
d="M187 576h-88l142 156h124zM391 576h-88l142 156h124zM393 0v49q-47 -61 -129 -61q-93 0 -139.5 54t-46.5 174v295h87v-308q0 -69 29.5 -101.5t80.5 -32.5q118 0 118 132v310h87v-511h-87z" />
    <glyph glyph-name="Uogonek" unicode="&#x172;" horiz-adv-x="689" 
d="M371 -237q-50 0 -82.5 27t-32.5 74q0 77 86 124h-8q-241 7 -241 275v437h87v-437q0 -107 44 -150t122 -43q163 0 163 193v437h87v-437q0 -110 -36.5 -169.5t-103.5 -88.5q-127 -56 -127 -132q0 -27 15 -41t37 -14q29 0 48 21l45 -33q-39 -43 -103 -43z" />
    <glyph glyph-name="uogonek" unicode="&#x173;" 
d="M395 -237q-50 0 -82.5 27t-32.5 74q0 89 113 136v49q-47 -61 -129 -61q-93 0 -139.5 54t-46.5 174v295h87v-308q0 -69 29.5 -101.5t80.5 -32.5q118 0 118 132v310h87v-511q-64 -19 -95.5 -53.5t-31.5 -73.5q0 -27 15 -41t37 -14q29 0 48 21l45 -33q-39 -43 -103 -43z" />
    <glyph glyph-name="Wcircumflex" unicode="&#x174;" horiz-adv-x="840" 
d="M525 765l-105 90l-105 -90h-83l147 156h82l146 -156h-82zM193 0l-143 700h91l86 -456q9 -45 13 -75q0 1 19 74l124 457h69l125 -456q12 -45 16 -68q4 26 13 69l95 455h89l-152 -700h-69l-135 478q-15 55 -18 69q-5 -27 -17 -69l-135 -478h-71z" />
    <glyph glyph-name="wcircumflex" unicode="&#x175;" horiz-adv-x="715" 
d="M463 576l-105 90l-105 -90h-83l147 156h82l146 -156h-82zM169 0l-131 511h86l78 -343q1 -6 5 -25l6 -29q2 14 13 54l96 343h72l96 -343l14 -56q2 9 5.5 28t5.5 28l77 343h86l-131 -511h-78l-93 303q-14 45 -19 67q-10 -42 -18 -67l-92 -303h-78z" />
    <glyph glyph-name="Ycircumflex" unicode="&#x176;" horiz-adv-x="641" 
d="M426 765l-105 90l-105 -90h-83l147 156h82l146 -156h-82zM278 0v275l-238 425h98l183 -340l185 340h95l-236 -423v-277h-87z" />
    <glyph glyph-name="ycircumflex" unicode="&#x177;" horiz-adv-x="530" 
d="M368 576l-105 90l-105 -90h-83l147 156h82l146 -156h-82zM144 -194l78 207l-189 498h87l127 -348q7 -17 16 -49q9 32 16 49l129 348h89l-265 -705h-88z" />
    <glyph glyph-name="Ydieresis" unicode="&#x178;" horiz-adv-x="641" 
d="M234 788q-23 0 -39 16t-16 39t16 39t39 16t39 -16t16 -39t-16 -39t-39 -16zM407 788q-23 0 -39 16t-16 39t16 39t39 16t39 -16t16 -39t-16 -39t-39 -16zM278 0v275l-238 425h98l183 -340l185 340h95l-236 -423v-277h-87z" />
    <glyph glyph-name="Zacute" unicode="&#x179;" horiz-adv-x="650" 
d="M239 765l142 156h124l-178 -156h-88zM63 0v67l406 550h-383v83h496v-67l-404 -550h404v-83h-519z" />
    <glyph glyph-name="zacute" unicode="&#x17a;" horiz-adv-x="505" 
d="M161 576l142 156h124l-178 -156h-88zM63 0v64l266 370h-246v77h355v-62l-267 -371h266v-78h-374z" />
    <glyph glyph-name="Zdotaccent" unicode="&#x17b;" horiz-adv-x="650" 
d="M334 788q-23 0 -39 16t-16 39t16 39t39 16t39 -16t16 -39t-16 -39t-39 -16zM63 0v67l406 550h-383v83h496v-67l-404 -550h404v-83h-519z" />
    <glyph glyph-name="zdotaccent" unicode="&#x17c;" horiz-adv-x="505" 
d="M258 599q-23 0 -39 16t-16 39t16 39t39 16t39 -16t16 -39t-16 -39t-39 -16zM63 0v64l266 370h-246v77h355v-62l-267 -371h266v-78h-374z" />
    <glyph glyph-name="Zcaron" unicode="&#x17d;" horiz-adv-x="650" 
d="M388 765h-83l-146 156h83l105 -90l105 90h82zM63 0v67l406 550h-383v83h496v-67l-404 -550h404v-83h-519z" />
    <glyph glyph-name="zcaron" unicode="&#x17e;" horiz-adv-x="505" 
d="M299 576h-83l-146 156h83l105 -90l105 90h82zM63 0v64l266 370h-246v77h355v-62l-267 -371h266v-78h-374z" />
    <glyph glyph-name="longs" unicode="&#x17f;" horiz-adv-x="306" 
d="M88 0v596q0 62 31.5 89t79.5 27q50 0 95 -24v-73q-40 19 -73 19q-28 0 -37 -13.5t-9 -39.5v-581h-87z" />
    <glyph glyph-name="florin" unicode="&#x192;" horiz-adv-x="367" 
d="M44 -229l-43 69q73 12 102.5 40t29.5 77v478h-79v76h79v85q0 62 32 89t80 27q51 0 94 -24v-72q-45 18 -73 18q-27 0 -36.5 -14t-9.5 -39v-70h119v-76h-119v-459q0 -94 -45.5 -142.5t-130.5 -62.5z" />
    <glyph glyph-name="uni01CD" unicode="&#x1cd;" horiz-adv-x="679" 
d="M381 765h-83l-146 156h83l105 -90l105 90h82zM539 0l-60 171h-278l-59 -171h-91l248 700h81l248 -700h-89zM452 248l-90 259q-17 49 -22 71q-11 -39 -22 -71l-91 -259h225z" />
    <glyph glyph-name="uni01CE" unicode="&#x1ce;" horiz-adv-x="526" 
d="M317 576h-83l-146 156h83l105 -90l105 90h82zM376 0v47q-63 -59 -145 -59q-81 0 -129.5 44.5t-48.5 127.5t55 126t136 43q74 0 132 -33v36q0 64 -28.5 89.5t-82.5 25.5q-77 0 -149 -51l-25 73q82 54 185 54q182 0 182 -184v-339h-82zM244 65q75 0 132 67v88
q-55 34 -120 34q-53 0 -87 -24t-34 -70q0 -43 28.5 -69t80.5 -26z" />
    <glyph glyph-name="uni01CF" unicode="&#x1cf;" horiz-adv-x="287" 
d="M185 765h-83l-146 156h83l105 -90l105 90h82zM100 0v700h87v-700h-87z" />
    <glyph glyph-name="uni01D0" unicode="&#x1d0;" horiz-adv-x="254" 
d="M168 576h-83l-146 156h83l105 -90l105 90h82zM84 0v511h87v-511h-87z" />
    <glyph glyph-name="uni01D1" unicode="&#x1d1;" horiz-adv-x="730" 
d="M406 765h-83l-146 156h83l105 -90l105 90h82zM365 -12q-79 0 -138.5 31.5t-93 85t-49.5 115t-16 130.5t16 130.5t49.5 115t93 85t138.5 31.5q64 0 115.5 -21t85 -56t56 -83t32 -98t9.5 -104t-9.5 -104t-32 -98t-56 -83t-85 -56t-115.5 -21zM365 70q55 0 97 25.5t65 67.5
t34 89.5t11 97.5q0 74 -18.5 134.5t-67 103.5t-121.5 43q-55 0 -96.5 -25.5t-64.5 -68t-34.5 -89.5t-11.5 -98q0 -54 11 -102t34.5 -89t65 -65t96.5 -24z" />
    <glyph glyph-name="uni01D2" unicode="&#x1d2;" horiz-adv-x="558" 
d="M320 576h-83l-146 156h83l105 -90l105 90h82zM279 -12q-104 0 -165 71t-61 196t61 196.5t165 71.5t165 -71t61 -196t-61 -196.5t-165 -71.5zM279 69q65 0 101.5 49.5t36.5 137.5q0 87 -36.5 137t-101.5 50t-101.5 -49.5t-36.5 -138.5q0 -87 36.5 -136.5t101.5 -49.5z" />
    <glyph glyph-name="uni01D3" unicode="&#x1d3;" horiz-adv-x="689" 
d="M386 765h-83l-146 156h83l105 -90l105 90h82zM344 -12q-251 0 -251 275v437h87v-437q0 -107 44 -150t120 -43t120.5 43t44.5 150v437h87v-437q0 -275 -252 -275z" />
    <glyph glyph-name="uni01D4" unicode="&#x1d4;" 
d="M317 576h-83l-146 156h83l105 -90l105 90h82zM393 0v49q-47 -61 -129 -61q-93 0 -139.5 54t-46.5 174v295h87v-308q0 -69 29.5 -101.5t80.5 -32.5q118 0 118 132v310h87v-511h-87z" />
    <glyph glyph-name="AEacute" unicode="&#x1fc;" horiz-adv-x="854" 
d="M389 765l142 156h124l-178 -156h-88zM-14 0l407 700h383v-82h-273v-215h171v-82h-171v-238h295v-83h-382v171h-237l-97 -171h-96zM223 249h193v345q-11 -24 -36 -68z" />
    <glyph glyph-name="aeacute" unicode="&#x1fd;" horiz-adv-x="857" 
d="M339 576l142 156h124l-178 -156h-88zM231 -12q-81 0 -129.5 44.5t-48.5 127.5t55 126t136 43q74 0 132 -33v36q0 61 -27.5 88t-83.5 27q-77 0 -149 -51l-25 73q82 54 185 54q112 0 154 -76q61 76 168 76q95 0 153.5 -63t58.5 -180q0 -28 -3 -58h-346q6 -72 44.5 -113.5
t94.5 -41.5q65 0 111 46l53 -59q-66 -66 -166 -66q-116 0 -180 95q-38 -49 -89 -72t-98 -23zM460 298h262q-1 78 -38 113t-85 35q-59 0 -97 -37t-42 -111zM244 65q42 0 78.5 22.5t60.5 55.5q-5 34 -7 77q-58 34 -120 34q-53 0 -87 -24t-34 -70q0 -43 28.5 -69t80.5 -26z" />
    <glyph glyph-name="Oslashacute" unicode="&#x1fe;" horiz-adv-x="725" 
d="M250 765l142 156h124l-178 -156h-88zM74 -12l68 101q-77 98 -77 261q0 54 9.5 104t32 98t56 83t85 56t115.5 21q96 0 166 -49l33 49h90l-69 -101q77 -98 77 -261q0 -69 -16 -130.5t-49.5 -115t-93 -85t-138.5 -31.5q-98 0 -167 50l-34 -50h-88zM196 169l285 422
q-50 40 -118 40q-55 0 -97 -25.5t-65 -68t-34 -89.5t-11 -98q0 -111 40 -181zM363 70q55 0 96.5 25.5t64.5 67.5t34.5 89.5t11.5 97.5q0 109 -41 181l-285 -422q49 -39 119 -39z" />
    <glyph glyph-name="oslashacute" unicode="&#x1ff;" horiz-adv-x="558" 
d="M432 732l-178 -156h-88l142 156h124zM505 523l-55 -79q55 -71 55 -188q0 -125 -61 -196.5t-165 -71.5q-70 0 -123 34l-24 -34h-79l55 79q-55 71 -55 188q0 125 61 196.5t165 71.5q71 0 122 -33l23 33h81zM141 255q0 -67 21 -110l191 276q-31 22 -74 22
q-65 0 -101.5 -49.5t-36.5 -138.5zM417 256q0 66 -21 111l-192 -275q32 -23 75 -23q65 0 101.5 49.5t36.5 137.5z" />
    <glyph glyph-name="Scommaaccent" unicode="&#x218;" horiz-adv-x="599" 
d="M302 -12q-89 0 -154.5 43.5t-89.5 112.5l82 30q22 -48 65 -76t99 -28q64 0 101 30.5t37 87.5q0 55 -41.5 88t-116.5 60q-36 13 -59.5 23t-54 28.5t-48.5 38t-30.5 49t-12.5 64.5q0 73 58 123t157 50q81 0 135 -34.5t70 -90.5l-80 -27q-14 31 -48 51t-83 20
q-55 0 -87 -24.5t-32 -67.5q0 -23 11.5 -42t36 -34t45.5 -24t58 -23q46 -17 76 -32.5t65 -41.5t53 -64.5t18 -87.5q0 -94 -64 -148t-166 -54zM257 -241q35 30 45 72q-27 0 -43.5 16.5t-16.5 41.5q0 26 17.5 42.5t40.5 16.5q25 0 43 -17.5t18 -47.5q0 -83 -78 -137z" />
    <glyph glyph-name="scommaaccent" unicode="&#x219;" horiz-adv-x="469" 
d="M234 -12q-55 0 -104.5 23.5t-80.5 62.5l62 53q57 -61 125 -61q43 0 69 16.5t26 48.5q0 24 -19 43.5t-39 29t-59 24.5q-78 29 -118 65t-40 95q0 62 48.5 98.5t123.5 36.5q107 0 172 -77l-60 -50q-47 49 -113 49q-39 0 -62 -15t-23 -42q0 -15 7.5 -27.5t27 -23.5t31 -16.5
t42.5 -17.5q81 -29 123.5 -66t42.5 -104q0 -68 -49 -106.5t-133 -38.5zM192 -241q35 30 45 72q-27 0 -43.5 16.5t-16.5 41.5q0 26 17.5 42.5t40.5 16.5q25 0 43 -17.5t18 -47.5q0 -83 -78 -137z" />
    <glyph glyph-name="uni021A" unicode="&#x21a;" horiz-adv-x="583" 
d="M335 617v-617h-87v617h-195v83h477v-83h-195zM249 -241q35 30 45 72q-27 0 -43.5 16.5t-16.5 41.5q0 26 17.5 42.5t40.5 16.5q25 0 43 -17.5t18 -47.5q0 -83 -78 -137z" />
    <glyph glyph-name="uni021B" unicode="&#x21b;" horiz-adv-x="374" 
d="M221 -12q-108 0 -108 122v325h-83v76h83v169l87 42v-211h126v-76h-126v-296q0 -34 11 -52t42 -18q34 0 76 27l-10 -85q-44 -23 -98 -23zM173 -241q35 30 45 72q-27 0 -43.5 16.5t-16.5 41.5q0 26 17.5 42.5t40.5 16.5q25 0 43 -17.5t18 -47.5q0 -83 -78 -137z" />
    <glyph glyph-name="uni0237" unicode="&#x237;" horiz-adv-x="254" 
d="M-6 -214l-41 66q74 12 102.5 38t28.5 74v547h87v-515q0 -93 -38 -138q-48 -59 -139 -72z" />
    <glyph glyph-name="circumflex" unicode="&#x2c6;" horiz-adv-x="368" 
d="M290 576l-105 90l-105 -90h-83l147 156h82l146 -156h-82z" />
    <glyph glyph-name="caron" unicode="&#x2c7;" horiz-adv-x="368" 
d="M226 576h-83l-146 156h83l105 -90l105 90h82z" />
    <glyph glyph-name="uni02C9" unicode="&#x2c9;" horiz-adv-x="368" 
d="M19 603v74h330v-74h-330z" />
    <glyph glyph-name="breve" unicode="&#x2d8;" horiz-adv-x="368" 
d="M184 579q-90 0 -136 46t-46 117h78q0 -41 29 -65.5t75 -24.5q47 0 76 24.5t29 65.5h78q0 -71 -46 -117t-137 -46z" />
    <glyph glyph-name="dotaccent" unicode="&#x2d9;" horiz-adv-x="368" 
d="M184 599q-23 0 -39 16t-16 39t16 39t39 16t39 -16t16 -39t-16 -39t-39 -16z" />
    <glyph glyph-name="ring" unicode="&#x2da;" horiz-adv-x="368" 
d="M185 536q-49 0 -84 35t-35 83t35 82t84 34q48 0 83.5 -34t35.5 -82t-35.5 -83t-83.5 -35zM185 600q21 0 35.5 15.5t14.5 38.5q0 24 -14.5 38.5t-35.5 14.5t-36 -14.5t-15 -38.5q0 -23 15 -38.5t36 -15.5z" />
    <glyph glyph-name="ogonek" unicode="&#x2db;" horiz-adv-x="368" 
d="M190 -237q-50 0 -82.5 27t-32.5 74q0 49 36 87t101 59h65q-65 -27 -97 -63t-32 -74q0 -27 15 -41t37 -14q29 0 48 21l45 -33q-39 -43 -103 -43z" />
    <glyph glyph-name="tilde" unicode="&#x2dc;" horiz-adv-x="368" 
d="M263 595q-38 0 -90.5 24.5t-74.5 24.5q-20 0 -33 -11.5t-14 -33.5h-45q0 120 99 120q38 0 90.5 -25t74.5 -25q19 0 32.5 12t14.5 34h45q0 -120 -99 -120z" />
    <glyph glyph-name="hungarumlaut" unicode="&#x2dd;" horiz-adv-x="368" 
d="M127 576h-88l142 156h124zM331 576h-88l142 156h124z" />
    <glyph glyph-name="uni0312" unicode="&#x312;" horiz-adv-x="0" 
d="M-183 597q-25 0 -43 18t-18 48q0 83 78 137l26 -14q-35 -27 -45 -72q27 0 43.5 -16.5t16.5 -40.5q0 -26 -17.5 -43t-40.5 -17z" />
    <glyph glyph-name="uni0326" unicode="&#x326;" horiz-adv-x="0" 
d="M-226 -241q35 30 45 72q-27 0 -43.5 16.5t-16.5 41.5q0 26 17.5 42.5t40.5 16.5q25 0 43 -17.5t18 -47.5q0 -83 -78 -137z" />
    <glyph glyph-name="uni03A9" unicode="&#x3a9;" horiz-adv-x="744" 
d="M433 0v81q70 77 100.5 143.5t30.5 164.5q0 63 -17 115t-62 89.5t-113 37.5q-98 0 -145 -71t-47 -172q0 -97 30.5 -163.5t100.5 -143.5v-81h-228v82h155q-149 102 -149 308q0 47 9 91.5t30.5 86.5t53.5 74t81 51t109 19q61 0 110 -19t80.5 -50.5t52.5 -74.5t30 -87t9 -91
q0 -205 -149 -308h157v-82h-229z" />
    <glyph glyph-name="uni03BC" unicode="&#x3bc;" horiz-adv-x="565" 
d="M396 0v50q-55 -62 -131 -62q-64 0 -98 51v-198l-87 -41v711h87v-308q0 -77 27.5 -105.5t83.5 -28.5q118 0 118 132v310h87v-511h-87z" />
    <glyph glyph-name="pi" unicode="&#x3c0;" horiz-adv-x="669" 
d="M511 -12q-55 0 -81.5 32.5t-26.5 89.5v310h-153v-51q0 -157 -26.5 -251.5t-105.5 -138.5l-74 58q28 17 46.5 34.5t38 49.5t29 83.5t9.5 123.5v92h-96v91h544v-91h-124v-281q0 -34 10.5 -52.5t41.5 -18.5q37 0 77 27l-12 -84q-44 -23 -97 -23z" />
    <glyph glyph-name="Wgrave" unicode="&#x1e80;" horiz-adv-x="840" 
d="M445 765l-178 156h124l142 -156h-88zM193 0l-143 700h91l86 -456q9 -45 13 -75q0 1 19 74l124 457h69l125 -456q12 -45 16 -68q4 26 13 69l95 455h89l-152 -700h-69l-135 478q-15 55 -18 69q-5 -27 -17 -69l-135 -478h-71z" />
    <glyph glyph-name="wgrave" unicode="&#x1e81;" horiz-adv-x="715" 
d="M383 576l-178 156h124l142 -156h-88zM169 0l-131 511h86l78 -343q1 -6 5 -25l6 -29q2 14 13 54l96 343h72l96 -343l14 -56q2 9 5.5 28t5.5 28l77 343h86l-131 -511h-78l-93 303q-14 45 -19 67q-10 -42 -18 -67l-92 -303h-78z" />
    <glyph glyph-name="Wacute" unicode="&#x1e82;" horiz-adv-x="840" 
d="M307 765l142 156h124l-178 -156h-88zM193 0l-143 700h91l86 -456q9 -45 13 -75q0 1 19 74l124 457h69l125 -456q12 -45 16 -68q4 26 13 69l95 455h89l-152 -700h-69l-135 478q-15 55 -18 69q-5 -27 -17 -69l-135 -478h-71z" />
    <glyph glyph-name="wacute" unicode="&#x1e83;" horiz-adv-x="715" 
d="M245 576l142 156h124l-178 -156h-88zM169 0l-131 511h86l78 -343q1 -6 5 -25l6 -29q2 14 13 54l96 343h72l96 -343l14 -56q2 9 5.5 28t5.5 28l77 343h86l-131 -511h-78l-93 303q-14 45 -19 67q-10 -42 -18 -67l-92 -303h-78z" />
    <glyph glyph-name="Wdieresis" unicode="&#x1e84;" horiz-adv-x="840" 
d="M333 788q-23 0 -39 16t-16 39t16 39t39 16t39 -16t16 -39t-16 -39t-39 -16zM506 788q-23 0 -39 16t-16 39t16 39t39 16t39 -16t16 -39t-16 -39t-39 -16zM193 0l-143 700h91l86 -456q9 -45 13 -75q0 1 19 74l124 457h69l125 -456q12 -45 16 -68q4 26 13 69l95 455h89
l-152 -700h-69l-135 478q-15 55 -18 69q-5 -27 -17 -69l-135 -478h-71z" />
    <glyph glyph-name="wdieresis" unicode="&#x1e85;" horiz-adv-x="715" 
d="M271 599q-23 0 -39 16t-16 39t16 39t39 16t39 -16t16 -39t-16 -39t-39 -16zM444 599q-23 0 -39 16t-16 39t16 39t39 16t39 -16t16 -39t-16 -39t-39 -16zM169 0l-131 511h86l78 -343q1 -6 5 -25l6 -29q2 14 13 54l96 343h72l96 -343l14 -56q2 9 5.5 28t5.5 28l77 343h86
l-131 -511h-78l-93 303q-14 45 -19 67q-10 -42 -18 -67l-92 -303h-78z" />
    <glyph glyph-name="Ygrave" unicode="&#x1ef2;" horiz-adv-x="641" 
d="M315 765l-178 156h124l142 -156h-88zM278 0v275l-238 425h98l183 -340l185 340h95l-236 -423v-277h-87z" />
    <glyph glyph-name="ygrave" unicode="&#x1ef3;" horiz-adv-x="530" 
d="M288 576l-178 156h124l142 -156h-88zM144 -194l78 207l-189 498h87l127 -348q7 -17 16 -49q9 32 16 49l129 348h89l-265 -705h-88z" />
    <glyph glyph-name="endash" unicode="&#x2013;" horiz-adv-x="510" 
d="M58 250v75h395v-75h-395z" />
    <glyph glyph-name="emdash" unicode="&#x2014;" horiz-adv-x="590" 
d="M3 250v75h585v-75h-585z" />
    <glyph glyph-name="uni2015" unicode="&#x2015;" horiz-adv-x="590" 
d="M3 250v75h585v-75h-585z" />
    <glyph glyph-name="quoteleft" unicode="&#x2018;" horiz-adv-x="225" 
d="M115 450q-32 0 -54 22.5t-22 64.5q0 55 28 101.5t72 73.5l29 -15q-18 -16 -36 -46t-20 -64q30 -2 50 -20t20 -46q0 -32 -19.5 -51.5t-47.5 -19.5z" />
    <glyph glyph-name="quoteright" unicode="&#x2019;" horiz-adv-x="225" 
d="M57 465q18 16 36 46t20 64q-30 2 -50 20t-20 46q0 32 19.5 51.5t47.5 19.5q32 0 54 -22.5t22 -64.5q0 -55 -28 -101.5t-72 -73.5z" />
    <glyph glyph-name="quotesinglbase" unicode="&#x201a;" horiz-adv-x="225" 
d="M57 -126q18 16 36 46t20 64q-30 2 -50 20.5t-20 46.5q0 31 19.5 51t47.5 20q32 0 54 -22.5t22 -65.5q0 -55 -28 -101.5t-72 -73.5z" />
    <glyph glyph-name="quotereversed" unicode="&#x201b;" horiz-adv-x="225" 
d="M139 450q-44 27 -72 73.5t-28 101.5q0 42 22 64.5t54 22.5q28 0 47.5 -19.5t19.5 -51.5q0 -28 -20 -46t-50 -20q2 -34 20 -64t36 -46z" />
    <glyph glyph-name="quotedblleft" unicode="&#x201c;" horiz-adv-x="434" 
d="M115 450q-32 0 -54 22.5t-22 64.5q0 55 28 101.5t72 73.5l29 -15q-18 -16 -36 -46t-20 -64q30 -2 50 -20t20 -46q0 -32 -19.5 -51.5t-47.5 -19.5zM324 450q-31 0 -53 22.5t-22 64.5q0 55 27.5 101.5t71.5 73.5l29 -15q-51 -46 -55 -110q29 -2 49.5 -20t20.5 -46
q0 -32 -20 -51.5t-48 -19.5z" />
    <glyph glyph-name="quotedblright" unicode="&#x201d;" horiz-adv-x="434" 
d="M57 465q18 16 36 46t20 64q-30 2 -50 20t-20 46q0 32 19.5 51.5t47.5 19.5q32 0 54 -22.5t22 -64.5q0 -55 -28 -101.5t-72 -73.5zM267 465q51 46 55 110q-29 2 -49.5 20t-20.5 46q0 32 20 51.5t48 19.5q31 0 53 -22.5t22 -64.5q0 -55 -27.5 -101.5t-71.5 -73.5z" />
    <glyph glyph-name="quotedblbase" unicode="&#x201e;" horiz-adv-x="434" 
d="M57 -126q18 16 36 46t20 64q-30 2 -50 20.5t-20 46.5q0 31 19.5 51t47.5 20q32 0 54 -22.5t22 -65.5q0 -55 -28 -101.5t-72 -73.5zM267 -126q51 46 55 110q-29 2 -49.5 20.5t-20.5 46.5q0 31 20 51t48 20q31 0 53 -23t22 -65q0 -55 -27.5 -101.5t-71.5 -73.5z" />
    <glyph glyph-name="dagger" unicode="&#x2020;" horiz-adv-x="560" 
d="M312 448l12 -111l-31 -478h-23l-34 478l10 111l-128 -17h-45v84h45l126 -19l-8 91v125h88v-125l-10 -91l128 19h46v-84h-46z" />
    <glyph glyph-name="daggerdbl" unicode="&#x2021;" horiz-adv-x="560" 
d="M488 56h-46l-128 19l10 -91v-125h-88v125l8 91l-126 -19h-45v85h45l128 -19l-10 112v103l10 111l-128 -17h-45v84h45l126 -19l-8 91v125h88v-125l-10 -91l128 19h46v-84h-46l-130 17l12 -111v-103l-12 -112l130 19h46v-85z" />
    <glyph glyph-name="bullet" unicode="&#x2022;" horiz-adv-x="411" 
d="M205 218q-59 0 -98 38.5t-39 93.5q0 56 39 95t98 39q58 0 98.5 -39t40.5 -95q0 -55 -40.5 -93.5t-98.5 -38.5z" />
    <glyph glyph-name="ellipsis" unicode="&#x2026;" horiz-adv-x="941" 
d="M162 -13q-27 0 -45.5 19t-18.5 44q0 26 18.5 45t45.5 19t45.5 -19t18.5 -45q0 -25 -18.5 -44t-45.5 -19zM470 -13q-27 0 -45.5 19t-18.5 44q0 26 18.5 45t45.5 19t46 -19t19 -45q0 -25 -19 -44t-46 -19zM779 -13q-27 0 -45.5 19t-18.5 44q0 26 18.5 45t45.5 19t46 -19
t19 -45q0 -25 -19 -44t-46 -19z" />
    <glyph glyph-name="perthousand" unicode="&#x2030;" horiz-adv-x="1256" 
d="M213 356q-82 0 -121.5 53t-39.5 125q0 69 40 123.5t121 54.5t120.5 -52.5t39.5 -125.5q0 -43 -14 -81t-52 -67.5t-94 -29.5zM238 -12h-84l478 724h84zM213 425q41 0 63.5 31.5t22.5 77.5q0 50 -22 79.5t-64 29.5q-43 0 -64.5 -30.5t-21.5 -78.5q0 -49 21.5 -79t64.5 -30z
M657 -12q-81 0 -120.5 53t-39.5 125q0 68 39.5 123t120.5 55q82 0 121.5 -52.5t39.5 -125.5q0 -43 -14 -81t-52 -67.5t-95 -29.5zM1043 -12q-81 0 -120.5 53t-39.5 125q0 68 39.5 123t120.5 55q82 0 121.5 -52.5t39.5 -125.5q0 -43 -14 -81t-52 -67.5t-95 -29.5zM657 57
q42 0 64 31t22 78q0 50 -22 79.5t-64 29.5t-64 -30.5t-22 -78.5q0 -49 22 -79t64 -30zM1043 57q42 0 64 31t22 78q0 50 -22 79.5t-64 29.5t-64 -30.5t-22 -78.5q0 -49 22 -79t64 -30z" />
    <glyph glyph-name="minute" unicode="&#x2032;" horiz-adv-x="218" 
d="M43 418l20 312h112l-61 -312h-71z" />
    <glyph glyph-name="second" unicode="&#x2033;" horiz-adv-x="418" 
d="M43 418l20 312h112l-61 -312h-71zM243 418l20 312h112l-61 -312h-71z" />
    <glyph glyph-name="guilsinglleft" unicode="&#x2039;" horiz-adv-x="308" 
d="M190 0l-152 256l152 255h95l-152 -255l152 -256h-95z" />
    <glyph glyph-name="guilsinglright" unicode="&#x203a;" horiz-adv-x="308" 
d="M23 0l152 256l-152 255h95l152 -255l-152 -256h-95z" />
    <glyph glyph-name="fraction" unicode="&#x2044;" horiz-adv-x="329" 
d="M-116 -12l479 724h82l-479 -724h-82z" />
    <glyph glyph-name="uni207F" unicode="&#x207f;" horiz-adv-x="459" 
d="M316 283v245q0 109 -80 109q-86 0 -86 -106v-248h-82v419h82v-47q40 57 112 57q67 0 101 -44.5t34 -143.5v-241h-81z" />
    <glyph glyph-name="afii08941" unicode="&#x20a4;" horiz-adv-x="589" 
d="M86 0v80q74 49 85 144h-88v72h93q-1 29 -17 66h-76v73h46q-15 40 -15 80q0 82 59 139.5t169 57.5q117 0 206 -67l-34 -81q-25 20 -39 30t-51.5 22.5t-81.5 12.5q-67 0 -101.5 -34t-34.5 -80q0 -35 20 -80h193v-73h-163q11 -33 12 -66h151v-72h-159q-17 -79 -87 -141h386
v-83h-473z" />
    <glyph glyph-name="Euro" unicode="&#x20ac;" horiz-adv-x="619" 
d="M375 -12q-208 0 -251 237h-82l32 73h41q-1 17 -1 51q0 26 1 40h-72l32 73h49q21 109 85.5 179.5t176.5 70.5q96 0 173 -53l-34 -82q-60 53 -140 53q-134 0 -168 -168h260l-30 -73h-240q-2 -17 -2 -48q0 -29 2 -43h203l-30 -73h-162q37 -154 156 -154q83 0 134 72l71 -45
q-30 -49 -82 -79.5t-122 -30.5z" />
    <glyph glyph-name="uni2105" unicode="&#x2105;" horiz-adv-x="1031" 
d="M236 272q-85 0 -131.5 58.5t-46.5 161.5t48 161.5t131 58.5q119 0 154 -102l-78 -28q-17 55 -77 55q-48 0 -73 -38t-25 -107t25 -106.5t71 -37.5q63 0 84 60l72 -24q-33 -112 -154 -112zM216 -12l478 724h85l-478 -724h-85zM782 -12q-88 0 -139 58.5t-51 161.5t51 161.5
t139 58.5t139.5 -58.5t51.5 -161.5t-51.5 -161.5t-139.5 -58.5zM782 63q54 0 82.5 38t28.5 107t-28.5 107t-82.5 38q-51 0 -80.5 -38t-29.5 -107t29.5 -107t80.5 -38z" />
    <glyph glyph-name="uni2113" unicode="&#x2113;" horiz-adv-x="459" 
d="M247 -12q-47 0 -76 28t-29 91v129q-2 -1 -51 -28l-28 70q44 18 79 43v192q0 107 34.5 153t98.5 46q57 0 94.5 -39t37.5 -111q0 -42 -13 -81t-29 -65t-45 -55.5t-44.5 -42.5t-45.5 -35v-136q0 -47 14 -62.5t42 -15.5q37 0 68 36l23 -55q-21 -27 -56 -44.5t-74 -17.5z
M275 636q-24 0 -34.5 -26t-10.5 -101v-137q89 79 89 174q0 90 -44 90z" />
    <glyph glyph-name="uni2116" unicode="&#x2116;" horiz-adv-x="1196" 
d="M922 273q-88 0 -139 58t-51 161t51 161.5t139 58.5t139.5 -58.5t51.5 -161.5t-51 -161t-140 -58zM610 0h-84l-315 500q-18 29 -28 49q2 -30 2 -49v-500h-87v700h88l310 -498q16 -26 29 -52q-2 36 -2 51v499h87v-700zM922 348q54 0 82.5 37.5t28.5 106.5q0 70 -28.5 107.5
t-82.5 37.5q-51 0 -80.5 -38t-29.5 -107q0 -68 29.5 -106t80.5 -38zM739 124v67h367v-67h-367z" />
    <glyph glyph-name="trademark" unicode="&#x2122;" horiz-adv-x="794" 
d="M141 278v360h-113v62h291v-62h-112v-360h-66zM716 278h-65v248l-13 -32l-100 -223l-101 223l-14 34v-250h-65v422h59l111 -249l9 -25l10 25l111 249h58v-422z" />
    <glyph glyph-name="uni2126" unicode="&#x2126;" horiz-adv-x="744" 
d="M433 0v81q70 77 100.5 143.5t30.5 164.5q0 63 -17 115t-62 89.5t-113 37.5q-98 0 -145 -71t-47 -172q0 -97 30.5 -163.5t100.5 -143.5v-81h-228v82h155q-149 102 -149 308q0 47 9 91.5t30.5 86.5t53.5 74t81 51t109 19q61 0 110 -19t80.5 -50.5t52.5 -74.5t30 -87t9 -91
q0 -205 -149 -308h157v-82h-229z" />
    <glyph glyph-name="estimated" unicode="&#x212e;" horiz-adv-x="810" 
d="M410 -12q-145 0 -245 100t-100 262q0 89 29 160t78 115t111 67t130 23q135 0 230 -96t102 -272h-516v-217q25 -33 73 -55t109 -22q150 0 238 136l54 -33q-54 -83 -123 -125.5t-170 -42.5zM229 411l357 1v164q-27 33 -75 54t-101 21q-111 0 -181 -67v-173z" />
    <glyph glyph-name="uni2153" unicode="&#x2153;" horiz-adv-x="722" 
d="M12 -12l478 724h82l-478 -724h-82zM76 283v329h-51v52q52 0 69 41h54v-422h-72zM540 -10q-56 0 -95 30t-57 83l68 23q24 -72 86 -72q32 0 50.5 17.5t18.5 46.5q0 27 -17.5 46.5t-49.5 19.5h-32v64h26q29 0 43 17t14 42t-15 41.5t-43 16.5q-48 0 -71 -56l-67 23
q18 44 55.5 70.5t85.5 26.5q59 0 94.5 -32.5t35.5 -84.5q0 -27 -14.5 -52t-38.5 -38q32 -12 50.5 -38.5t18.5 -61.5q0 -61 -40.5 -96.5t-105.5 -35.5z" />
    <glyph glyph-name="uni2154" unicode="&#x2154;" horiz-adv-x="880" 
d="M33 283q0 79 37.5 128.5t109.5 92.5q32 19 48 37.5t16 47.5q0 23 -17.5 41t-50.5 18q-63 0 -77 -68l-66 20q11 50 50 81t97 31q62 0 100 -34.5t38 -91.5q0 -51 -27.5 -82t-87.5 -65q-68 -39 -89 -89h203v-67h-284zM171 -12l478 724h82l-478 -724h-82zM699 -10
q-56 0 -95.5 30t-57.5 83l69 23q23 -72 85 -72q32 0 51 17.5t19 46.5q0 27 -18 46.5t-49 19.5h-33v64h26q29 0 43.5 17t14.5 42t-15.5 41.5t-42.5 16.5q-49 0 -72 -56l-66 23q18 44 55 70.5t86 26.5q58 0 94 -33t36 -84q0 -26 -14.5 -51.5t-38.5 -38.5q31 -12 50 -38.5
t19 -61.5q0 -61 -40.5 -96.5t-105.5 -35.5z" />
    <glyph glyph-name="oneeighth" unicode="&#x215b;" horiz-adv-x="718" 
d="M12 -12l478 724h82l-478 -724h-82zM76 283v329h-51v52q52 0 69 41h54v-422h-72zM532 -10q-65 0 -105.5 37t-40.5 96q0 74 66 109q-47 28 -47 82q0 51 35.5 83t91.5 32t91 -32t35 -83q0 -25 -12.5 -47.5t-33.5 -34.5q65 -35 65 -109q0 -59 -40 -96t-105 -37zM532 259
q26 0 42 15t16 38q0 25 -16 40.5t-42 15.5q-25 0 -41.5 -15.5t-16.5 -40.5q0 -23 16.5 -38t41.5 -15zM532 53q32 0 52.5 20t20.5 53q0 30 -20.5 51t-52.5 21t-53 -21t-21 -51q0 -33 21 -53t53 -20z" />
    <glyph glyph-name="threeeighths" unicode="&#x215c;" horiz-adv-x="850" 
d="M176 273q-56 0 -95.5 30t-57.5 83l69 23q23 -72 85 -72q32 0 51 17.5t19 46.5q0 27 -18 46.5t-49 19.5h-33v64h26q29 0 43.5 17t14.5 42t-15.5 41.5t-42.5 16.5q-49 0 -72 -56l-66 23q18 44 55 70.5t86 26.5q58 0 94 -33t36 -84q0 -26 -14.5 -51.5t-38.5 -38.5
q31 -12 50 -38.5t19 -61.5q0 -61 -40.5 -96.5t-105.5 -35.5zM144 -12l478 724h82l-478 -724h-82zM664 -10q-65 0 -105.5 37t-40.5 96q0 74 66 109q-47 28 -47 82q0 51 35.5 83t91.5 32t91 -32t35 -83q0 -25 -12.5 -47.5t-33.5 -34.5q65 -35 65 -109q0 -59 -40 -96t-105 -37z
M664 259q26 0 42 15t16 38q0 25 -16 40.5t-42 15.5q-25 0 -41.5 -15.5t-16.5 -40.5q0 -23 16.5 -38t41.5 -15zM664 53q32 0 52.5 20t20.5 53q0 30 -20.5 51t-52.5 21t-53 -21t-21 -51q0 -33 21 -53t53 -20z" />
    <glyph glyph-name="fiveeighths" unicode="&#x215d;" horiz-adv-x="842" 
d="M136 -12l478 724h82l-478 -724h-82zM163 274q-88 0 -137 49l40 54q41 -39 95 -39q40 0 63.5 23t23.5 59q0 34 -19 55t-54 21q-50 0 -79 -43l-57 25l23 225h229v-67h-169l-11 -96q31 20 72 20q63 0 100.5 -40t37.5 -99q0 -65 -44 -106t-114 -41zM655 -10q-65 0 -105 37
t-40 96q0 74 66 109q-47 27 -47 82q0 51 35 83t91 32t91.5 -32t35.5 -83q0 -54 -47 -82q66 -35 66 -109q0 -59 -40 -96t-106 -37zM655 259q26 0 42 15t16 38q0 25 -15.5 40.5t-42.5 15.5q-25 0 -41.5 -15.5t-16.5 -40.5q0 -23 16.5 -38t41.5 -15zM655 53q33 0 53.5 20
t20.5 53q0 30 -20.5 51t-53.5 21q-32 0 -52.5 -21t-20.5 -51q0 -33 20.5 -53t52.5 -20z" />
    <glyph glyph-name="seveneighths" unicode="&#x215e;" horiz-adv-x="751" 
d="M45 -12l478 724h82l-478 -724h-82zM95 283q1 190 114 353h-196v67h278v-66q-65 -74 -93 -169t-29 -185h-74zM565 -10q-65 0 -105 37t-40 96q0 74 66 109q-47 27 -47 82q0 51 35 83t91 32t91.5 -32t35.5 -83q0 -54 -47 -82q66 -35 66 -109q0 -59 -40 -96t-106 -37z
M565 259q26 0 42 15t16 38q0 25 -15.5 40.5t-42.5 15.5q-25 0 -41.5 -15.5t-16.5 -40.5q0 -23 16.5 -38t41.5 -15zM565 53q33 0 53.5 20t20.5 53q0 30 -20.5 51t-53.5 21q-32 0 -52.5 -21t-20.5 -51q0 -33 20.5 -53t52.5 -20z" />
    <glyph glyph-name="arrowleft" unicode="&#x2190;" horiz-adv-x="790" 
d="M294 181q-4 0 -17 8l-225 153q-12 8 -12 18t12 18l225 154q13 8 17 8q12 0 12 -11q0 -5 -6 -21l-39 -113l479 11v-91l-479 11l39 -113q6 -16 6 -21q0 -11 -12 -11z" />
    <glyph glyph-name="arrowup" unicode="&#x2191;" horiz-adv-x="441" 
d="M175 0l12 477l-118 -40q-10 -4 -14 -4q-5 0 -9 4.5t-4 9.5t5 13l157 230q7 10 17 10q11 0 17 -10l156 -230q6 -8 6 -13t-4 -9.5t-10 -4.5q-3 0 -13 4l-118 40l12 -477h-92z" />
    <glyph glyph-name="arrowright" unicode="&#x2192;" horiz-adv-x="790" 
d="M496 181q-12 0 -12 11q0 5 6 21l39 113l-479 -11v91l479 -11l-39 113q-6 16 -6 21q0 11 12 11q4 0 17 -8l226 -154q11 -7 11 -18t-11 -18l-226 -153q-13 -8 -17 -8z" />
    <glyph glyph-name="arrowdown" unicode="&#x2193;" horiz-adv-x="456" 
d="M228 0q-10 0 -17 10l-161 236q-5 10 -5 13q0 14 13 14q6 0 14 -3l122 -42l-12 472h92l-12 -472l122 42q8 3 13 3q14 0 14 -14q0 -4 -6 -13l-160 -236q-6 -10 -17 -10z" />
    <glyph glyph-name="arrowboth" unicode="&#x2194;" horiz-adv-x="918" 
d="M624 181q-12 0 -12 11q0 5 6 21l38 110h-394l38 -110q6 -16 6 -21q0 -11 -12 -11q-4 0 -17 8l-225 153q-12 8 -12 18t12 18l225 154q13 8 17 8q12 0 12 -11q0 -5 -6 -21l-38 -110h394l-38 110q-6 16 -6 21q0 11 12 11q4 0 17 -8l226 -154q11 -7 11 -18t-11 -18l-226 -153
q-13 -8 -17 -8z" />
    <glyph glyph-name="arrowupdn" unicode="&#x2195;" horiz-adv-x="456" 
d="M227 -170q-11 0 -18 11l-153 226q-8 13 -8 17q0 12 11 12q5 0 21 -6l110 -38v492l-110 -38q-16 -6 -21 -6q-11 0 -11 12q0 4 8 17l153 226q7 11 18 11t18 -11l154 -226q8 -13 8 -17q0 -12 -11 -12q-5 0 -21 6l-110 38v-492l110 38q16 6 21 6q11 0 11 -12q0 -4 -8 -17
l-154 -226q-7 -11 -18 -11z" />
    <glyph glyph-name="uni2196" unicode="&#x2196;" horiz-adv-x="616" 
d="M524 70l-331 347l-52 -108q-10 -22 -19 -22q-12 0 -15 24l-49 255q0 4 -1.5 10.5t-1.5 8.5q0 18 18 18q2 0 4.5 -0.5t6.5 -1.5t6 -1l260 -49q22 -4 22 -14q0 -8 -22 -19l-109 -53l347 -330z" />
    <glyph glyph-name="uni2197" unicode="&#x2197;" horiz-adv-x="616" 
d="M92 70l-64 65l347 330l-109 53q-22 11 -22 19q0 10 22 14l260 49q2 0 6 1t6.5 1.5t4.5 0.5q18 0 18 -18q0 -2 -1.5 -8.5t-1.5 -10.5l-49 -255q-3 -24 -15 -24q-9 0 -19 22l-52 108z" />
    <glyph glyph-name="uni2198" unicode="&#x2198;" horiz-adv-x="616" 
d="M543 70q-2 0 -4.5 0.5t-6.5 1.5t-6 1l-260 49q-22 4 -22 14q0 8 22 19l109 53l-347 330l64 65l331 -347l52 108q10 22 19 22q12 0 15 -24l49 -255q0 -4 1.5 -10.5t1.5 -8.5q0 -18 -18 -18z" />
    <glyph glyph-name="uni2199" unicode="&#x2199;" horiz-adv-x="616" 
d="M73 70q-18 0 -18 18q0 2 1.5 8.5t1.5 10.5l49 255q3 24 15 24q9 0 19 -22l52 -108l331 347l64 -65l-347 -330l109 -53q22 -11 22 -19q0 -10 -22 -14l-260 -49q-2 0 -6 -1t-6.5 -1.5t-4.5 -0.5z" />
    <glyph glyph-name="uni21B3" unicode="&#x21b3;" horiz-adv-x="712" 
d="M661 232q11 -7 11 -18t-11 -18l-226 -153q-13 -8 -17 -8q-12 0 -12 11q0 5 6 21l38 110h-366v523h77v-448h289l-38 110q-6 16 -6 21q0 11 12 11q4 0 17 -8z" />
    <glyph glyph-name="uni21B4" unicode="&#x21b4;" horiz-adv-x="712" 
d="M661 324q11 0 11 -12q0 -4 -8 -17l-153 -225q-7 -12 -18 -12q-9 0 -18 12l-154 225q-8 13 -8 17q0 12 11 12q5 0 21 -6l109 -37v347h-370v72h448v-419l108 37q18 6 21 6z" />
    <glyph glyph-name="uni21B5" unicode="&#x21b5;" horiz-adv-x="712" 
d="M552 700h77v-523h-367l38 -110q6 -16 6 -21q0 -11 -12 -11q-4 0 -17 8l-225 153q-12 8 -12 18t12 18l225 154q13 8 17 8q12 0 12 -11q0 -5 -6 -21l-38 -110h290v448z" />
    <glyph glyph-name="uni21B6" unicode="&#x21b6;" horiz-adv-x="793" 
d="M441 712q115 0 187.5 -75t72.5 -201v-436h-79v436q0 95 -50 149t-131 54q-82 0 -132 -53.5t-50 -149.5v-39l108 37q18 6 21 6q11 0 11 -12q0 -4 -8 -17l-153 -225q-8 -12 -18 -12q-9 0 -18 12l-154 225q-8 13 -8 17q0 12 11 12q5 0 21 -6l109 -37v39q0 126 72.5 201
t187.5 75z" />
    <glyph glyph-name="uni21B7" unicode="&#x21b7;" horiz-adv-x="793" 
d="M742 440q11 0 11 -12q0 -4 -8 -17l-154 -225q-7 -12 -18 -12t-18 12l-153 225q-8 13 -8 17q0 12 11 12q5 0 21 -6l108 -37v39q0 96 -50 149.5t-131 53.5t-131.5 -54t-50.5 -149v-436h-78v436q0 126 72.5 201t187.5 75t187.5 -75t72.5 -201v-39l108 37q16 6 21 6z" />
    <glyph glyph-name="uni21B8" unicode="&#x21b8;" horiz-adv-x="616" 
d="M55 628v72h533v-72h-533zM524 -5l-331 347l-52 -108q-10 -22 -19 -22q-12 0 -15 24l-49 255q0 4 -1.5 10.5t-1.5 8.5q0 8 5.5 13t12.5 5q2 0 4.5 -0.5t6.5 -1.5t6 -1l260 -49q22 -4 22 -14q0 -8 -22 -19l-109 -53l347 -330z" />
    <glyph glyph-name="uni21B9" unicode="&#x21b9;" horiz-adv-x="872" 
d="M485 356q-4 0 -17 8l-225 153q-12 7 -12 18t12 18l225 154q13 8 17 8q12 0 12 -11q0 -5 -6 -21l-39 -113l336 11v-91l-336 11l39 -113q6 -16 6 -21q0 -11 -12 -11zM84 366v339h87v-339h-87zM387 -215q-12 0 -12 11q0 3 6 21l39 113l-336 -12v92l336 -12l-39 114
q-6 16 -6 21q0 11 12 11q4 0 17 -8l225 -154q12 -9 12 -18q0 -10 -12 -18l-225 -153q-13 -8 -17 -8zM701 -205v344h87v-344h-87z" />
    <glyph glyph-name="uni21BA" unicode="&#x21ba;" horiz-adv-x="846" 
d="M766 653q21 -5 21 -14t-22 -19l-104 -51q85 -93 85 -219q0 -134 -95 -228.5t-228 -94.5t-228 94.5t-95 228.5q0 133 95 228l55 -55q-72 -73 -72 -173q0 -101 72 -173.5t173 -72.5t173.5 72.5t72.5 173.5q0 94 -63 163l-49 -102q-12 -22 -19 -22q-11 0 -16 24l-48 255
q-3 12 -3 19q0 18 18 18q1 0 16 -3z" />
    <glyph glyph-name="uni21DA" unicode="&#x21da;" horiz-adv-x="790" 
d="M740 426h-468l-15 -43h483v-45h-483l14 -42h469v-45h-453l13 -38q6 -16 6 -21q0 -11 -12 -11q-4 0 -17 8l-225 153q-12 8 -12 18t12 18l225 154q13 8 17 8q12 0 12 -11q0 -5 -6 -21l-13 -37h453v-45z" />
    <glyph glyph-name="uni21DB" unicode="&#x21db;" horiz-adv-x="790" 
d="M739 378q11 -7 11 -18t-11 -18l-226 -153q-13 -8 -17 -8q-12 0 -12 11q0 5 6 21l13 38h-453v45h469l14 42h-483v45h483l-15 43h-468v45h453l-13 37q-6 16 -6 21q0 11 12 11q4 0 17 -8z" />
    <glyph glyph-name="uni21DC" unicode="&#x21dc;" horiz-adv-x="790" 
d="M660 398h80v-75h-114l-19 58l-42 -130h-58l-42 130l-42 -130h-58l-23 72h-80l38 -110q6 -16 6 -21q0 -11 -12 -11q-4 0 -17 8l-225 153q-12 8 -12 18t12 18l225 154q13 8 17 8q12 0 12 -11q0 -5 -6 -21l-38 -110h114l18 -58l42 131h58l42 -131l42 131h58z" />
    <glyph glyph-name="uni21DD" unicode="&#x21dd;" horiz-adv-x="790" 
d="M739 378q11 -7 11 -18t-11 -18l-226 -153q-13 -8 -17 -8q-12 0 -12 11q0 5 6 21l38 110h-79l-24 -72h-58l-42 130l-42 -130h-58l-42 129l-18 -57h-115v75h81l23 73h58l42 -131l42 131h58l42 -131l19 58h113l-38 110q-6 16 -6 21q0 11 12 11q4 0 17 -8z" />
    <glyph glyph-name="uni21DE" unicode="&#x21de;" horiz-adv-x="441" 
d="M373 437l-114 39v-123h131v-72h-131v-86h131v-72h-131v-123h-76v123h-131v72h131v86h-131v72h131v123l-114 -39q-10 -4 -14 -4q-5 0 -9 4.5t-4 9.5t5 13l157 230q7 10 17 10q11 0 17 -10l156 -230q6 -8 6 -13t-4 -9.5t-10 -4.5q-3 0 -13 4z" />
    <glyph glyph-name="uni21DF" unicode="&#x21df;" horiz-adv-x="441" 
d="M386 267q14 0 14 -14q0 -4 -6 -13l-156 -230q-6 -10 -17 -10q-10 0 -17 10l-157 230q-5 10 -5 13q0 14 13 14q7 0 14 -3l114 -40v123h-131v72h131v86h-131v72h131v123h76v-123h131v-72h-131v-86h131v-72h-131v-123l114 40q7 3 13 3z" />
    <glyph glyph-name="uni21E0" unicode="&#x21e0;" horiz-adv-x="790" 
d="M300 508l-38 -110h90v-75h-90l38 -110q6 -16 6 -21q0 -11 -12 -11q-4 0 -17 8l-225 153q-12 8 -12 18t12 18l225 154q13 8 17 8q12 0 12 -11q0 -5 -6 -21zM435 323v75h111v-75h-111zM629 398h111v-75h-111v75z" />
    <glyph glyph-name="uni21E1" unicode="&#x21e1;" horiz-adv-x="439" 
d="M394 460q6 -8 6 -13t-4 -9.5t-10 -4.5q-3 0 -13 4l-114 39v-96h-77v96l-113 -39q-10 -4 -14 -4q-5 0 -9 4.5t-4 9.5t5 13l157 230q7 10 17 10q11 0 17 -10zM182 190v113h77v-113h-77zM182 0v113h77v-113h-77z" />
    <glyph glyph-name="uni21E2" unicode="&#x21e2;" horiz-adv-x="790" 
d="M734 378q11 -7 11 -18t-11 -18l-226 -153q-13 -8 -17 -8q-12 0 -12 11q0 5 6 21l38 110h-90v75h90l-38 110q-6 16 -6 21q0 11 12 11q4 0 17 -8zM45 323v75h112v-75h-112zM239 323v75h112v-75h-112z" />
    <glyph glyph-name="uni21E3" unicode="&#x21e3;" horiz-adv-x="441" 
d="M259 700v-115h-77v115h77zM259 508v-115h-77v115h77zM386 267q14 0 14 -14q0 -4 -6 -13l-156 -230q-6 -10 -17 -10q-10 0 -17 10l-157 230q-5 10 -5 13q0 14 13 14q7 0 14 -3l113 -39v91h77v-92l114 40q7 3 13 3z" />
    <glyph glyph-name="uni21E4" unicode="&#x21e4;" horiz-adv-x="818" 
d="M84 104v511h87v-511h-87zM485 181q-4 0 -17 8l-225 153q-12 8 -12 18t12 18l225 154q13 8 17 8q12 0 12 -11q0 -5 -6 -21l-39 -113l316 11v-91l-316 11l39 -113q6 -16 6 -21q0 -11 -12 -11z" />
    <glyph glyph-name="uni21E5" unicode="&#x21e5;" horiz-adv-x="818" 
d="M647 104v511h87v-511h-87zM333 181q-12 0 -12 11q0 5 6 21l39 113l-316 -11v91l316 -11l-39 113q-6 16 -6 21q0 11 12 11q4 0 17 -8l225 -154q12 -8 12 -18t-12 -18l-225 -153q-13 -8 -17 -8z" />
    <glyph glyph-name="partialdiff" unicode="&#x2202;" horiz-adv-x="590" 
d="M252 -12q-97 0 -155.5 56.5t-58.5 146.5q0 110 71 178.5t167 68.5q61 0 99.5 -23t66.5 -66q1 26 0 50q-6 115 -71 171t-160 61l21 81q155 -17 225 -111t70 -268q0 -70 -15.5 -130t-47 -109t-86 -77.5t-126.5 -28.5zM252 72q76 0 121 42.5t45 111.5q0 127 -136 127
q-71 0 -113.5 -40t-42.5 -107q0 -62 35 -98t91 -36z" />
    <glyph glyph-name="uni2206" unicode="&#x2206;" horiz-adv-x="679" 
d="M51 0l248 700h81l248 -700h-577zM170 83h340l-147 419q-18 54 -23 74q-15 -50 -24 -74z" />
    <glyph glyph-name="product" unicode="&#x220f;" horiz-adv-x="720" 
d="M534 -140v755h-349v-755h-87v840h524v-840h-88z" />
    <glyph glyph-name="summation" unicode="&#x2211;" horiz-adv-x="621" 
d="M53 -141v76l258 354l-244 334v76h492v-84h-379l240 -325l-254 -347h413v-84h-526z" />
    <glyph glyph-name="minus" unicode="&#x2212;" horiz-adv-x="645" 
d="M88 301v84h470v-84h-470z" />
    <glyph glyph-name="uni2215" unicode="&#x2215;" horiz-adv-x="329" 
d="M-116 -12l479 724h82l-479 -724h-82z" />
    <glyph glyph-name="uni2219" unicode="&#x2219;" horiz-adv-x="225" 
d="M112 281q-29 0 -49 20.5t-20 47.5q0 28 20 48.5t49 20.5t49.5 -21t20.5 -48t-20.5 -47.5t-49.5 -20.5z" />
    <glyph glyph-name="radical" unicode="&#x221a;" horiz-adv-x="557" 
d="M520 700l-213 -700h-79l-175 335h90l116 -225l170 590h91z" />
    <glyph glyph-name="infinity" unicode="&#x221e;" horiz-adv-x="1008" 
d="M734 123q-151 0 -230 158q-85 -158 -230 -158q-100 0 -165.5 61.5t-65.5 169.5t65.5 170t165.5 62q144 0 230 -160q38 76 92 118t136 42q101 0 167 -62t66 -170t-65.5 -169.5t-165.5 -61.5zM281 204q106 0 187 150q-82 151 -187 151q-66 0 -108.5 -40.5t-42.5 -110.5
t42.5 -110t108.5 -40zM727 204q66 0 108 40t42 110t-42 110.5t-108 40.5q-108 0 -188 -151q79 -150 188 -150z" />
    <glyph glyph-name="integral" unicode="&#x222b;" horiz-adv-x="429" 
d="M147 -140q-55 0 -99 23v67q40 -15 73 -15q50 0 50 52v609q0 116 111 116q54 0 99 -24v-67q-44 16 -73 16q-50 0 -50 -53v-608q0 -116 -111 -116z" />
    <glyph glyph-name="approxequal" unicode="&#x2248;" horiz-adv-x="645" 
d="M428 367q-45 0 -114.5 30.5t-98.5 30.5q-30 0 -48.5 -17t-20.5 -44h-57q0 63 31.5 103t97.5 40q46 0 115.5 -30t96.5 -30q30 0 48.5 16.5t20.5 43.5h58q0 -62 -32 -102.5t-97 -40.5zM428 176q-45 0 -114.5 30.5t-98.5 30.5q-30 0 -48.5 -17t-20.5 -44h-57
q0 63 31.5 103.5t97.5 40.5q46 0 115.5 -30t96.5 -30q30 0 48.5 16.5t20.5 43.5h58q0 -62 -32 -103t-97 -41z" />
    <glyph glyph-name="notequal" unicode="&#x2260;" horiz-adv-x="645" 
d="M308 211l-45 -95h-91l45 95h-122v87h166l44 90h-210v87h252l43 87h91l-44 -87h126v-87h-168l-44 -90h212v-87h-255z" />
    <glyph glyph-name="lessequal" unicode="&#x2264;" horiz-adv-x="645" 
d="M557 182l-469 170v79l469 171v-92l-353 -118l353 -118v-92zM88 0v84h470v-84h-470z" />
    <glyph glyph-name="greaterequal" unicode="&#x2265;" horiz-adv-x="645" 
d="M88 182v92l353 118l-353 118v92l469 -171v-79zM88 0v84h470v-84h-470z" />
    <glyph glyph-name="lozenge" unicode="&#x25ca;" horiz-adv-x="610" 
d="M265 -12l-202 362l202 362h82l201 -362l-201 -362h-82zM306 623l-156 -273l156 -272l156 272z" />
    <glyph glyph-name="uni25CC" unicode="&#x25cc;" horiz-adv-x="659" 
d="M300 594q0 14 8.5 23t21.5 9t21.5 -9t8.5 -23t-8 -22t-22 -8t-22 8t-8 22zM209 576q0 14 8.5 23t22.5 9q13 0 21.5 -9t8.5 -23q0 -13 -8.5 -21.5t-21.5 -8.5t-22 8.5t-9 21.5zM389 576q0 13 9 22t21 9q14 0 23 -8.5t9 -22.5q0 -13 -9 -21.5t-23 -8.5q-13 0 -21.5 8.5
t-8.5 21.5zM133 526q0 13 8.5 21.5t22.5 8.5t22 -8t8 -22t-8 -22.5t-22 -8.5t-22.5 8.5t-8.5 22.5zM466 526q0 14 8 22t22 8t22.5 -8.5t8.5 -21.5q0 -14 -8.5 -22.5t-22.5 -8.5t-22 8.5t-8 22.5zM517 449q0 13 8.5 22.5t21.5 9.5t22 -9.5t9 -22.5t-9 -21.5t-22 -8.5
t-21.5 8.5t-8.5 21.5zM82 449q0 13 9 22t22 9t22 -9t9 -22t-9.5 -22t-21.5 -9q-13 0 -22 9t-9 22zM63 359q0 14 9 22.5t23 8.5t22 -8.5t8 -22.5q0 -13 -8.5 -21.5t-21.5 -8.5q-14 0 -23 8.5t-9 21.5zM535 359q0 14 8 22.5t22 8.5q13 0 22.5 -8.5t9.5 -22.5q0 -13 -9.5 -21.5
t-22.5 -8.5t-21.5 8.5t-8.5 21.5zM82 269q0 13 9 22t22 9t21.5 -9t8.5 -22t-8.5 -22t-21.5 -9t-22 9t-9 22zM516 270q0 13 9 21.5t22 8.5t22 -8.5t9 -21.5q0 -14 -9 -22.5t-22 -8.5t-22 8.5t-9 22.5zM133 193q0 13 8.5 22t22.5 9q13 0 21.5 -8.5t8.5 -22.5q0 -13 -8 -21.5
t-22 -8.5t-22.5 8.5t-8.5 21.5zM466 193q0 14 8.5 22.5t21.5 8.5q14 0 22.5 -9t8.5 -22t-8.5 -21.5t-22.5 -8.5t-22 8.5t-8 21.5zM209 143q0 13 9 21.5t23 8.5q13 0 21.5 -8.5t8.5 -21.5t-9 -22.5t-21 -9.5q-14 0 -23 9t-9 23zM390 142q0 13 8.5 22t21.5 9q14 0 22.5 -8.5
t8.5 -22.5t-8.5 -22.5t-22.5 -8.5q-13 0 -21.5 9t-8.5 22zM300 124q0 14 8.5 22.5t21.5 8.5t21.5 -8.5t8.5 -22.5t-8.5 -22.5t-21.5 -8.5t-21.5 8.5t-8.5 22.5z" />
    <glyph glyph-name="uniF6C3" unicode="&#xf6c3;" horiz-adv-x="0" 
d="M-127 730v-8q0 -140 -89 -228l-26 19q13 28 21.5 91.5t8.5 125.5h85z" />
    <glyph glyph-name="u1F3A9" unicode="&#x1f3a9;" horiz-adv-x="935" 
d="M459 9q-169 0 -294 88t-125 201q0 30 13.5 54t40.5 42.5t55.5 31t70.5 27.5q20 75 68 190q24 55 61 55q31 0 65 -16.5t55 -16.5q18 0 54 16.5t65 16.5q38 0 53 -43q65 -177 72 -202q182 -52 182 -159q0 -109 -128 -197t-308 -88zM469 207q62 0 115 20.5t84 50t48.5 58.5
t17.5 49q0 11 -7 30l-14 37q-30 -56 -102 -91t-145 -35q-64 0 -136.5 31t-109.5 95l-19 -55q-2 -8 -2 -11q0 -11 8.5 -31t30 -46t51 -48.5t77 -38t103.5 -15.5z" />
    <glyph glyph-name="u1F427" unicode="&#x1f427;" horiz-adv-x="706" 
d="M232 -5q-4 0 -19 4.5t-35.5 11.5t-34.5 10q-12 3 -34 7.5t-29 6.5q-3 1 -8 2.5t-6 1.5q-16 4 -16 20q0 7 6 20t6 22q0 10 -4.5 23t-4.5 18q0 16 17 18q5 2 27 4q29 6 29 34q2 -12 2 -14q0 -13 -10.5 -22t-24.5 -9h-19q-12 0 -12 -9q0 -7 6 -22t6 -24q0 -7 -5.5 -19.5
t-5.5 -19.5t7 -10q3 -1 54 -12.5t83 -21.5q9 -3 19 -3q44 0 44 33q0 24 -20 57q-74 116 -100 116q-5 0 -8 -1.5t-4 -3t-2 -1.5q-4 0 -4 19q0 16 7 30q8 12 16.5 33t11.5 27q10 35 21 52q3 7 11 17l19.5 26l20.5 27q13 25 13 36q0 1 -0.5 4t-0.5 5q-4 51 -4 125q0 45 28 68.5
t66 23.5q37 0 63.5 -13.5t38.5 -34.5t17 -40t5 -38v-16q0 -87 57 -149q35 -37 59 -104q12 -35 13 -62q2 -10 2 -15q0 -25 -24 -41q-23 -33 -46 -33q-9 0 -17 4q-10 3 -19.5 21t-15.5 18q-15 0 -15 -30q0 -9 3.5 -29.5t3.5 -33.5q0 -10 -2.5 -29.5t-2.5 -30.5q0 -14 11.5 -25
t27.5 -11q17 0 31 14q36 30 76 43q1 0 10 3.5l14.5 5.5t11 7t5.5 10q0 7 -9 12.5t-19 9.5t-19 15.5t-9 28.5q0 16 5 23q2 -18 4 -26q7 -22 31 -36.5t24 -24.5q0 -16 -41 -37q-34 -17 -55 -31l-31 -26q-9 -9 -36 -9q-28 0 -42.5 17.5t-23.5 17.5q-7 0 -23 1t-24 1
q-9 0 -27.5 -1t-28.5 -1q-28 0 -55.5 -17.5t-36.5 -17.5zM286 33q9 5 9 16q0 7 -4 14.5t-8 12.5l-4 5q0 5 8 5q2 0 7 -4t17.5 -8t33.5 -4q25 0 50.5 9.5t34.5 28.5q5 10 12 10q4 0 4 -14q0 -23 -8 -43q-3 -15 -3 -16q0 -6 10 -6q3 23 6 39.5t4 23t1 14.5q0 7 -2 18.5
t-4 20.5l-1 9q0 44 28 44q3 0 3 3q1 11 12 17.5t24 6.5q7 0 16 -4t14 -5q-3 5 -11.5 10.5t-10.5 6.5q6 18 6 36q0 28 -14 65.5t-38 48.5q45 -58 45 -118q0 -8 -2 -20q-4 -19 -27 -19q-11 0 -11 22q0 87 -37 127q-8 39 -31 73q-8 8 -8 24v6q6 15 6 22t-5.5 11t-16.5 6.5
t-14 4.5q-3 3 -8.5 4.5t-8.5 5t-3 11.5q0 28 21 28q9 0 14.5 -7t5.5 -17q0 -8 -2 -13t-2 -6q0 -4 13 -4q6 2 7 6q0 34 -7 47q-11 17 -26 17q-14 0 -26 -9.5t-12 -23.5q0 -17 2 -25q-5 4 -18 4h-8q-6 0 -6 5q0 45 -25 45q-9 0 -16.5 -12t-7.5 -25q0 -8 4 -19.5t10 -11.5l7 6
q-12 0 -12 22q0 20 15 20t15 -27q0 -6 -5 -9q-7 -9 -23 -21q-5 -4 -7 -11q-3 -2 -3 -3q0 -4 6 -6q4 -6 8 -10t7 -6t4 -3q4 -4 16 -4h7q11 0 39 7q15 3 24.5 8.5t13.5 9.5l4 4l1 -1h2q3 0 3 -4t-6 -8l-42 -16q-26 -11 -44 -11q-1 0 -4.5 1t-5.5 1h-9q13 -17 29 -17
q23 0 61 25q1 0 3 0.5t4.5 1.5t5.5 2q1 0 4 -3q0 -5 -11 -11q-16 -7 -44 -27q-14 -14 -26 -14q-15 0 -22 12l-21 29q-3 -3 -3 -4t0.5 -3t0.5 -3q0 -3 -7 -17q-20 -40 -20 -52q0 -4 2 -10t2 -8q-7 -4 -13 -18q-30 -52 -30 -91q0 -10 1 -16q0 -1 -1.5 -7t-1.5 -11q-1 -5 -6 -5
q-3 0 -5 2t-5.5 8t-5.5 9q-5 11 -5 26q0 5 2 19v4q-8 -4 -8 -25q0 -17 8 -33q1 -10 12 -19q18 -15 33 -31l53 -42q9 -8 9 -19q0 -8 -6 -15t-10 -7q-8 0 -8 -3q0 -1 2.5 -4l6 -7.5t5.5 -7.5q11 -17 12 -46zM387 557h4q1 1 1 6q0 3 -6 9q-2 2 -4 2t-3 -2q8 -5 8 -15zM295 553
q2 2 2 4q0 4 -2 9t-4 5q-3 0 -3 -5q4 0 4 -9q0 -4 3 -4zM302 534q-2 0 -3 4q8 4 9 6q-2 -6 -3 -7zM342 536q-3 3 -4 8q2 -2 7 -2v-4q0 -2 -3 -2z" />
    <glyph glyph-name="i.TRK" horiz-adv-x="254" 
d="M127 604q-23 0 -38.5 16t-15.5 38q0 23 16 39.5t38 16.5q23 0 39 -16.5t16 -39.5t-16 -38.5t-39 -15.5zM84 0v511h87v-511h-87z" />
    <glyph glyph-name="Jacute" horiz-adv-x="546" 
d="M295 765l142 156h124l-178 -156h-88zM230 -12q-148 0 -202 126l72 37q21 -43 50 -62t81 -19q133 0 133 157v473h87v-470q0 -69 -20 -118.5t-54 -75t-70.5 -37t-76.5 -11.5z" />
    <glyph glyph-name="jacute" horiz-adv-x="254" 
d="M28 576l142 156h124l-178 -156h-88zM-6 -214l-41 66q74 12 102.5 38t28.5 74v547h87v-515q0 -93 -38 -138q-48 -59 -139 -72z" />
    <glyph glyph-name="zero.dnom" horiz-adv-x="387" 
d="M193 -7q-55 0 -90 34.5t-47 80.5t-12 103q0 40 7 75.5t23 69t46.5 53.5t72.5 20t72.5 -19t46.5 -52t23.5 -69t7.5 -78q0 -40 -7 -75.5t-22.5 -69t-46.5 -53.5t-74 -20zM193 61q22 0 38 14t24 37.5t11.5 47.5t3.5 51q0 151 -77 151q-29 0 -47 -25.5t-23.5 -56.5t-5.5 -69
q0 -150 76 -150z" />
    <glyph glyph-name="one.dnom" horiz-adv-x="199" 
d="M69 0v329h-51v52q51 0 68 41h54v-422h-71z" />
    <glyph glyph-name="two.dnom" horiz-adv-x="362" 
d="M33 0q0 79 37.5 128.5t109.5 92.5q32 19 48 37.5t16 47.5q0 23 -17.5 41t-50.5 18q-63 0 -77 -68l-66 20q11 50 50 81t97 31q62 0 100 -34.5t38 -91.5q0 -51 -27.5 -82t-87.5 -65q-68 -39 -89 -89h203v-67h-284z" />
    <glyph glyph-name="three.dnom" horiz-adv-x="364" 
d="M176 -10q-56 0 -95 30t-57 83l68 23q24 -72 86 -72q32 0 50.5 17.5t18.5 46.5q0 27 -17.5 46.5t-49.5 19.5h-32v64h26q29 0 43 17t14 42t-15 41.5t-43 16.5q-48 0 -71 -56l-67 23q18 44 55.5 70.5t85.5 26.5q59 0 94.5 -32.5t35.5 -84.5q0 -27 -14.5 -52t-38.5 -38
q32 -12 50.5 -38.5t18.5 -61.5q0 -61 -40.5 -96.5t-105.5 -35.5z" />
    <glyph glyph-name="four.dnom" horiz-adv-x="380" 
d="M225 0v97h-211v42l219 284h62v-260h53v-66h-53v-97h-70zM225 163v157l-119 -157h119z" />
    <glyph glyph-name="five.dnom" horiz-adv-x="359" 
d="M167 -10q-88 0 -136 50l39 54q43 -39 95 -39q40 0 64 23t24 59q0 34 -19 55t-54 21q-52 0 -79 -43l-58 25l24 225h229v-67h-169l-12 -96q31 20 72 20q64 0 101 -40t37 -99q0 -65 -44 -106.5t-114 -41.5z" />
    <glyph glyph-name="six.dnom" horiz-adv-x="360" 
d="M186 -10q-69 0 -106 46t-37 119q0 104 62 179t169 94v-64q-49 -10 -89 -42.5t-56 -82.5q26 23 73 23q55 0 91.5 -38t36.5 -96q0 -60 -40 -99t-104 -39zM188 55q30 0 50.5 19.5t20.5 50.5q0 34 -20 53.5t-51 19.5q-33 0 -52.5 -19.5t-19.5 -52.5t19.5 -52t52.5 -19z" />
    <glyph glyph-name="seven.dnom" horiz-adv-x="308" 
d="M95 0q1 190 114 353h-196v67h278v-66q-65 -74 -93 -169t-29 -185h-74z" />
    <glyph glyph-name="eight.dnom" horiz-adv-x="374" 
d="M187 -10q-65 0 -105.5 37t-40.5 96q0 74 66 109q-47 28 -47 82q0 51 35.5 83t91.5 32t91 -32t35 -83q0 -25 -12.5 -47.5t-33.5 -34.5q65 -35 65 -109q0 -59 -40 -96t-105 -37zM187 259q26 0 42 15t16 38q0 25 -16 40.5t-42 15.5q-25 0 -41.5 -15.5t-16.5 -40.5
q0 -23 16.5 -38t41.5 -15zM187 53q32 0 52.5 20t20.5 53q0 30 -20.5 51t-52.5 21t-53 -21t-21 -51q0 -33 21 -53t53 -20z" />
    <glyph glyph-name="nine.dnom" horiz-adv-x="360" 
d="M93 -9v65q108 18 141 126q-26 -25 -72 -25q-58 0 -95 38.5t-37 96.5q0 60 40.5 98.5t104.5 38.5q70 0 107.5 -45t37.5 -117q0 -110 -61.5 -186.5t-165.5 -89.5zM173 221q34 0 53.5 20t19.5 53t-20 52t-53 19q-30 0 -50 -19.5t-20 -51.5q0 -34 19 -53.5t51 -19.5z" />
    <glyph glyph-name="zero.numr" horiz-adv-x="387" 
d="M193 276q-55 0 -90 34.5t-47 80.5t-12 103q0 40 7 75.5t23 69t46.5 53.5t72.5 20t72.5 -19t46.5 -52t23.5 -69t7.5 -78q0 -40 -7 -75.5t-22.5 -69t-46.5 -53.5t-74 -20zM193 344q22 0 38 14t24 37.5t11.5 47.5t3.5 51q0 151 -77 151q-29 0 -47 -25.5t-23.5 -56.5
t-5.5 -69q0 -150 76 -150z" />
    <glyph glyph-name="one.numr" horiz-adv-x="199" 
d="M69 283v329h-51v52q51 0 68 41h54v-422h-71z" />
    <glyph glyph-name="two.numr" horiz-adv-x="362" 
d="M33 283q0 79 37.5 128.5t109.5 92.5q32 19 48 37.5t16 47.5q0 23 -17.5 41t-50.5 18q-63 0 -77 -68l-66 20q11 50 50 81t97 31q62 0 100 -34.5t38 -91.5q0 -51 -27.5 -82t-87.5 -65q-68 -39 -89 -89h203v-67h-284z" />
    <glyph glyph-name="three.numr" horiz-adv-x="364" 
d="M176 273q-56 0 -95 30t-57 83l68 23q24 -72 86 -72q32 0 50.5 17.5t18.5 46.5q0 27 -17.5 46.5t-49.5 19.5h-32v64h26q29 0 43 17t14 42t-15 41.5t-43 16.5q-48 0 -71 -56l-67 23q18 44 55.5 70.5t85.5 26.5q59 0 94.5 -32.5t35.5 -84.5q0 -27 -14.5 -52t-38.5 -38
q32 -12 50.5 -38.5t18.5 -61.5q0 -61 -40.5 -96.5t-105.5 -35.5z" />
    <glyph glyph-name="four.numr" horiz-adv-x="380" 
d="M225 283v97h-211v42l219 284h62v-260h53v-66h-53v-97h-70zM225 446v157l-119 -157h119z" />
    <glyph glyph-name="five.numr" horiz-adv-x="359" 
d="M167 274q-89 0 -136 49l39 54q43 -39 95 -39q40 0 64 23t24 59q0 34 -19 55t-54 21q-52 0 -79 -43l-58 25l24 225h229v-67h-169l-12 -96q31 20 72 20q64 0 101 -40t37 -99q0 -65 -44 -106t-114 -41z" />
    <glyph glyph-name="six.numr" horiz-adv-x="360" 
d="M186 274q-69 0 -106 46t-37 118q0 104 62 179t169 94v-64q-49 -10 -89 -42.5t-56 -82.5q26 23 73 23q55 0 91.5 -38t36.5 -96q0 -60 -39.5 -98.5t-104.5 -38.5zM188 338q30 0 50.5 19.5t20.5 50.5q0 34 -20 53.5t-51 19.5q-33 0 -52.5 -19.5t-19.5 -52.5t19.5 -52
t52.5 -19z" />
    <glyph glyph-name="seven.numr" horiz-adv-x="308" 
d="M95 283q1 190 114 353h-196v67h278v-66q-65 -74 -93 -169t-29 -185h-74z" />
    <glyph glyph-name="eight.numr" horiz-adv-x="374" 
d="M187 273q-65 0 -105.5 37t-40.5 96q0 74 66 109q-47 28 -47 82q0 51 35.5 83t91.5 32t91 -32t35 -83q0 -25 -12.5 -47.5t-33.5 -34.5q65 -35 65 -109q0 -59 -40 -96t-105 -37zM187 542q26 0 42 15t16 38q0 25 -16 40.5t-42 15.5q-25 0 -41.5 -15.5t-16.5 -40.5
q0 -23 16.5 -38t41.5 -15zM187 336q32 0 52.5 20t20.5 53q0 30 -20.5 51t-52.5 21t-53 -21t-21 -51q0 -33 21 -53t53 -20z" />
    <glyph glyph-name="nine.numr" horiz-adv-x="360" 
d="M93 275v64q108 18 141 126q-26 -25 -72 -25q-58 0 -95 38.5t-37 96.5q0 60 40.5 98.5t104.5 38.5q70 0 107.5 -45t37.5 -117q0 -110 -61.5 -186.5t-165.5 -88.5zM173 504q34 0 53.5 20t19.5 53t-20 52t-53 19q-30 0 -50 -19.5t-20 -51.5q0 -34 19 -53.5t51 -19.5z" />
    </font>
</defs>
</svg>
